<?xml version="1.0" standalone="no"?>
<!DOCTYPE svg PUBLIC "-//W3C//DTD SVG 1.1//EN" "http://www.w3.org/Graphics/SVG/1.1/DTD/svg11.dtd" >
<svg xmlns="http://www.w3.org/2000/svg" xmlns:xlink="http://www.w3.org/1999/xlink" version="1.1">
<metadata></metadata>
<defs>
<font id="ibm_plex_sans_thaimedium" horiz-adv-x="1228" >
<font-face units-per-em="2048" ascent="1638" descent="-410" />
<missing-glyph horiz-adv-x="483" />
<glyph unicode="fi" horiz-adv-x="1230" d="M215 883h-162v182h162v176q0 129 67.5 202t202.5 73h177v-183h-224v-268h633v-1065h-223v883h-410v-883h-223v883zM961 1255q-70 0 -102 33t-32 84v35q0 51 32 84t102 33t100.5 -33t30.5 -84v-35q0 -51 -30.5 -84t-100.5 -33z" />
<glyph unicode="&#xe26;&#xe45;" horiz-adv-x="1929" d="M891 662q0 147 -73 226t-208 79q-111 0 -192.5 -50.5t-110.5 -134.5l90 -34q57 -23 80 -52.5t23 -87.5v-383q0 -106 -55.5 -165.5t-172.5 -59.5h-114v182h118v439l-176 73q8 100 49 184.5t108 144.5t157 93t196 33q133 0 231.5 -38t162.5 -110q55 68 141 108t215 40 q205 0 312.5 -96.5t107.5 -276.5v-1163h-224v1149q0 98 -50 152.5t-160 54.5q-92 0 -149.5 -40t-98.5 -102q10 -33 13 -66.5t3 -70.5v-1077h-223v1049z" />
<glyph unicode="&#xe24;&#xe45;" horiz-adv-x="1933" d="M895 662q0 147 -77 226t-216 79q-115 0 -197.5 -50.5t-111.5 -134.5l88 -34q57 -23 79.5 -52.5t22.5 -87.5v-426h119v-182h-113q-117 0 -173 59.5t-56 165.5v396l-176 73q8 100 49 184.5t110.5 144.5t162 93t200.5 33q135 0 234.5 -38t165.5 -110q55 68 142 108t216 40 q205 0 312.5 -96.5t107.5 -276.5v-1163h-223v1149q0 98 -51.5 152.5t-161.5 54.5q-92 0 -148.5 -40t-97.5 -104q10 -31 13 -64.5t3 -70.5v-1077h-223v1049z" />
<glyph unicode="&#xd;" horiz-adv-x="483" />
<glyph unicode=" "  horiz-adv-x="483" />
<glyph unicode="&#x09;" horiz-adv-x="483" />
<glyph unicode="&#xa0;" horiz-adv-x="483" />
<glyph unicode="!" horiz-adv-x="610" d="M254 410l-72 612v408h242v-408l-68 -612h-102zM305 -25q-78 0 -113.5 38t-35.5 98v34q0 59 35.5 97.5t113.5 38.5t114 -38t36 -98v-34q0 -59 -36 -97.5t-114 -38.5z" />
<glyph unicode="&#x22;" horiz-adv-x="923" d="M160 901v615h198v-615h-198zM566 901v615h198v-615h-198z" />
<glyph unicode="#" horiz-adv-x="1388" d="M801 391h-324l-67 -391h-158l67 391h-237v150h264l60 348h-238v149h264l68 392h155l-67 -392h323l68 392h158l-68 -392h238v-149h-265l-59 -348h238v-150h-265l-67 -391h-156zM825 541l62 348h-324l-61 -348h323z" />
<glyph unicode="$" horiz-adv-x="1226" d="M535 -168v176q-156 12 -262.5 75.5t-184.5 156.5l150 135q63 -78 138 -125t173 -60v459q-221 47 -319.5 142.5t-98.5 250.5q0 164 108.5 260.5t295.5 116.5v178h174v-178q131 -12 228 -65.5t169 -145.5l-152 -125q-45 59 -107.5 99.5t-150.5 54.5v-420q121 -27 201 -63.5 t130 -82.5t72.5 -106.5t22.5 -140.5q0 -166 -107.5 -276.5t-305.5 -135.5v-180h-174zM907 410q0 78 -45 128t-166 80v-425q100 16 155.5 73.5t55.5 143.5zM344 1053q0 -86 50 -130t155 -73v389q-98 -14 -151.5 -61t-53.5 -125z" />
<glyph unicode="%" horiz-adv-x="1939" d="M371 0l991 1430h207l-991 -1430h-207zM463 643q-166 0 -254 103.5t-88 302.5t88 302t254 103t254 -103.5t88 -301.5q0 -199 -88 -302.5t-254 -103.5zM463 780q145 0 145 211v115q0 211 -145 211t-146 -211v-115q1 -211 146 -211zM1477 -25q-166 0 -254 103.5t-88 302.5 t88 302t254 103t254 -103t88 -302t-88 -302.5t-254 -103.5zM1477 113q145 0 145 211v114q0 211 -145 211t-146 -211v-114q1 -211 146 -211z" />
<glyph unicode="&#x26;" horiz-adv-x="1447" d="M1001 145q-27 -27 -64.5 -56.5t-87.5 -55t-114.5 -42t-146.5 -16.5q-111 0 -197 31t-144.5 84t-88 126t-29.5 157q0 76 23.5 136t63.5 108.5t92 86t112 70.5q-68 72 -115 156t-47 180q0 72 27.5 135.5t79 109.5t124 72.5t160.5 26.5q82 0 151.5 -22.5t121 -63.5t79 -99.5 t27.5 -129.5q0 -70 -24.5 -126.5t-67.5 -102.5t-99.5 -86t-119.5 -76l278 -302q29 74 45.5 156t20.5 166h305v-188h-139q-31 -156 -94 -277l280 -303h-278zM649 1276q-74 0 -125 -44t-51 -116v-16q0 -53 34 -106.5t97 -123.5q86 47 147.5 105.5t61.5 134.5v16q0 72 -45 111 t-119 39zM614 166q86 0 151.5 28.5t115.5 79.5l-349 375q-78 -43 -126 -96t-48 -145v-27q0 -98 67.5 -156.5t188.5 -58.5z" />
<glyph unicode="'" horiz-adv-x="518" d="M160 901v615h198v-615h-198z" />
<glyph unicode="(" horiz-adv-x="688" d="M129 637q0 150 27.5 287t77 255.5t116 215t144.5 161.5h211q-84 -78 -152 -174t-115 -204.5t-72.5 -225t-25.5 -233.5v-164q0 -117 25.5 -233.5t72.5 -225t115 -206t152 -173.5h-211q-78 66 -144.5 162t-116 215t-77 256t-27.5 287z" />
<glyph unicode=")" horiz-adv-x="688" d="M559 637q0 -150 -27.5 -287t-76.5 -256t-116 -215t-144 -162h-211q84 76 151.5 173.5t114.5 206t72.5 225t25.5 233.5v164q0 117 -25.5 233.5t-72.5 225t-114.5 205t-151.5 173.5h211q78 -66 144.5 -162t115.5 -214.5t76.5 -255.5t27.5 -287z" />
<glyph unicode="*" horiz-adv-x="1052" d="M334 664l-156 108l217 270l-325 95l59 178l313 -123l-14 338h195l-15 -338l314 123l61 -178l-328 -95l217 -270l-155 -108l-193 286z" />
<glyph unicode="+" d="M514 129v406h-377v182h377v405h201v-405h377v-182h-377v-406h-201z" />
<glyph unicode="," horiz-adv-x="593" d="M297 285q76 0 112.5 -39t36.5 -101v-32q0 -100 -54 -210t-146 -186h-166q66 66 108.5 127.5t65.5 137.5q-53 10 -80 45.5t-27 85.5v32q0 61 37 100.5t113 39.5z" />
<glyph unicode="-" horiz-adv-x="821" d="M127 510v227h567v-227h-567z" />
<glyph unicode="." horiz-adv-x="593" d="M297 -25q-76 0 -113 40t-37 100v30q0 59 37 99.5t113 40.5t112.5 -40t36.5 -100v-30q0 -59 -36.5 -99.5t-112.5 -40.5z" />
<glyph unicode="/" horiz-adv-x="854" d="M14 -309l568 1825h192l-567 -1825h-193z" />
<glyph unicode="0" d="M614 -25q-133 0 -231 50.5t-161.5 144.5t-94.5 231.5t-31 313.5q0 174 31 312t94.5 232.5t161.5 144.5t231 50q266 0 392.5 -194.5t126.5 -544.5t-126.5 -545t-392.5 -195zM614 172q74 0 126.5 29.5t85 85t47 132.5t14.5 171v250q0 94 -14.5 170.5t-47 132t-85 85 t-126.5 29.5t-126 -29.5t-84.5 -85t-47 -132t-14.5 -170.5v-250q0 -94 14.5 -171t47 -132.5t84.5 -85t126 -29.5z" />
<glyph unicode="1" d="M180 0v193h402v1069h-17l-332 -355l-141 127l365 396h352v-1237h348v-193h-977z" />
<glyph unicode="2" d="M1108 0h-971v221l457 408q109 98 167 187t58 188v26q0 104 -62.5 163.5t-168.5 59.5q-59 0 -103.5 -17t-77 -48t-54 -72t-34.5 -88l-202 78q23 68 61.5 130t98 111.5t140.5 78t189 28.5q109 0 195 -31.5t144.5 -88t89 -134.5t30.5 -170q0 -86 -26.5 -159.5t-73.5 -139 t-109.5 -125t-132.5 -121.5l-336 -288h721v-197z" />
<glyph unicode="3" d="M537 842q133 0 196.5 56t63.5 144v15q0 98 -61.5 150.5t-166.5 52.5q-102 0 -173.5 -46.5t-121.5 -128.5l-153 134q33 47 74 90t96 74.5t124.5 51t159.5 19.5q100 0 186.5 -24.5t148 -72.5t96 -117t34.5 -155q0 -68 -21.5 -123t-59 -97t-88 -68.5t-105.5 -38.5v-10 q61 -12 115.5 -40t95.5 -72t64.5 -104.5t23.5 -138.5q0 -94 -37 -171t-103.5 -132t-160.5 -85t-209 -30q-100 0 -176 21.5t-134.5 57.5t-102.5 82t-76 95l170 134q27 -43 56.5 -79t67 -61.5t86 -40t109.5 -14.5q131 0 200.5 62.5t69.5 173.5v14q0 111 -73.5 168t-208.5 57 h-152v197h146z" />
<glyph unicode="4" d="M735 0v279h-663v198l579 953h303v-969h195v-182h-195v-279h-219zM268 461h467v758h-14z" />
<glyph unicode="5" d="M1040 1229h-634l-37 -506h14q25 43 51.5 77t61 58.5t80 37.5t106.5 13q92 0 171 -30.5t137.5 -88t91 -140.5t32.5 -187q0 -106 -33.5 -196.5t-99.5 -155t-161 -100.5t-216 -36q-96 0 -170 21.5t-130 57.5t-98 82t-75 95l168 134q27 -43 55.5 -78t65.5 -61.5t83 -41 t105 -14.5q127 0 195.5 69.5t68.5 192.5v25q0 123 -68.5 192.5t-195.5 69.5q-92 0 -147 -35t-94 -78l-191 27l53 797h811v-201z" />
<glyph unicode="6" d="M618 -25q-119 0 -212 39t-157.5 112t-99 175t-34.5 231q0 156 47 293.5t120.5 252t165 203.5t179.5 149h307q-121 -88 -217 -170t-168 -168t-120 -182.5t-75 -211.5l15 -4q23 43 52.5 81t69 66.5t91 45t118.5 16.5q90 0 167 -30.5t133.5 -89t88 -140.5t31.5 -182 q0 -109 -35.5 -198t-101 -152.5t-159 -99.5t-206.5 -36zM618 164q125 0 195 66.5t70 195.5v29q0 129 -70 195.5t-195 66.5t-194.5 -66.5t-69.5 -195.5v-29q0 -129 69.5 -195.5t194.5 -66.5z" />
<glyph unicode="7" d="M350 0l518 1239h-540v-264h-199v455h969v-201l-504 -1229h-244z" />
<glyph unicode="8" d="M614 -25q-125 0 -220 32t-159.5 87.5t-98.5 131t-34 163.5q0 143 79 230.5t208 121.5v17q-111 39 -177.5 123t-66.5 206q0 82 32 150t91.5 116t147.5 74.5t198 26.5q111 0 199 -26.5t147.5 -74.5t91 -116t31.5 -150q0 -123 -66.5 -206.5t-176.5 -122.5v-17 q129 -35 207.5 -122t78.5 -230q0 -88 -33.5 -163.5t-98 -131t-160 -87.5t-220.5 -32zM614 162q129 0 200 59.5t71 165.5v41q0 106 -71 165.5t-200 59.5t-199.5 -59t-70.5 -166v-41q0 -106 70.5 -165.5t199.5 -59.5zM614 831q119 0 181.5 51.5t62.5 149.5v35 q0 98 -62.5 149.5t-181.5 51.5t-181 -51.5t-62 -149.5v-35q0 -98 62 -149.5t181 -51.5z" />
<glyph unicode="9" d="M1114 897q0 -156 -47 -293t-121 -251.5t-165 -205t-179 -147.5h-307q121 88 217 170t168 168t120 182t74 211l-14 4q-23 -43 -52.5 -81t-69.5 -66.5t-91 -45t-119 -16.5q-90 0 -166.5 31t-133 89.5t-88 139t-31.5 183.5q0 106 35.5 196t101 153.5t158 99.5t206.5 36 q119 0 212 -39t157.5 -111.5t99.5 -175t35 -231.5zM610 713q125 0 194.5 66.5t69.5 195.5v29q0 129 -69.5 195.5t-194.5 66.5t-194.5 -66.5t-69.5 -195.5v-29q0 -129 69.5 -195.5t194.5 -66.5z" />
<glyph unicode=":" horiz-adv-x="634" d="M317 -25q-76 0 -113 40t-37 100v30q0 59 37 99.5t113 40.5t112.5 -40t36.5 -100v-30q0 -59 -36.5 -99.5t-112.5 -40.5zM317 780q-76 0 -113 40t-37 100v30q0 59 37 99.5t113 40.5t112.5 -40t36.5 -100v-30q0 -59 -36.5 -99.5t-112.5 -40.5z" />
<glyph unicode=";" horiz-adv-x="634" d="M317 285q76 0 112.5 -39t36.5 -101v-32q0 -100 -54 -210t-146 -186h-166q66 66 108.5 127.5t65.5 137.5q-53 10 -80 45.5t-27 85.5v32q0 61 37 100.5t113 39.5zM317 780q-76 0 -113 40t-37 100v30q0 59 37 99.5t113 40.5t112.5 -40t36.5 -100v-30q0 -59 -36.5 -99.5 t-112.5 -40.5z" />
<glyph unicode="&#x3c;" d="M197 504v168l835 520v-229l-612 -367v-14l612 -369v-229z" />
<glyph unicode="=" d="M137 754v182h955v-182h-955zM137 315v183h955v-183h-955z" />
<glyph unicode="&#x3e;" d="M197 213l612 369v14l-612 367v229l835 -520v-168l-835 -520v229z" />
<glyph unicode="?" horiz-adv-x="997" d="M348 449v325q166 8 255 70.5t89 185.5v29q0 94 -57 146t-154 52q-102 0 -163.5 -59t-84.5 -151l-194 77q18 63 54 123t91.5 106t131 73.5t173.5 27.5q100 0 182.5 -28.5t139.5 -81t88 -127t31 -164.5q0 -92 -32 -165t-84 -124t-117.5 -83t-135.5 -44v-188h-213zM457 -25 q-78 0 -114 38t-36 98v34q0 59 36 97.5t114 38.5t113.5 -38t35.5 -98v-34q0 -59 -35.5 -97.5t-113.5 -38.5z" />
<glyph unicode="@" horiz-adv-x="1835" d="M1384 -248h-456q-184 0 -331.5 60.5t-251 171t-160 265t-56.5 343.5q0 188 57.5 346t163 271.5t256 177t334.5 63.5q158 0 298 -48t244.5 -145.5t166 -243t61.5 -341.5q0 -113 -22.5 -208t-68.5 -165t-115.5 -108.5t-162.5 -38.5q-104 0 -161.5 50t-65.5 132h-10 q-31 -84 -91.5 -133t-154.5 -49q-70 0 -131 27.5t-107.5 81.5t-73 137t-26.5 194t26.5 193.5t73 137t107.5 82t131 27.5q94 0 147.5 -46t75.5 -112h11v140h178v-594q0 -68 25.5 -94.5t76.5 -26.5q86 0 132 89t46 255v80q0 133 -46 240.5t-128 182.5t-194.5 116t-243.5 41 q-145 0 -265 -50.5t-205 -137.5t-132 -207t-47 -261v-102q0 -143 46 -261t130 -203t201.5 -132t263.5 -47h454v-150zM911 309q86 0 133.5 47t47.5 121v246q0 66 -47.5 110t-133.5 44q-94 0 -143 -56.5t-49 -148.5v-158q0 -92 49 -148.5t143 -56.5z" />
<glyph unicode="A" horiz-adv-x="1355" d="M1069 0l-129 387h-534l-125 -387h-236l487 1430h291l488 -1430h-242zM678 1217h-10l-207 -631h422z" />
<glyph unicode="B" horiz-adv-x="1349" d="M176 1430h633q178 0 279.5 -100.5t101.5 -268.5q0 -80 -22.5 -136.5t-57.5 -92t-80 -53t-88 -21.5v-13q43 -2 95.5 -20t97.5 -58t75.5 -102.5t30.5 -152.5q0 -86 -27.5 -162t-77 -131.5t-117 -87t-147.5 -31.5h-696v1430zM408 199h397q90 0 141 47t51 135v70 q0 88 -51 135t-141 47h-397v-434zM408 825h358q86 0 133 44t47 126v66q0 82 -47 126t-133 44h-358v-406z" />
<glyph unicode="C" horiz-adv-x="1298" d="M713 -25q-281 0 -440.5 189.5t-159.5 550.5q0 180 41 317t118.5 231.5t189 142.5t251.5 48q186 0 312 -82t198 -242l-195 -106q-37 102 -113.5 162.5t-201.5 60.5q-166 0 -260.5 -112.5t-94.5 -311.5v-217q0 -199 94.5 -311.5t260.5 -112.5q129 0 210 66.5t119 171.5 l187 -113q-72 -156 -201 -244t-315 -88z" />
<glyph unicode="D" horiz-adv-x="1398" d="M176 1430h506q137 0 248.5 -45.5t190.5 -134.5t122 -223t43 -312t-43 -312.5t-122 -223.5t-190.5 -134t-248.5 -45h-506v1430zM682 205q160 0 258 100.5t98 294.5v229q0 195 -98 295.5t-258 100.5h-274v-1020h274z" />
<glyph unicode="E" horiz-adv-x="1214" d="M176 0v1430h916v-205h-684v-398h620v-204h-620v-418h684v-205h-916z" />
<glyph unicode="F" horiz-adv-x="1167" d="M176 0v1430h893v-205h-661v-398h587v-204h-587v-623h-232z" />
<glyph unicode="G" horiz-adv-x="1443" d="M1096 217h-9q-23 -104 -122 -173t-263 -69q-127 0 -235.5 48.5t-187 141.5t-122.5 231.5t-44 318.5q0 178 45 316t127 232.5t196.5 142.5t255.5 48q193 0 326 -85t207 -236l-189 -111q-41 100 -127 162.5t-217 62.5q-170 0 -273.5 -108.5t-103.5 -307.5v-233 q0 -199 103.5 -307.5t273.5 -108.5q68 0 129.5 17.5t107.5 51.5t73.5 84t27.5 118v110h-295v199h518v-762h-202v217z" />
<glyph unicode="H" horiz-adv-x="1462" d="M1055 623h-647v-623h-232v1430h232v-603h647v603h231v-1430h-231v623z" />
<glyph unicode="I" horiz-adv-x="851" d="M115 0v188h194v1053h-194v189h622v-189h-196v-1053h196v-188h-622z" />
<glyph unicode="J" horiz-adv-x="1087" d="M920 1430v-1041q0 -94 -31 -170t-87.5 -130t-137 -84t-179.5 -30q-186 0 -293.5 99.5t-136.5 259.5l213 47q18 -92 70.5 -145.5t146.5 -53.5q92 0 147.5 57.5t55.5 174.5v823h-467v193h699z" />
<glyph unicode="K" horiz-adv-x="1351" d="M604 668l-196 -226v-442h-232v1430h232v-725h8l205 260l385 465h270l-510 -603l551 -827h-279z" />
<glyph unicode="L" horiz-adv-x="1050" d="M176 0v1430h232v-1225h581v-205h-813z" />
<glyph unicode="M" horiz-adv-x="1667" d="M1270 1094h-10l-113 -232l-313 -571l-314 571l-112 232h-11v-1094h-221v1430h275l383 -728h12l383 728h262v-1430h-221v1094z" />
<glyph unicode="N" horiz-adv-x="1462" d="M561 791l-158 303h-6v-1094h-221v1430h258l467 -791l158 -303h6v1094h221v-1430h-258z" />
<glyph unicode="O" horiz-adv-x="1458" d="M729 -25q-139 0 -253 48.5t-194.5 141.5t-124.5 231.5t-44 318.5t44 318t124.5 231.5t194.5 141.5t253 48t253 -48t194.5 -141.5t125 -231.5t44.5 -318t-44.5 -318.5t-125 -231.5t-194.5 -141.5t-253 -48.5zM729 182q82 0 150.5 29t116.5 83t75 132t27 176v225 q0 98 -27 176t-75 132.5t-116.5 83t-150.5 28.5q-84 0 -151.5 -28.5t-115.5 -83t-75 -132t-27 -176.5v-225q0 -98 27 -176t75 -132t115.5 -83t151.5 -29z" />
<glyph unicode="P" horiz-adv-x="1284" d="M176 0v1430h615q199 0 307 -117t108 -314t-108.5 -313.5t-306.5 -116.5h-383v-569h-232zM408 772h368q88 0 137.5 46t49.5 132v99q0 86 -49.5 132t-137.5 46h-368v-455z" />
<glyph unicode="Q" horiz-adv-x="1458" d="M1071 -354h-203q-121 0 -177 61.5t-56 165.5v109q-121 14 -217 69t-164 147.5t-104.5 222.5t-36.5 294q0 180 44 318t124.5 231.5t194.5 141.5t253 48t253 -48t194.5 -141.5t125 -231.5t44.5 -318q0 -319 -133.5 -504.5t-360.5 -224.5v-148h219v-192zM729 182 q82 0 150.5 29t116.5 83t75 132t27 176v225q0 98 -27 176t-75 132.5t-116.5 83t-150.5 28.5q-84 0 -151.5 -28.5t-115.5 -83t-75 -132t-27 -176.5v-225q0 -98 27 -176t75 -132t115.5 -83t151.5 -29z" />
<glyph unicode="R" horiz-adv-x="1341" d="M408 0h-232v1430h617q193 0 303 -116t110 -315q0 -154 -70.5 -255t-207.5 -142l309 -602h-258l-287 578h-284v-578zM776 772q88 0 137.5 46t49.5 132v99q0 86 -49.5 132t-137.5 46h-368v-455h368z" />
<glyph unicode="S" horiz-adv-x="1224" d="M604 -25q-180 0 -306 65.5t-216 176.5l160 150q76 -92 167 -139.5t207 -47.5q137 0 207 61.5t70 166.5q0 84 -49 133t-174 73l-127 23q-209 39 -313.5 137t-104.5 270q0 94 36 171t100.5 129.5t156.5 81t207 28.5q162 0 280.5 -56.5t202.5 -162.5l-162 -143 q-55 72 -135 114.5t-199 42.5q-123 0 -190.5 -49t-67.5 -143q0 -90 55.5 -134t172.5 -67l127 -27q215 -41 314 -139t99 -270q0 -100 -34.5 -182t-101 -140.5t-163 -90.5t-219.5 -32z" />
<glyph unicode="T" horiz-adv-x="1181" d="M707 1225v-1225h-232v1225h-426v205h1084v-205h-426z" />
<glyph unicode="U" horiz-adv-x="1404" d="M395 1430v-881q0 -182 70 -274.5t237 -92.5q168 0 238 92.5t70 274.5v881h227v-844q0 -158 -28.5 -272.5t-92 -189.5t-165 -112t-249.5 -37q-147 0 -248.5 37t-165 112t-92 189.5t-28.5 272.5v844h227z" />
<glyph unicode="V" horiz-adv-x="1286" d="M506 0l-469 1430h239l228 -707l137 -498h8l139 498l228 707h233l-475 -1430h-268z" />
<glyph unicode="W" horiz-adv-x="1896" d="M387 0l-338 1430h236l145 -689l100 -475h7l114 475l170 689h258l168 -689l113 -473h6l104 473l150 689h227l-352 -1430h-260l-182 739l-107 435h-4l-108 -435l-187 -739h-260z" />
<glyph unicode="X" horiz-adv-x="1308" d="M1266 0h-273l-346 569h-6l-342 -569h-256l463 731l-447 699h273l325 -533h5l329 533h256l-450 -697z" />
<glyph unicode="Y" horiz-adv-x="1263" d="M514 0v563l-491 867h264l348 -637h6l346 637h254l-496 -863v-567h-231z" />
<glyph unicode="Z" horiz-adv-x="1210" d="M1135 0h-1059v207l776 1018h-735v205h995v-207l-776 -1018h799v-205z" />
<glyph unicode="[" horiz-adv-x="665" d="M176 -283v1839h375v-165h-174v-1508h174v-166h-375z" />
<glyph unicode="\" horiz-adv-x="854" d="M647 -309l-567 1825h192l568 -1825h-193z" />
<glyph unicode="]" horiz-adv-x="665" d="M489 1556v-1839h-374v166h174v1508h-174v165h374z" />
<glyph unicode="^" d="M956 590l-342 612h-10l-340 -612l-168 88l416 752h205l416 -752z" />
<glyph unicode="_" horiz-adv-x="1148" d="M61 -360v192h1026v-192h-1026z" />
<glyph unicode="`" d="M350 1534l195 94l186 -368l-139 -68z" />
<glyph unicode="a" horiz-adv-x="1124" d="M940 0q-88 0 -135 50t-57 128h-11q-31 -100 -112.5 -151.5t-198.5 -51.5q-166 0 -255 86t-89 232q0 160 115.5 239.5t339.5 79.5h192v90q0 98 -53 151.5t-166 53.5q-94 0 -153.5 -41t-100.5 -104l-133 121q53 90 149.5 148.5t251.5 58.5q207 0 317.5 -96.5t110.5 -276.5 v-535h113v-182h-125zM489 145q104 0 172 46.5t68 123.5v154h-188q-231 0 -232 -143v-37q0 -72 48 -108t132 -36z" />
<glyph unicode="b" horiz-adv-x="1212" d="M160 1516h223v-627h10q35 96 114 148.5t185 52.5q203 0 313.5 -146.5t110.5 -411.5q0 -264 -110.5 -410.5t-313.5 -146.5q-106 0 -185 53.5t-114 147.5h-10v-176h-223v1516zM625 168q117 0 186.5 74.5t69.5 197.5v185q0 123 -70 197.5t-186 74.5q-102 0 -172 -50 t-70 -132v-365q0 -82 70 -132t172 -50z" />
<glyph unicode="c" horiz-adv-x="1044" d="M571 -25q-115 0 -205 39t-151 112t-94 176.5t-33 229.5q0 127 33 230.5t94 176.5t151.5 112t204.5 39q160 0 262.5 -72t149.5 -191l-184 -86q-23 74 -79 118t-149 44q-123 0 -185 -76.5t-62 -199.5v-191q0 -123 62.5 -199.5t184.5 -76.5q98 0 156.5 48t93.5 128l170 -90 q-53 -131 -159.5 -201t-260.5 -70z" />
<glyph unicode="d" horiz-adv-x="1212" d="M829 176h-10q-35 -94 -113.5 -147.5t-185.5 -53.5q-203 0 -313.5 146.5t-110.5 410.5t110.5 411t313.5 147q106 0 185 -52.5t114 -148.5h10v627h224v-1516h-224v176zM588 168q102 0 171.5 50t69.5 132v365q0 82 -69.5 132t-171.5 50q-117 0 -186.5 -74.5t-69.5 -197.5 v-185q0 -123 69.5 -197.5t186.5 -74.5z" />
<glyph unicode="e" horiz-adv-x="1138" d="M578 -25q-115 0 -205 39t-153.5 112t-97.5 176.5t-34 229.5q0 127 34 230.5t97.5 176.5t153.5 112t205 39q117 0 205.5 -41t148 -114t89.5 -169t30 -207v-84h-732v-35q0 -123 73 -201.5t208 -78.5q98 0 166 43t115 116l131 -129q-59 -98 -171.5 -156.5t-262.5 -58.5z M578 915q-57 0 -105.5 -20.5t-82.5 -57t-52.5 -88t-18.5 -112.5v-14h496v20q0 123 -63 197.5t-174 74.5z" />
<glyph unicode="f" horiz-adv-x="696" d="M215 883h-162v182h162v176q0 129 67.5 202t202.5 73h177v-183h-224v-268h224v-182h-224v-883h-223v883z" />
<glyph unicode="g" horiz-adv-x="1099" d="M1094 -100q0 -166 -127 -250t-414 -84q-131 0 -222 17.5t-149.5 50t-85 79.5t-26.5 109q0 88 48 137t134 68v22q-121 39 -121 164q0 82 55.5 126t132.5 62v9q-94 45 -144 125.5t-50 189.5q0 164 109.5 264.5t314.5 100.5q113 0 192 -33v28q0 72 34 112t106 40h163v-180 h-217v-43q72 -47 111 -122t39 -167q0 -162 -110.5 -261t-315.5 -99q-78 0 -139 16q-41 -14 -72 -40t-31 -67q0 -43 39 -61t111 -18h262q197 0 285 -79t88 -216zM885 -125q0 55 -42 88t-153 33h-360q-74 -43 -74 -123q0 -66 52 -105.5t177 -39.5h140q260 0 260 147zM551 526 q98 0 152.5 44t54.5 137v41q0 92 -54.5 136t-152.5 44t-152.5 -44t-54.5 -136v-41q0 -92 54.5 -136.5t152.5 -44.5z" />
<glyph unicode="h" horiz-adv-x="1187" d="M160 1516h223v-627h10q35 86 105.5 143.5t193.5 57.5q164 0 255 -108t91 -306v-676h-223v649q0 248 -201 248q-43 0 -85 -11.5t-74.5 -34t-52 -57t-19.5 -79.5v-715h-223v1516z" />
<glyph unicode="i" horiz-adv-x="542" d="M272 1255q-70 0 -101.5 33t-31.5 84v35q0 51 32 84t101 33q70 0 100.5 -33t30.5 -84v-35q0 -51 -30.5 -84t-100.5 -33zM160 1065h223v-1065h-223v1065z" />
<glyph unicode="j" horiz-adv-x="542" d="M160 1065h223v-1208q0 -123 -62.5 -195t-197.5 -72h-129v183h166v1292zM272 1255q-70 0 -101.5 33t-31.5 84v35q0 51 32 84t101 33q70 0 100.5 -33t30.5 -84v-35q0 -51 -30.5 -84t-100.5 -33z" />
<glyph unicode="k" horiz-adv-x="1120" d="M160 1516h223v-930h10l148 190l256 289h260l-373 -412l418 -653h-266l-306 508l-147 -160v-348h-223v1516z" />
<glyph unicode="l" horiz-adv-x="583" d="M387 0q-115 0 -171 58.5t-56 162.5v1295h223v-1334h147v-182h-143z" />
<glyph unicode="m" horiz-adv-x="1806" d="M160 0v1065h223v-176h10q16 41 40 78t57.5 64.5t79.5 43t108 15.5q109 0 192.5 -53.5t122.5 -164.5h6q29 90 111 154t211 64q160 0 248 -108t88 -306v-676h-223v649q0 123 -47.5 185.5t-149.5 62.5q-43 0 -82 -11.5t-68.5 -34t-48 -57t-18.5 -79.5v-715h-223v649 q0 248 -195 248q-41 0 -81 -11.5t-70.5 -34t-49 -57t-18.5 -79.5v-715h-223z" />
<glyph unicode="n" horiz-adv-x="1187" d="M160 0v1065h223v-176h10q35 86 105.5 143.5t193.5 57.5q164 0 255 -108t91 -306v-676h-223v647q0 250 -201 250q-43 0 -85 -11.5t-74.5 -34t-52 -57t-19.5 -81.5v-713h-223z" />
<glyph unicode="o" horiz-adv-x="1155" d="M578 -25q-111 0 -202 39t-154.5 112t-98.5 176.5t-35 229.5q0 127 35 230.5t98.5 176.5t154.5 112t202 39t201.5 -39t154 -112t98.5 -176.5t35 -230.5t-35 -230t-98.5 -176t-154 -112t-201.5 -39zM578 160q115 0 184 70.5t69 211.5v181q0 141 -69.5 211.5t-183.5 70.5 q-115 0 -184.5 -70.5t-69.5 -211.5v-181q0 -141 69.5 -211.5t184.5 -70.5z" />
<glyph unicode="p" horiz-adv-x="1212" d="M160 1065h223v-176h10q35 96 114 148.5t185 52.5q203 0 313.5 -146.5t110.5 -411.5q0 -264 -110.5 -410.5t-313.5 -146.5q-106 0 -185 53.5t-114 147.5h-10v-586h-223v1475zM625 168q117 0 186.5 74.5t69.5 197.5v185q0 123 -70 197.5t-186 74.5q-102 0 -172 -50 t-70 -132v-365q0 -82 70 -132t172 -50z" />
<glyph unicode="q" horiz-adv-x="1212" d="M829 176h-10q-35 -94 -113.5 -147.5t-185.5 -53.5q-203 0 -313.5 146.5t-110.5 410.5t110.5 411t313.5 147q106 0 185 -52.5t114 -148.5h10v176h224v-1475h-224v586zM588 168q102 0 171.5 50t69.5 132v365q0 82 -69.5 132t-171.5 50q-117 0 -186.5 -74.5t-69.5 -197.5 v-185q0 -123 69.5 -197.5t186.5 -74.5z" />
<glyph unicode="r" horiz-adv-x="784" d="M160 0v1065h223v-205h10q23 82 94.5 143.5t198.5 61.5h59v-215h-88q-133 0 -203.5 -43t-70.5 -127v-680h-223z" />
<glyph unicode="s" horiz-adv-x="1011" d="M498 -25q-152 0 -254.5 53.5t-177.5 147.5l143 131q59 -72 132 -111.5t169 -39.5q98 0 146.5 37.5t48.5 105.5q0 51 -34 87t-118 46l-98 12q-164 20 -257.5 95t-93.5 223q0 78 29 138.5t81 102t125 64.5t161 23q143 0 234 -45.5t163 -124.5l-137 -132q-41 49 -107.5 85 t-152.5 36q-92 0 -136.5 -36.5t-44.5 -96.5q0 -61 39 -92t125 -45l99 -12q176 -27 257 -104t81 -206q0 -78 -30 -140t-85 -107t-133 -70t-174 -25z" />
<glyph unicode="t" horiz-adv-x="747" d="M455 0q-117 0 -176.5 60.5t-59.5 170.5v652h-166v182h90q55 0 77 24.5t22 79.5v187h200v-291h224v-182h-224v-701h207v-182h-194z" />
<glyph unicode="u" horiz-adv-x="1187" d="M805 176h-8q-14 -39 -38 -76t-59.5 -64.5t-86 -44t-115.5 -16.5q-166 0 -257 106.5t-91 305.5v678h223v-649q0 -248 205 -248q43 0 83.5 11t72.5 34t51.5 57.5t19.5 81.5v713h223v-1065h-223v176z" />
<glyph unicode="v" horiz-adv-x="1048" d="M391 0l-362 1065h221l162 -485l108 -373h12l109 373l166 485h213l-367 -1065h-262z" />
<glyph unicode="w" horiz-adv-x="1636" d="M53 1065h217l109 -447l96 -403h6l111 403l129 447h201l131 -447l112 -403h6l95 403l110 447h207l-287 -1065h-252l-139 485l-86 299h-4l-84 -299l-141 -485h-246z" />
<glyph unicode="x" horiz-adv-x="1085" d="M41 0l375 539l-365 526h258l240 -371h6l246 371h237l-364 -524l370 -541h-258l-245 387h-6l-256 -387h-238z" />
<glyph unicode="y" horiz-adv-x="1052" d="M813 1065h215l-448 -1276q-18 -53 -42 -91t-55.5 -61.5t-77 -35t-106.5 -11.5h-129v183h180l62 180l-387 1112h223l213 -627l61 -231h10l68 231z" />
<glyph unicode="z" horiz-adv-x="997" d="M74 0v180l571 703h-553v182h817v-172l-579 -711h594v-182h-850z" />
<glyph unicode="{" horiz-adv-x="724" d="M418 -283q-82 0 -130 50.5t-48 134.5v458q0 90 -56.5 136.5t-142.5 46.5v190q86 0 142.5 46t56.5 134v459q0 84 48 134t130 50h192v-165h-170v-482q0 -49 -15 -92t-43 -79t-64.5 -59.5t-79.5 -31.5v-20q43 -8 79.5 -32t64.5 -59.5t43 -78.5t15 -92v-482h170v-166h-192z " />
<glyph unicode="|" horiz-adv-x="722" d="M266 -283v1839h191v-1839h-191z" />
<glyph unicode="}" horiz-adv-x="729" d="M307 1556q82 0 132 -50t50 -134v-459q0 -88 56.5 -134t142.5 -46v-190q-86 0 -142.5 -46t-56.5 -137v-458q0 -84 -50 -134.5t-132 -50.5h-192v166h174v482q0 49 15 92t42 78.5t63.5 59t82.5 32.5v20q-45 8 -82 31.5t-64 59.5t-42 79t-15 92v482h-174v165h192z" />
<glyph unicode="~" d="M856 463q-76 0 -134 19.5t-128 54.5q-57 29 -111.5 49t-117.5 20q-47 0 -83 -14t-83 -47l-80 125q39 53 98 85.5t156 32.5q76 0 134 -19t128 -54q57 -29 111.5 -49.5t117.5 -20.5q47 0 83 14.5t83 47.5l80 -125q-39 -53 -98.5 -86t-155.5 -33z" />
<glyph unicode="&#xa1;" horiz-adv-x="610" d="M186 -365v408l68 612h102l72 -612v-408h-242zM305 784q-78 0 -113.5 38t-35.5 98v34q0 59 35.5 97.5t113.5 38.5t114 -38t36 -98v-34q0 -59 -36 -97.5t-114 -38.5z" />
<glyph unicode="&#xa2;" horiz-adv-x="1083" d="M481 -233v217q-186 31 -288.5 174t-102.5 370q0 229 102.5 372.5t288.5 172.5v217h178v-213q127 -16 209 -81.5t125 -164.5l-168 -92q-25 59 -68.5 100.5t-107.5 55.5v-733q68 12 118 55t81 109l160 -99q-45 -100 -132.5 -166.5t-216.5 -80.5v-213h-178zM313 440 q0 -102 44 -176t135 -98v725q-88 -25 -133.5 -97.5t-45.5 -177.5v-176z" />
<glyph unicode="&#xa3;" horiz-adv-x="1206" d="M154 0v236q84 37 120.5 109.5t36.5 158.5q0 23 -2 44t-6 42h-203v186h140q-18 59 -35 119.5t-17 132.5q0 94 34 173t97.5 135.5t153.5 87t205 30.5q160 0 271.5 -61.5t185.5 -178.5l-170 -120q-53 78 -122 118.5t-165 40.5q-121 0 -187.5 -64.5t-66.5 -191.5 q0 -63 14.5 -115.5t30.5 -105.5h426v-186h-365q6 -35 7 -72q0 -113 -48.5 -191.5t-107.5 -113.5v-12h719v-201h-946z" />
<glyph unicode="&#xa4;" horiz-adv-x="1269" d="M635 233q-84 0 -154.5 20.5t-124.5 57.5l-198 -198l-127 125l202 202q-66 115 -65 275q0 160 65 274l-202 203l127 125l198 -199q53 37 124 57.5t155 20.5t154.5 -20.5t123.5 -57.5l199 199l127 -125l-203 -203q66 -115 66 -274q0 -160 -66 -275l203 -202l-127 -125 l-199 198q-53 -37 -123.5 -57.5t-154.5 -20.5zM635 406q111 0 174 62t63 185v123q0 123 -63.5 185.5t-173.5 62.5q-111 0 -174.5 -62.5t-63.5 -185.5v-123q0 -123 63.5 -185t174.5 -62z" />
<glyph unicode="&#xa5;" horiz-adv-x="1273" d="M754 287v-287h-232v287h-352v157h352v172h-352v158h256l-369 656h262l326 -611h8l316 611h250l-367 -656h254v-158h-352v-172h352v-157h-352z" />
<glyph unicode="&#xa6;" horiz-adv-x="722" d="M266 827v729h191v-729h-191zM266 -283v729h191v-729h-191z" />
<glyph unicode="&#xa7;" horiz-adv-x="1181" d="M983 16q0 -80 -30.5 -142t-87 -106t-134.5 -68t-172 -24q-98 0 -194.5 30t-174.5 99l117 144q51 -47 114.5 -73t141.5 -26q100 0 158.5 42t58.5 116q0 70 -50 109t-146 67l-142 41q-170 47 -240.5 130t-70.5 180q0 94 55.5 167.5t165.5 120.5v23q-70 47 -111.5 114.5 t-41.5 159.5q0 78 30.5 140.5t86 105.5t132 65.5t170.5 22.5q100 0 196.5 -28.5t176.5 -100.5l-119 -141q-51 45 -113.5 71.5t-144.5 26.5q-98 0 -157.5 -40t-59.5 -116q0 -68 50.5 -106.5t148.5 -67.5l141 -39q170 -49 242 -131t72 -180q0 -94 -56.5 -169t-167.5 -120v-20 q72 -47 114 -116t42 -161zM850 539q0 72 -47 122t-160 80l-139 39q-16 4 -32.5 9.5t-33.5 11.5q-51 -41 -79.5 -91.5t-28.5 -111.5q0 -72 47 -121t160 -82l139 -37q31 -8 65 -22q51 41 80 91.5t29 111.5z" />
<glyph unicode="&#xa8;" d="M410 1249q-70 0 -98.5 31t-28.5 78v37q0 47 28.5 77.5t98.5 30.5t98.5 -30.5t28.5 -77.5v-37q0 -47 -28.5 -78t-98.5 -31zM819 1249q-70 0 -98.5 31t-28.5 78v37q0 47 29 77.5t98 30.5q70 0 98.5 -30.5t28.5 -77.5v-37q0 -47 -28.5 -78t-98.5 -31z" />
<glyph unicode="&#xa9;" horiz-adv-x="1601" d="M801 -23q-147 0 -275.5 51.5t-221.5 146.5t-146.5 232.5t-53.5 307.5t53.5 307t146.5 232.5t221 146.5t276 51q147 0 275 -51t221.5 -146.5t146.5 -232.5t53 -307t-53 -307.5t-146.5 -232.5t-221.5 -146.5t-275 -51.5zM801 102q121 0 222 42t174 115t114 173t41 217v131 q0 117 -41 217.5t-114 173t-174 114.5t-222 42t-222.5 -42t-174 -114.5t-113.5 -173t-41 -217.5v-131q0 -117 41 -217t113.5 -173t174 -115t222.5 -42zM817 299q-178 0 -276.5 112.5t-98.5 303.5q0 190 98.5 302.5t276.5 112.5q123 0 199 -55t114 -145l-153 -80 q-23 53 -59.5 85t-100.5 32q-80 0 -123 -50.5t-43 -130.5v-145q0 -80 43 -130t123 -50q66 0 107 33.5t69 87.5l152 -80q-39 -86 -118 -144.5t-210 -58.5z" />
<glyph unicode="&#xaa;" horiz-adv-x="860" d="M776 700h-92q-55 0 -94 28t-43 91h-8q-23 -57 -78 -94t-146 -37q-106 0 -166.5 56.5t-60.5 154.5q0 113 80 166t233 53h134v47q0 150 -144 150q-68 0 -113 -29t-69 -72l-98 84q33 57 105.5 100.5t189.5 43.5q135 0 213.5 -68.5t78.5 -199.5v-340h78v-134zM401 1016 q-152 0 -151 -92v-25q0 -47 30.5 -68.5t86.5 -21.5q68 0 118 30.5t50 90.5v86h-134z" />
<glyph unicode="&#xab;" horiz-adv-x="1089" d="M463 137l-387 334v201l387 334l65 -144l-264 -291l264 -290zM920 137l-387 334v201l387 334l65 -144l-264 -291l264 -290z" />
<glyph unicode="&#xac;" horiz-adv-x="1261" d="M938 160v375h-813v182h999v-557h-186z" />
<glyph unicode="&#xad;" horiz-adv-x="821" d="M127 510v227h567v-227h-567z" />
<glyph unicode="&#xae;" horiz-adv-x="966" d="M483 610q-86 0 -160.5 32t-130 89t-87 134t-31.5 167t31.5 167t87 134.5t130 89t160.5 31.5t161 -31.5t130 -89t87 -134.5t32 -167t-32 -167t-87 -134t-130 -89t-161 -32zM483 698q68 0 125.5 23.5t99.5 65.5t65.5 97.5t23.5 121.5v53q0 63 -23.5 119.5t-65.5 98.5 t-99.5 65.5t-125.5 23.5t-125 -23.5t-99 -65.5t-65.5 -98.5t-23.5 -119.5v-53q0 -66 23.5 -121.5t65.5 -97.5t99 -65.5t125 -23.5zM422 815h-105v428h195q72 0 108.5 -38t36.5 -97q0 -51 -21.5 -83t-55.5 -46l96 -164h-115l-80 148h-59v-148zM500 1040q51 0 51 45v31 q0 45 -51 45h-78v-121h78z" />
<glyph unicode="&#xaf;" d="M315 1462h598v-170h-598v170z" />
<glyph unicode="&#xb0;" horiz-adv-x="962" d="M481 721q-78 0 -143.5 27.5t-113.5 76.5t-75.5 117t-27.5 145q0 78 27.5 145.5t75.5 117t113.5 77t143.5 27.5q76 0 142.5 -27.5t114.5 -77t76 -117t28 -145.5t-28 -145.5t-76 -116.5t-114.5 -76.5t-142.5 -27.5zM481 881q88 0 138.5 59t50.5 147t-50.5 147.5 t-138.5 59.5t-138 -59t-50 -148q0 -88 50 -147t138 -59z" />
<glyph unicode="&#xb1;" d="M514 342v377h-377v182h377v379h201v-379h377v-182h-377v-377h-201zM137 0v182h955v-182h-955z" />
<glyph unicode="&#xb2;" horiz-adv-x="708" d="M645 674h-571v143l248 197q68 53 99.5 94t31.5 92v8q0 49 -32 74t-83 25q-61 0 -92 -31t-47 -78l-142 53q29 78 98.5 134.5t196.5 56.5q131 0 203 -63.5t72 -164.5q0 -47 -16.5 -88t-45 -75.5t-67.5 -66.5t-82 -62l-166 -117h395v-131z" />
<glyph unicode="&#xb3;" horiz-adv-x="706" d="M313 1128q68 0 100.5 25t32.5 59v9q0 41 -31.5 67.5t-84.5 26.5t-95 -24.5t-73 -67.5l-105 92q43 57 108.5 92t170.5 35q129 0 205.5 -54.5t76.5 -146.5q0 -72 -46 -116t-111 -54v-6q72 -12 121 -57t49 -123q0 -102 -83 -162.5t-222 -60.5q-121 0 -188.5 43t-106.5 100 l121 90q29 -47 68.5 -77t105.5 -30t100.5 29t34.5 78v10q0 47 -39 69.5t-107 22.5h-79v131h77z" />
<glyph unicode="&#xb4;" d="M637 1192l-139 68l186 368l195 -94z" />
<glyph unicode="&#xb5;" horiz-adv-x="1198" d="M160 -410v1475h223v-649q0 -248 205 -248q43 0 84 11t72.5 34t51 57.5t19.5 81.5v713h223v-1065h-223v176h-8q-14 -39 -36.5 -76t-55.5 -64.5t-77 -44t-99 -16.5q-133 0 -181 99h-8l33 -219v-265h-223z" />
<glyph unicode="&#xb6;" horiz-adv-x="1357" d="M500 578q-86 0 -161 33.5t-131 92t-88 135t-32 165.5q0 88 32 164.5t88 135t131 92.5t161 34h714v-173h-135v-1562h-182v1562h-215v-1562h-182v883z" />
<glyph unicode="&#xb7;" horiz-adv-x="729" d="M365 459q-86 0 -125 40t-39 99v49q0 59 39 99t125 40t124.5 -39.5t38.5 -99.5v-49q0 -59 -38.5 -99t-124.5 -40z" />
<glyph unicode="&#xb8;" d="M641 -428q-94 0 -148.5 28.5t-76.5 57.5l86 98q18 -25 50 -42t79 -17q39 0 64.5 14.5t25.5 44.5q0 25 -28.5 48.5t-117.5 33.5l-51 6l41 205h117l-35 -168l8 -8q23 6 44.5 10t43.5 4q59 0 101.5 -33.5t42.5 -105.5q0 -47 -20.5 -80t-54.5 -54.5t-78 -31.5t-93 -10z" />
<glyph unicode="&#xb9;" horiz-adv-x="722" d="M109 674v127h208v499h-12l-158 -178l-102 86l195 222h239v-629h187v-127h-557z" />
<glyph unicode="&#xba;" horiz-adv-x="847" d="M424 688q-160 0 -249 100.5t-89 276.5t89 276.5t249 100.5t249 -100.5t89 -276.5t-89 -276.5t-249 -100.5zM424 817q80 0 123 47t43 135v131q0 88 -43 135.5t-123 47.5t-123 -47t-43 -136v-131q0 -88 43 -135t123 -47z" />
<glyph unicode="&#xbb;" horiz-adv-x="1089" d="M104 281l265 290l-265 291l66 144l387 -334v-201l-387 -334zM561 281l265 290l-265 291l66 144l387 -334v-201l-387 -334z" />
<glyph unicode="&#xbc;" horiz-adv-x="1734" d="M109 674v127h208v499h-12l-158 -178l-102 86l195 222h239v-629h187v-127h-557zM301 0l1035 1430h180l-1032 -1430h-183zM1432 0v145h-367v136l321 475h201v-488h107v-123h-107v-145h-155zM1432 592h-11l-223 -324h234v324z" />
<glyph unicode="&#xbd;" horiz-adv-x="1740" d="M109 674v127h208v499h-12l-158 -178l-102 86l195 222h239v-629h187v-127h-557zM270 0l1035 1430h180l-1032 -1430h-183zM1677 0h-571v143l248 197q68 53 99.5 95t31.5 91v9q0 49 -32 73.5t-83 24.5q-61 0 -92 -31t-47 -78l-142 54q29 78 98.5 134t196.5 56 q131 0 203 -63.5t72 -163.5q0 -47 -16.5 -88t-45 -76t-67.5 -66.5t-82 -62.5l-166 -117h395v-131z" />
<glyph unicode="&#xbe;" horiz-adv-x="1697" d="M313 1128q68 0 100.5 25t32.5 59v9q0 41 -31.5 67.5t-84.5 26.5t-95 -24.5t-73 -67.5l-105 92q43 57 108.5 92t170.5 35q129 0 205.5 -54.5t76.5 -146.5q0 -72 -46 -116t-111 -54v-6q72 -12 121 -57t49 -123q0 -102 -83 -162.5t-222 -60.5q-121 0 -188.5 43t-106.5 100 l121 90q29 -47 68.5 -77t105.5 -30t100.5 29t34.5 78v10q0 47 -39 69.5t-107 22.5h-79v131h77zM264 0l1035 1430h180l-1032 -1430h-183zM1395 0v145h-367v136l321 475h201v-488h107v-123h-107v-145h-155zM1395 592h-11l-223 -324h234v324z" />
<glyph unicode="&#xbf;" horiz-adv-x="980" d="M508 -389q-100 0 -182 28.5t-139.5 81t-88 127t-30.5 164.5q0 92 31.5 165t84 124t118 83t134.5 44v188h213v-325q-166 -8 -255 -70.5t-89 -185.5v-29q0 -94 57.5 -146.5t153.5 -52.5q102 0 163.5 59.5t84.5 151.5l194 -77q-18 -63 -54 -123t-91 -106t-131 -73.5 t-174 -27.5zM541 784q-78 0 -114 38t-36 98v34q0 59 36 97.5t114 38.5t113.5 -38t35.5 -98v-34q0 -59 -35.5 -97.5t-113.5 -38.5z" />
<glyph unicode="&#xc0;" horiz-adv-x="1355" d="M1069 0l-129 387h-534l-125 -387h-236l487 1430h291l488 -1430h-242zM678 1217h-10l-207 -631h422zM411 1874l195 94l186 -369l-139 -65z" />
<glyph unicode="&#xc1;" horiz-adv-x="1355" d="M1069 0l-129 387h-534l-125 -387h-236l487 1430h291l488 -1430h-242zM678 1217h-10l-207 -631h422zM698 1534l-139 65l186 369l195 -94z" />
<glyph unicode="&#xc2;" horiz-adv-x="1355" d="M1069 0l-129 387h-534l-125 -387h-236l487 1430h291l488 -1430h-242zM678 1217h-10l-207 -631h422zM788 1933l246 -307l-115 -86l-244 238l-243 -238l-115 86l246 307h225z" />
<glyph unicode="&#xc3;" horiz-adv-x="1355" d="M1069 0l-129 387h-534l-125 -387h-236l487 1430h291l488 -1430h-242zM678 1217h-10l-207 -631h422zM827 1583q-51 0 -88 16.5t-72 32.5q-47 23 -83 35t-68 12q-35 0 -61.5 -13t-57.5 -40l-84 107q31 47 83 82.5t128 35.5q51 0 88 -16t72 -33q47 -23 82.5 -35t68.5 -12 q35 0 61.5 13.5t57.5 39.5l84 -106q-31 -47 -83 -83t-128 -36z" />
<glyph unicode="&#xc4;" horiz-adv-x="1355" d="M1069 0l-129 387h-534l-125 -387h-236l487 1430h291l488 -1430h-242zM678 1217h-10l-207 -631h422zM471 1589q-70 0 -99.5 32t-29.5 79v37q0 47 29.5 78.5t99.5 31.5t99.5 -31.5t29.5 -78.5v-37q0 -47 -29.5 -79t-99.5 -32zM880 1589q-70 0 -99.5 32t-29.5 79v37 q0 47 30 78.5t99 31.5q70 0 99.5 -31.5t29.5 -78.5v-37q0 -47 -29.5 -79t-99.5 -32z" />
<glyph unicode="&#xc5;" horiz-adv-x="1355" d="M1069 0l-129 387h-534l-125 -387h-236l487 1430h291l488 -1430h-242zM678 1217h-10l-207 -631h422zM675 1503q-55 0 -104 19.5t-85 54.5t-56.5 83t-20.5 103t20.5 103.5t56.5 83.5t85 54t104 19t104.5 -19t85.5 -54t56.5 -83t20.5 -104q0 -55 -20.5 -103t-56.5 -83 t-85.5 -54.5t-104.5 -19.5zM675 1628q53 0 83 29t30 80v55q0 51 -29.5 80t-83.5 29q-53 0 -82.5 -29t-29.5 -80v-55q0 -51 29.5 -80t82.5 -29z" />
<glyph unicode="&#xc6;" horiz-adv-x="1910" d="M872 385h-446l-188 -385h-234l717 1430h1067v-205h-684v-398h620v-204h-620v-418h684v-205h-916v385zM838 1225l-318 -639h352v639h-34z" />
<glyph unicode="&#xc7;" horiz-adv-x="1298" d="M713 1247q-166 0 -260.5 -112.5t-94.5 -311.5v-217q0 -199 94.5 -311.5t260.5 -112.5q129 0 210 66.5t119 171.5l187 -113q-70 -150 -190.5 -236.5t-297.5 -95.5l-18 -94l6 -8q23 6 44.5 10t43.5 4q59 0 101.5 -33.5t42.5 -105.5q0 -47 -20.5 -80t-54.5 -54.5t-78 -31.5 t-93 -10q-92 0 -146.5 28.5t-79.5 57.5l86 98q18 -25 50 -42t80 -17q39 0 64.5 14.5t25.5 44.5q0 25 -28 48.5t-118 33.5l-51 6l27 138q-242 29 -377 215t-135 518q0 180 41 317t118.5 231.5t189 142.5t251.5 48q186 0 312 -82t198 -242l-195 -106q-37 102 -113.5 162.5 t-201.5 60.5z" />
<glyph unicode="&#xc8;" horiz-adv-x="1214" d="M176 0v1430h916v-205h-684v-398h620v-204h-620v-418h684v-205h-916zM368 1874l195 94l186 -369l-139 -65z" />
<glyph unicode="&#xc9;" horiz-adv-x="1214" d="M176 0v1430h916v-205h-684v-398h620v-204h-620v-418h684v-205h-916zM655 1534l-139 65l186 369l195 -94z" />
<glyph unicode="&#xca;" horiz-adv-x="1214" d="M176 0v1430h916v-205h-684v-398h620v-204h-620v-418h684v-205h-916zM745 1933l246 -307l-115 -86l-244 238l-243 -238l-115 86l246 307h225z" />
<glyph unicode="&#xcb;" horiz-adv-x="1214" d="M176 0v1430h916v-205h-684v-398h620v-204h-620v-418h684v-205h-916zM428 1589q-70 0 -99.5 32t-29.5 79v37q0 47 29.5 78.5t99.5 31.5t99.5 -31.5t29.5 -78.5v-37q0 -47 -29.5 -79t-99.5 -32zM837 1589q-70 0 -99.5 32t-29.5 79v37q0 47 30 78.5t99 31.5q70 0 99.5 -31.5 t29.5 -78.5v-37q0 -47 -29.5 -79t-99.5 -32z" />
<glyph unicode="&#xcc;" horiz-adv-x="851" d="M115 0v188h194v1053h-194v189h622v-189h-196v-1053h196v-188h-622zM162 1874l195 94l186 -369l-139 -65z" />
<glyph unicode="&#xcd;" horiz-adv-x="851" d="M115 0v188h194v1053h-194v189h622v-189h-196v-1053h196v-188h-622zM449 1534l-139 65l186 369l195 -94z" />
<glyph unicode="&#xce;" horiz-adv-x="851" d="M115 0v188h194v1053h-194v189h622v-189h-196v-1053h196v-188h-622zM539 1933l246 -307l-115 -86l-244 238l-243 -238l-115 86l246 307h225z" />
<glyph unicode="&#xcf;" horiz-adv-x="851" d="M115 0v188h194v1053h-194v189h622v-189h-196v-1053h196v-188h-622zM222 1589q-70 0 -99.5 32t-29.5 79v37q0 47 29.5 78.5t99.5 31.5t99.5 -31.5t29.5 -78.5v-37q0 -47 -29.5 -79t-99.5 -32zM631 1589q-70 0 -99.5 32t-29.5 79v37q0 47 30 78.5t99 31.5q70 0 99.5 -31.5 t29.5 -78.5v-37q0 -47 -29.5 -79t-99.5 -32z" />
<glyph unicode="&#xd0;" horiz-adv-x="1406" d="M184 655h-157v176h157v599h506q137 0 249 -45.5t190.5 -134.5t121.5 -223t43 -312t-43 -312.5t-121.5 -223.5t-190.5 -134t-249 -45h-506v655zM690 205q160 0 258.5 100.5t98.5 294.5v229q0 195 -98.5 295.5t-258.5 100.5h-274v-394h266v-176h-266v-450h274z" />
<glyph unicode="&#xd1;" horiz-adv-x="1462" d="M561 791l-158 303h-6v-1094h-221v1430h258l467 -791l158 -303h6v1094h221v-1430h-258zM883 1583q-51 0 -88 16.5t-72 32.5q-47 23 -83 35t-68 12q-35 0 -61.5 -13t-57.5 -40l-84 107q31 47 83 82.5t128 35.5q51 0 88 -16t72 -33q47 -23 82.5 -35t68.5 -12q35 0 61.5 13.5 t57.5 39.5l84 -106q-31 -47 -83 -83t-128 -36z" />
<glyph unicode="&#xd2;" horiz-adv-x="1458" d="M729 -25q-139 0 -253 48.5t-194.5 141.5t-124.5 231.5t-44 318.5t44 318t124.5 231.5t194.5 141.5t253 48t253 -48t194.5 -141.5t125 -231.5t44.5 -318t-44.5 -318.5t-125 -231.5t-194.5 -141.5t-253 -48.5zM729 182q82 0 150.5 29t116.5 83t75 132t27 176v225 q0 98 -27 176t-75 132.5t-116.5 83t-150.5 28.5q-84 0 -151.5 -28.5t-115.5 -83t-75 -132t-27 -176.5v-225q0 -98 27 -176t75 -132t115.5 -83t151.5 -29zM465 1874l195 94l186 -369l-139 -65z" />
<glyph unicode="&#xd3;" horiz-adv-x="1458" d="M729 -25q-139 0 -253 48.5t-194.5 141.5t-124.5 231.5t-44 318.5t44 318t124.5 231.5t194.5 141.5t253 48t253 -48t194.5 -141.5t125 -231.5t44.5 -318t-44.5 -318.5t-125 -231.5t-194.5 -141.5t-253 -48.5zM729 182q82 0 150.5 29t116.5 83t75 132t27 176v225 q0 98 -27 176t-75 132.5t-116.5 83t-150.5 28.5q-84 0 -151.5 -28.5t-115.5 -83t-75 -132t-27 -176.5v-225q0 -98 27 -176t75 -132t115.5 -83t151.5 -29zM752 1534l-139 65l186 369l195 -94z" />
<glyph unicode="&#xd4;" horiz-adv-x="1458" d="M729 -25q-139 0 -253 48.5t-194.5 141.5t-124.5 231.5t-44 318.5t44 318t124.5 231.5t194.5 141.5t253 48t253 -48t194.5 -141.5t125 -231.5t44.5 -318t-44.5 -318.5t-125 -231.5t-194.5 -141.5t-253 -48.5zM729 182q82 0 150.5 29t116.5 83t75 132t27 176v225 q0 98 -27 176t-75 132.5t-116.5 83t-150.5 28.5q-84 0 -151.5 -28.5t-115.5 -83t-75 -132t-27 -176.5v-225q0 -98 27 -176t75 -132t115.5 -83t151.5 -29zM842 1933l246 -307l-115 -86l-244 238l-243 -238l-115 86l246 307h225z" />
<glyph unicode="&#xd5;" horiz-adv-x="1458" d="M729 -25q-139 0 -253 48.5t-194.5 141.5t-124.5 231.5t-44 318.5t44 318t124.5 231.5t194.5 141.5t253 48t253 -48t194.5 -141.5t125 -231.5t44.5 -318t-44.5 -318.5t-125 -231.5t-194.5 -141.5t-253 -48.5zM729 182q82 0 150.5 29t116.5 83t75 132t27 176v225 q0 98 -27 176t-75 132.5t-116.5 83t-150.5 28.5q-84 0 -151.5 -28.5t-115.5 -83t-75 -132t-27 -176.5v-225q0 -98 27 -176t75 -132t115.5 -83t151.5 -29zM881 1583q-51 0 -88 16.5t-72 32.5q-47 23 -83 35t-68 12q-35 0 -61.5 -13t-57.5 -40l-84 107q31 47 83 82.5t128 35.5 q51 0 88 -16t72 -33q47 -23 82.5 -35t68.5 -12q35 0 61.5 13.5t57.5 39.5l84 -106q-31 -47 -83 -83t-128 -36z" />
<glyph unicode="&#xd6;" horiz-adv-x="1458" d="M729 -25q-139 0 -253 48.5t-194.5 141.5t-124.5 231.5t-44 318.5t44 318t124.5 231.5t194.5 141.5t253 48t253 -48t194.5 -141.5t125 -231.5t44.5 -318t-44.5 -318.5t-125 -231.5t-194.5 -141.5t-253 -48.5zM729 182q82 0 150.5 29t116.5 83t75 132t27 176v225 q0 98 -27 176t-75 132.5t-116.5 83t-150.5 28.5q-84 0 -151.5 -28.5t-115.5 -83t-75 -132t-27 -176.5v-225q0 -98 27 -176t75 -132t115.5 -83t151.5 -29zM525 1589q-70 0 -99.5 32t-29.5 79v37q0 47 29.5 78.5t99.5 31.5t99.5 -31.5t29.5 -78.5v-37q0 -47 -29.5 -79 t-99.5 -32zM934 1589q-70 0 -99.5 32t-29.5 79v37q0 47 30 78.5t99 31.5q70 0 99.5 -31.5t29.5 -78.5v-37q0 -47 -29.5 -79t-99.5 -32z" />
<glyph unicode="&#xd7;" d="M614 487l-307 -317l-131 129l309 319l-309 320l131 129l307 -317l308 317l131 -129l-310 -320l310 -319l-131 -129z" />
<glyph unicode="&#xd8;" horiz-adv-x="1458" d="M729 -25q-195 0 -334 91l-116 -168l-148 96l133 192q-72 92 -111.5 224.5t-39.5 304.5q0 180 44 318t124.5 231.5t194.5 141.5t253 48q195 0 334 -90l117 168l147 -96l-133 -193q72 -92 112 -224t40 -304q0 -180 -44.5 -318.5t-125 -231.5t-194.5 -141.5t-253 -48.5z M354 598q0 -129 47 -227l549 817q-92 70 -221 69q-84 0 -153.5 -29.5t-118.5 -85t-76 -134t-27 -177.5v-233zM1104 831q0 129 -47 228l-549 -817q92 -70 221 -70q84 0 153.5 29.5t119 85t76 134.5t26.5 177v233z" />
<glyph unicode="&#xd9;" horiz-adv-x="1404" d="M395 1430v-881q0 -182 70 -274.5t237 -92.5q168 0 238 92.5t70 274.5v881h227v-844q0 -158 -28.5 -272.5t-92 -189.5t-165 -112t-249.5 -37q-147 0 -248.5 37t-165 112t-92 189.5t-28.5 272.5v844h227zM438 1874l195 94l186 -369l-139 -65z" />
<glyph unicode="&#xda;" horiz-adv-x="1404" d="M395 1430v-881q0 -182 70 -274.5t237 -92.5q168 0 238 92.5t70 274.5v881h227v-844q0 -158 -28.5 -272.5t-92 -189.5t-165 -112t-249.5 -37q-147 0 -248.5 37t-165 112t-92 189.5t-28.5 272.5v844h227zM725 1534l-139 65l186 369l195 -94z" />
<glyph unicode="&#xdb;" horiz-adv-x="1404" d="M395 1430v-881q0 -182 70 -274.5t237 -92.5q168 0 238 92.5t70 274.5v881h227v-844q0 -158 -28.5 -272.5t-92 -189.5t-165 -112t-249.5 -37q-147 0 -248.5 37t-165 112t-92 189.5t-28.5 272.5v844h227zM815 1933l246 -307l-115 -86l-244 238l-243 -238l-115 86l246 307 h225z" />
<glyph unicode="&#xdc;" horiz-adv-x="1404" d="M395 1430v-881q0 -182 70 -274.5t237 -92.5q168 0 238 92.5t70 274.5v881h227v-844q0 -158 -28.5 -272.5t-92 -189.5t-165 -112t-249.5 -37q-147 0 -248.5 37t-165 112t-92 189.5t-28.5 272.5v844h227zM498 1589q-70 0 -99.5 32t-29.5 79v37q0 47 29.5 78.5t99.5 31.5 t99.5 -31.5t29.5 -78.5v-37q0 -47 -29.5 -79t-99.5 -32zM907 1589q-70 0 -99.5 32t-29.5 79v37q0 47 30 78.5t99 31.5q70 0 99.5 -31.5t29.5 -78.5v-37q0 -47 -29.5 -79t-99.5 -32z" />
<glyph unicode="&#xdd;" horiz-adv-x="1263" d="M514 0v563l-491 867h264l348 -637h6l346 637h254l-496 -863v-567h-231zM655 1534l-139 65l186 369l195 -94z" />
<glyph unicode="&#xde;" horiz-adv-x="1284" d="M176 0v1430h232v-275h383q98 0 174.5 -30.5t131 -87t82 -136.5t27.5 -176t-27.5 -176t-82 -136.5t-131 -87t-174.5 -30.5h-383v-295h-232zM408 498h368q88 0 137.5 46t49.5 132v98q0 86 -49.5 132t-137.5 46h-368v-454z" />
<glyph unicode="&#xdf;" horiz-adv-x="1355" d="M1303 326q0 -82 -28 -146.5t-77 -109.5t-119.5 -70t-156.5 -25q-127 0 -218.5 42t-152.5 122l135 131q98 -119 240 -118q78 0 123 37.5t45 109.5q0 59 -31 95t-109 57l-63 16q-59 16 -108.5 39.5t-85 58.5t-56 85t-20.5 118q0 133 89 212t242 95v8q0 281 -258 281 q-256 0 -256 -281v-1083h-223v883h-162v182h162v8q0 217 127 342t350 125q109 0 196 -32.5t148.5 -92t94 -146.5t32.5 -194v-155h-104q-115 0 -172.5 -31t-57.5 -105q0 -66 38 -94t110 -49l61 -18q135 -35 200 -104.5t65 -192.5z" />
<glyph unicode="&#xe0;" horiz-adv-x="1124" d="M940 0q-88 0 -135 50t-57 128h-11q-31 -100 -112.5 -151.5t-198.5 -51.5q-166 0 -255 86t-89 232q0 160 115.5 239.5t339.5 79.5h192v90q0 98 -53 151.5t-166 53.5q-94 0 -153.5 -41t-100.5 -104l-133 121q53 90 149.5 148.5t251.5 58.5q207 0 317.5 -96.5t110.5 -276.5 v-535h113v-182h-125zM489 145q104 0 172 46.5t68 123.5v154h-188q-231 0 -232 -143v-37q0 -72 48 -108t132 -36zM268 1534l195 94l186 -368l-139 -68z" />
<glyph unicode="&#xe1;" horiz-adv-x="1124" d="M940 0q-88 0 -135 50t-57 128h-11q-31 -100 -112.5 -151.5t-198.5 -51.5q-166 0 -255 86t-89 232q0 160 115.5 239.5t339.5 79.5h192v90q0 98 -53 151.5t-166 53.5q-94 0 -153.5 -41t-100.5 -104l-133 121q53 90 149.5 148.5t251.5 58.5q207 0 317.5 -96.5t110.5 -276.5 v-535h113v-182h-125zM489 145q104 0 172 46.5t68 123.5v154h-188q-231 0 -232 -143v-37q0 -72 48 -108t132 -36zM555 1192l-139 68l186 368l195 -94z" />
<glyph unicode="&#xe2;" horiz-adv-x="1124" d="M940 0q-88 0 -135 50t-57 128h-11q-31 -100 -112.5 -151.5t-198.5 -51.5q-166 0 -255 86t-89 232q0 160 115.5 239.5t339.5 79.5h192v90q0 98 -53 151.5t-166 53.5q-94 0 -153.5 -41t-100.5 -104l-133 121q53 90 149.5 148.5t251.5 58.5q207 0 317.5 -96.5t110.5 -276.5 v-535h113v-182h-125zM489 145q104 0 172 46.5t68 123.5v154h-188q-231 0 -232 -143v-37q0 -72 48 -108t132 -36zM645 1593l246 -307l-115 -88l-244 240l-243 -240l-115 88l246 307h225z" />
<glyph unicode="&#xe3;" horiz-adv-x="1124" d="M940 0q-88 0 -135 50t-57 128h-11q-31 -100 -112.5 -151.5t-198.5 -51.5q-166 0 -255 86t-89 232q0 160 115.5 239.5t339.5 79.5h192v90q0 98 -53 151.5t-166 53.5q-94 0 -153.5 -41t-100.5 -104l-133 121q53 90 149.5 148.5t251.5 58.5q207 0 317.5 -96.5t110.5 -276.5 v-535h113v-182h-125zM489 145q104 0 172 46.5t68 123.5v154h-188q-231 0 -232 -143v-37q0 -72 48 -108t132 -36zM684 1243q-51 0 -88 16.5t-72 32.5q-47 23 -83 36t-68 13q-35 0 -61.5 -14t-57.5 -41l-84 107q31 47 83 82.5t128 35.5q51 0 88 -16t72 -33q47 -23 82.5 -36 t68.5 -13q35 0 61.5 14.5t57.5 40.5l84 -106q-31 -47 -83 -83t-128 -36z" />
<glyph unicode="&#xe4;" horiz-adv-x="1124" d="M940 0q-88 0 -135 50t-57 128h-11q-31 -100 -112.5 -151.5t-198.5 -51.5q-166 0 -255 86t-89 232q0 160 115.5 239.5t339.5 79.5h192v90q0 98 -53 151.5t-166 53.5q-94 0 -153.5 -41t-100.5 -104l-133 121q53 90 149.5 148.5t251.5 58.5q207 0 317.5 -96.5t110.5 -276.5 v-535h113v-182h-125zM489 145q104 0 172 46.5t68 123.5v154h-188q-231 0 -232 -143v-37q0 -72 48 -108t132 -36zM328 1249q-70 0 -98.5 31t-28.5 78v37q0 47 28.5 77.5t98.5 30.5t98.5 -30.5t28.5 -77.5v-37q0 -47 -28.5 -78t-98.5 -31zM737 1249q-70 0 -98.5 31t-28.5 78 v37q0 47 29 77.5t98 30.5q70 0 98.5 -30.5t28.5 -77.5v-37q0 -47 -28.5 -78t-98.5 -31z" />
<glyph unicode="&#xe5;" horiz-adv-x="1124" d="M940 0q-88 0 -135 50t-57 128h-11q-31 -100 -112.5 -151.5t-198.5 -51.5q-166 0 -255 86t-89 232q0 160 115.5 239.5t339.5 79.5h192v90q0 98 -53 151.5t-166 53.5q-94 0 -153.5 -41t-100.5 -104l-133 121q53 90 149.5 148.5t251.5 58.5q207 0 317.5 -96.5t110.5 -276.5 v-535h113v-182h-125zM489 145q104 0 172 46.5t68 123.5v154h-188q-231 0 -232 -143v-37q0 -72 48 -108t132 -36zM532 1163q-55 0 -104 19.5t-85 54.5t-56.5 83t-20.5 103t20.5 103.5t56.5 83.5t85 54t104 19t104.5 -19t85.5 -54t56.5 -83t20.5 -104q0 -55 -20.5 -103 t-56.5 -83t-85.5 -54.5t-104.5 -19.5zM532 1286q113 0 113 109v57q0 109 -113 109t-112 -109v-57q-1 -109 112 -109z" />
<glyph unicode="&#xe6;" horiz-adv-x="1771" d="M541 475q-231 -4 -232 -145v-37q0 -72 48.5 -110t136.5 -38q98 0 166.5 46.5t68.5 123.5v160h-188zM1448 623v20q0 123 -63.5 197.5t-174.5 74.5q-57 0 -105 -20.5t-82 -57t-52.5 -88t-18.5 -112.5v-14h496zM1237 160q98 0 167 43t112 114l131 -127q-59 -98 -169 -156.5 t-251 -58.5q-80 0 -148.5 20.5t-121 53.5t-86 73t-48.5 79h-12q-10 -37 -40 -77t-77 -73t-114.5 -54.5t-153.5 -21.5q-162 0 -253 88.5t-91 229.5q0 162 118.5 246t336.5 84h192v79q0 98 -53 151.5t-164 53.5q-98 0 -156.5 -40t-99.5 -103l-133 119q53 90 149.5 148.5 t251.5 58.5q74 0 127.5 -18.5t91 -47.5t61 -64.5t40.5 -70.5h12q16 37 49 72.5t79 64.5t106.5 46.5t132.5 17.5q115 0 200.5 -41t144 -114t87 -169t28.5 -207v-84h-731v-35q0 -123 75 -201.5t210 -78.5z" />
<glyph unicode="&#xe7;" horiz-adv-x="1044" d="M571 1090q160 0 262.5 -72t149.5 -191l-184 -86q-23 74 -79 118t-149 44q-123 0 -185 -76.5t-62 -199.5v-191q0 -123 62.5 -199.5t184.5 -76.5q98 0 156.5 48t93.5 128l170 -90q-49 -123 -146 -191.5t-239 -79.5l-18 -94l6 -8q23 6 44 10t44 4q59 0 101 -33.5t42 -105.5 q0 -47 -20.5 -80t-54 -54.5t-77.5 -31.5t-93 -10q-92 0 -146.5 28.5t-79.5 57.5l86 98q18 -25 50 -42t79 -17q39 0 64.5 14.5t25.5 44.5q0 25 -28.5 48.5t-116.5 33.5l-51 6l26 138q-193 27 -297 172t-104 378q0 127 33 230.5t94 176.5t151 112t205 39z" />
<glyph unicode="&#xe8;" horiz-adv-x="1138" d="M578 -25q-115 0 -205 39t-153.5 112t-97.5 176.5t-34 229.5q0 127 34 230.5t97.5 176.5t153.5 112t205 39q117 0 205.5 -41t148 -114t89.5 -169t30 -207v-84h-732v-35q0 -123 73 -201.5t208 -78.5q98 0 166 43t115 116l131 -129q-59 -98 -171.5 -156.5t-262.5 -58.5z M578 915q-57 0 -105.5 -20.5t-82.5 -57t-52.5 -88t-18.5 -112.5v-14h496v20q0 123 -63 197.5t-174 74.5zM317 1534l195 94l186 -368l-139 -68z" />
<glyph unicode="&#xe9;" horiz-adv-x="1138" d="M578 -25q-115 0 -205 39t-153.5 112t-97.5 176.5t-34 229.5q0 127 34 230.5t97.5 176.5t153.5 112t205 39q117 0 205.5 -41t148 -114t89.5 -169t30 -207v-84h-732v-35q0 -123 73 -201.5t208 -78.5q98 0 166 43t115 116l131 -129q-59 -98 -171.5 -156.5t-262.5 -58.5z M578 915q-57 0 -105.5 -20.5t-82.5 -57t-52.5 -88t-18.5 -112.5v-14h496v20q0 123 -63 197.5t-174 74.5zM604 1192l-139 68l186 368l195 -94z" />
<glyph unicode="&#xea;" horiz-adv-x="1138" d="M578 -25q-115 0 -205 39t-153.5 112t-97.5 176.5t-34 229.5q0 127 34 230.5t97.5 176.5t153.5 112t205 39q117 0 205.5 -41t148 -114t89.5 -169t30 -207v-84h-732v-35q0 -123 73 -201.5t208 -78.5q98 0 166 43t115 116l131 -129q-59 -98 -171.5 -156.5t-262.5 -58.5z M578 915q-57 0 -105.5 -20.5t-82.5 -57t-52.5 -88t-18.5 -112.5v-14h496v20q0 123 -63 197.5t-174 74.5zM694 1593l246 -307l-115 -88l-244 240l-243 -240l-115 88l246 307h225z" />
<glyph unicode="&#xeb;" horiz-adv-x="1138" d="M578 -25q-115 0 -205 39t-153.5 112t-97.5 176.5t-34 229.5q0 127 34 230.5t97.5 176.5t153.5 112t205 39q117 0 205.5 -41t148 -114t89.5 -169t30 -207v-84h-732v-35q0 -123 73 -201.5t208 -78.5q98 0 166 43t115 116l131 -129q-59 -98 -171.5 -156.5t-262.5 -58.5z M578 915q-57 0 -105.5 -20.5t-82.5 -57t-52.5 -88t-18.5 -112.5v-14h496v20q0 123 -63 197.5t-174 74.5zM377 1249q-70 0 -98.5 31t-28.5 78v37q0 47 28.5 77.5t98.5 30.5t98.5 -30.5t28.5 -77.5v-37q0 -47 -28.5 -78t-98.5 -31zM786 1249q-70 0 -98.5 31t-28.5 78v37 q0 47 29 77.5t98 30.5q70 0 98.5 -30.5t28.5 -77.5v-37q0 -47 -28.5 -78t-98.5 -31z" />
<glyph unicode="&#xec;" horiz-adv-x="542" d="M160 0v1065h223v-1065h-223zM10 1534l195 94l186 -368l-139 -68z" />
<glyph unicode="&#xed;" horiz-adv-x="542" d="M160 0v1065h223v-1065h-223zM297 1192l-139 68l186 368l195 -94z" />
<glyph unicode="&#xee;" horiz-adv-x="542" d="M160 0v1065h223v-1065h-223zM387 1593l246 -307l-115 -88l-244 240l-243 -240l-115 88l246 307h225z" />
<glyph unicode="&#xef;" horiz-adv-x="542" d="M160 0v1065h223v-1065h-223zM70 1249q-70 0 -98.5 31t-28.5 78v37q0 47 28.5 77.5t98.5 30.5t98.5 -30.5t28.5 -77.5v-37q0 -47 -28.5 -78t-98.5 -31zM479 1249q-70 0 -98.5 31t-28.5 78v37q0 47 29 77.5t98 30.5q70 0 98.5 -30.5t28.5 -77.5v-37q0 -47 -28.5 -78 t-98.5 -31z" />
<glyph unicode="&#xf0;" horiz-adv-x="1175" d="M907 1442l-155 -105q68 -70 127 -152.5t103 -180t68.5 -208t24.5 -235.5q0 -150 -35.5 -259t-100.5 -182t-155 -109t-198 -36q-117 0 -208 38t-155.5 109t-98.5 169t-34 219q0 117 31 212t88 162.5t139 105.5t182 38q106 0 178 -53t111 -148l12 7q-25 109 -90 208 t-157 187l-172 -111l-80 101l151 100q-70 55 -143.5 104.5t-149.5 92.5h342q29 -18 60 -40t61 -49l172 115zM584 154q117 0 187.5 74.5t70.5 209.5v127q0 135 -71 210t-187 75q-117 0 -187.5 -75t-70.5 -210v-127q0 -135 70.5 -209.5t187.5 -74.5z" />
<glyph unicode="&#xf1;" horiz-adv-x="1187" d="M160 0v1065h223v-176h10q35 86 105.5 143.5t193.5 57.5q164 0 255 -108t91 -306v-676h-223v647q0 250 -201 250q-43 0 -85 -11.5t-74.5 -34t-52 -57t-19.5 -81.5v-713h-223zM754 1243q-51 0 -88 16.5t-72 32.5q-47 23 -83 36t-68 13q-35 0 -61.5 -14t-57.5 -41l-84 107 q31 47 83 82.5t128 35.5q51 0 88 -16t72 -33q47 -23 82.5 -36t68.5 -13q35 0 61.5 14.5t57.5 40.5l84 -106q-31 -47 -83 -83t-128 -36z" />
<glyph unicode="&#xf2;" horiz-adv-x="1155" d="M578 -25q-111 0 -202 39t-154.5 112t-98.5 176.5t-35 229.5q0 127 35 230.5t98.5 176.5t154.5 112t202 39t201.5 -39t154 -112t98.5 -176.5t35 -230.5t-35 -230t-98.5 -176t-154 -112t-201.5 -39zM578 160q115 0 184 70.5t69 211.5v181q0 141 -69.5 211.5t-183.5 70.5 q-115 0 -184.5 -70.5t-69.5 -211.5v-181q0 -141 69.5 -211.5t184.5 -70.5zM313 1534l195 94l186 -368l-139 -68z" />
<glyph unicode="&#xf3;" horiz-adv-x="1155" d="M578 -25q-111 0 -202 39t-154.5 112t-98.5 176.5t-35 229.5q0 127 35 230.5t98.5 176.5t154.5 112t202 39t201.5 -39t154 -112t98.5 -176.5t35 -230.5t-35 -230t-98.5 -176t-154 -112t-201.5 -39zM578 160q115 0 184 70.5t69 211.5v181q0 141 -69.5 211.5t-183.5 70.5 q-115 0 -184.5 -70.5t-69.5 -211.5v-181q0 -141 69.5 -211.5t184.5 -70.5zM600 1192l-139 68l186 368l195 -94z" />
<glyph unicode="&#xf4;" horiz-adv-x="1155" d="M578 -25q-111 0 -202 39t-154.5 112t-98.5 176.5t-35 229.5q0 127 35 230.5t98.5 176.5t154.5 112t202 39t201.5 -39t154 -112t98.5 -176.5t35 -230.5t-35 -230t-98.5 -176t-154 -112t-201.5 -39zM578 160q115 0 184 70.5t69 211.5v181q0 141 -69.5 211.5t-183.5 70.5 q-115 0 -184.5 -70.5t-69.5 -211.5v-181q0 -141 69.5 -211.5t184.5 -70.5zM690 1593l246 -307l-115 -88l-244 240l-243 -240l-115 88l246 307h225z" />
<glyph unicode="&#xf5;" horiz-adv-x="1155" d="M578 -25q-111 0 -202 39t-154.5 112t-98.5 176.5t-35 229.5q0 127 35 230.5t98.5 176.5t154.5 112t202 39t201.5 -39t154 -112t98.5 -176.5t35 -230.5t-35 -230t-98.5 -176t-154 -112t-201.5 -39zM578 160q115 0 184 70.5t69 211.5v181q0 141 -69.5 211.5t-183.5 70.5 q-115 0 -184.5 -70.5t-69.5 -211.5v-181q0 -141 69.5 -211.5t184.5 -70.5zM729 1243q-51 0 -88 16.5t-72 32.5q-47 23 -83 36t-68 13q-35 0 -61.5 -14t-57.5 -41l-84 107q31 47 83 82.5t128 35.5q51 0 88 -16t72 -33q47 -23 82.5 -36t68.5 -13q35 0 61.5 14.5t57.5 40.5 l84 -106q-31 -47 -83 -83t-128 -36z" />
<glyph unicode="&#xf6;" horiz-adv-x="1155" d="M578 -25q-111 0 -202 39t-154.5 112t-98.5 176.5t-35 229.5q0 127 35 230.5t98.5 176.5t154.5 112t202 39t201.5 -39t154 -112t98.5 -176.5t35 -230.5t-35 -230t-98.5 -176t-154 -112t-201.5 -39zM578 160q115 0 184 70.5t69 211.5v181q0 141 -69.5 211.5t-183.5 70.5 q-115 0 -184.5 -70.5t-69.5 -211.5v-181q0 -141 69.5 -211.5t184.5 -70.5zM373 1249q-70 0 -98.5 31t-28.5 78v37q0 47 28.5 77.5t98.5 30.5t98.5 -30.5t28.5 -77.5v-37q0 -47 -28.5 -78t-98.5 -31zM782 1249q-70 0 -98.5 31t-28.5 78v37q0 47 29 77.5t98 30.5 q70 0 98.5 -30.5t28.5 -77.5v-37q0 -47 -28.5 -78t-98.5 -31z" />
<glyph unicode="&#xf7;" d="M137 535v182h955v-182h-955zM614 86q-82 0 -115.5 35t-33.5 82v47q0 47 33.5 82t115.5 35t116 -35t34 -82v-47q0 -47 -34 -82t-116 -35zM614 883q-82 0 -115.5 34.5t-33.5 81.5v48q0 47 33.5 81.5t115.5 34.5t116 -34.5t34 -81.5v-48q0 -47 -34 -81.5t-116 -34.5z" />
<glyph unicode="&#xf8;" horiz-adv-x="1167" d="M53 2l137 170q-47 72 -71.5 161t-24.5 199q0 127 35 230.5t98.5 176.5t154.5 112t202 39q162 0 282 -86l125 151l123 -92l-139 -172q47 -70 72.5 -160t25.5 -199q0 -127 -34.5 -230t-98 -176t-155 -112t-201.5 -39q-84 0 -155 21.5t-128 62.5l-125 -149zM584 154 q117 0 187.5 74.5t70.5 217.5v172q0 55 -13 103l-415 -510q64 -57 170 -57zM326 446q0 -57 12 -102l416 508q-70 59 -170 59q-117 0 -187.5 -74.5t-70.5 -218.5v-172z" />
<glyph unicode="&#xf9;" horiz-adv-x="1187" d="M805 176h-8q-14 -39 -38 -76t-59.5 -64.5t-86 -44t-115.5 -16.5q-166 0 -257 106.5t-91 305.5v678h223v-649q0 -248 205 -248q43 0 83.5 11t72.5 34t51.5 57.5t19.5 81.5v713h223v-1065h-223v176zM327 1534l195 94l186 -368l-139 -68z" />
<glyph unicode="&#xfa;" horiz-adv-x="1187" d="M805 176h-8q-14 -39 -38 -76t-59.5 -64.5t-86 -44t-115.5 -16.5q-166 0 -257 106.5t-91 305.5v678h223v-649q0 -248 205 -248q43 0 83.5 11t72.5 34t51.5 57.5t19.5 81.5v713h223v-1065h-223v176zM614 1192l-139 68l186 368l195 -94z" />
<glyph unicode="&#xfb;" horiz-adv-x="1187" d="M805 176h-8q-14 -39 -38 -76t-59.5 -64.5t-86 -44t-115.5 -16.5q-166 0 -257 106.5t-91 305.5v678h223v-649q0 -248 205 -248q43 0 83.5 11t72.5 34t51.5 57.5t19.5 81.5v713h223v-1065h-223v176zM704 1593l246 -307l-115 -88l-244 240l-243 -240l-115 88l246 307h225z " />
<glyph unicode="&#xfc;" horiz-adv-x="1187" d="M805 176h-8q-14 -39 -38 -76t-59.5 -64.5t-86 -44t-115.5 -16.5q-166 0 -257 106.5t-91 305.5v678h223v-649q0 -248 205 -248q43 0 83.5 11t72.5 34t51.5 57.5t19.5 81.5v713h223v-1065h-223v176zM387 1249q-70 0 -98.5 31t-28.5 78v37q0 47 28.5 77.5t98.5 30.5 t98.5 -30.5t28.5 -77.5v-37q0 -47 -28.5 -78t-98.5 -31zM796 1249q-70 0 -98.5 31t-28.5 78v37q0 47 29 77.5t98 30.5q70 0 98.5 -30.5t28.5 -77.5v-37q0 -47 -28.5 -78t-98.5 -31z" />
<glyph unicode="&#xfd;" horiz-adv-x="1052" d="M813 1065h215l-448 -1276q-18 -53 -42 -91t-55.5 -61.5t-77 -35t-106.5 -11.5h-129v183h180l62 180l-387 1112h223l213 -627l61 -231h10l68 231zM555 1192l-139 68l186 368l195 -94z" />
<glyph unicode="&#xfe;" horiz-adv-x="1212" d="M160 1516h223v-627h10q35 96 114 148.5t185 52.5q203 0 313.5 -146.5t110.5 -411.5q0 -264 -110.5 -410.5t-313.5 -146.5q-106 0 -185 53.5t-114 147.5h-10v-586h-223v1926zM625 168q117 0 186.5 74.5t69.5 197.5v185q0 123 -70 197.5t-186 74.5q-102 0 -172 -50 t-70 -132v-365q0 -82 70 -132t172 -50z" />
<glyph unicode="&#xff;" horiz-adv-x="1052" d="M813 1065h215l-448 -1276q-18 -53 -42 -91t-55.5 -61.5t-77 -35t-106.5 -11.5h-129v183h180l62 180l-387 1112h223l213 -627l61 -231h10l68 231zM328 1249q-70 0 -98.5 31t-28.5 78v37q0 47 28.5 77.5t98.5 30.5t98.5 -30.5t28.5 -77.5v-37q0 -47 -28.5 -78t-98.5 -31z M737 1249q-70 0 -98.5 31t-28.5 78v37q0 47 29 77.5t98 30.5q70 0 98.5 -30.5t28.5 -77.5v-37q0 -47 -28.5 -78t-98.5 -31z" />
<glyph unicode="&#x110;" horiz-adv-x="1406" d="M184 655h-157v176h157v599h506q137 0 249 -45.5t190.5 -134.5t121.5 -223t43 -312t-43 -312.5t-121.5 -223.5t-190.5 -134t-249 -45h-506v655zM690 205q160 0 258.5 100.5t98.5 294.5v229q0 195 -98.5 295.5t-258.5 100.5h-274v-394h266v-176h-266v-450h274z" />
<glyph unicode="&#x131;" horiz-adv-x="542" d="M160 0v1065h223v-1065h-223z" />
<glyph unicode="&#x132;" horiz-adv-x="1331" d="M1163 1430v-981q0 -111 -34.5 -198t-99 -148.5t-157 -94.5t-206.5 -33q-109 0 -192 28t-143.5 76t-98 115.5t-52.5 147.5l213 47q20 -92 87 -149.5t188 -57.5q117 0 190.5 60.5t73.5 193.5v799h-254v195h485zM168 1430h231v-820h-231v820z" />
<glyph unicode="&#x133;" horiz-adv-x="1077" d="M272 1255q-70 0 -101.5 33t-31.5 84v35q0 51 32 84t101 33q70 0 100.5 -33t30.5 -84v-35q0 -51 -30.5 -84t-100.5 -33zM160 1065h223v-1065h-223v1065zM695 1065h223v-1208q0 -123 -62.5 -195t-197.5 -72h-129v183h166v1292zM807 1255q-70 0 -101.5 33t-31.5 84v35 q0 51 32 84t101 33q70 0 100.5 -33t30.5 -84v-35q0 -51 -30.5 -84t-100.5 -33z" />
<glyph unicode="&#x135;" horiz-adv-x="542" d="M-6 -227h166v1292h223v-1208q0 -123 -62.5 -195t-197.5 -72h-129v183zM387 1593l246 -307l-115 -88l-244 240l-243 -240l-115 88l246 307h225z" />
<glyph unicode="&#x140;" horiz-adv-x="811" d="M387 0q-115 0 -171 58.5t-56 162.5v1295h223v-1334h147v-182h-143zM675 539q-74 0 -105.5 33t-31.5 84v37q0 51 32 83.5t105 32.5q74 0 106 -32.5t32 -83.5v-37q0 -51 -32 -84t-106 -33z" />
<glyph unicode="&#x141;" horiz-adv-x="1069" d="M997 0h-813v530l-198 -65v178l198 66v721h232v-646l350 117v-182l-350 -115v-399h581v-205z" />
<glyph unicode="&#x142;" horiz-adv-x="598" d="M539 0h-144q-115 0 -171 58.5t-56 162.5v418l-150 -49v176l150 49v701h223v-627l211 69v-176l-211 -69v-531h148v-182z" />
<glyph unicode="&#x152;" horiz-adv-x="2027" d="M995 0q-53 -10 -119.5 -17.5t-132.5 -7.5q-145 0 -261.5 47.5t-198.5 141.5t-126 231t-44 320q0 180 44 318t126 232.5t198.5 141.5t261.5 47q66 0 133.5 -7t124.5 -17h904v-205h-684v-398h620v-204h-620v-418h684v-205h-910zM756 182q59 0 119.5 6.5t113.5 22.5v1008 q-53 14 -113.5 21t-119.5 7q-199 0 -297.5 -111.5t-98.5 -308.5v-225q0 -197 98.5 -308.5t297.5 -111.5z" />
<glyph unicode="&#x153;" horiz-adv-x="1886" d="M578 160q115 0 184 70.5t69 211.5v181q0 141 -69.5 211.5t-183.5 70.5q-115 0 -184.5 -70.5t-69.5 -211.5v-181q0 -141 69.5 -211.5t184.5 -70.5zM1563 623v20q0 123 -63.5 197.5t-174.5 74.5q-57 0 -105.5 -20.5t-82 -57t-52 -88t-18.5 -112.5v-14h496zM1337 -25 q-147 0 -244.5 57.5t-138.5 141.5h-12q-43 -88 -138 -143.5t-226 -55.5q-111 0 -202 39t-154.5 112t-98.5 176.5t-35 229.5q0 127 35 230.5t98.5 176.5t154.5 112t202 39q127 0 221 -50.5t143 -150.5h12q45 92 141.5 146.5t231.5 54.5q111 0 198 -39t148.5 -109t93 -167 t31.5 -216v-84h-731v-35q0 -123 72.5 -201.5t212.5 -78.5q98 0 165.5 43t114.5 116l131 -129q-59 -98 -169 -156.5t-257 -58.5z" />
<glyph unicode="&#x160;" horiz-adv-x="1224" d="M604 -25q-180 0 -306 65.5t-216 176.5l160 150q76 -92 167 -139.5t207 -47.5q137 0 207 61.5t70 166.5q0 84 -49 133t-174 73l-127 23q-209 39 -313.5 137t-104.5 270q0 94 36 171t100.5 129.5t156.5 81t207 28.5q162 0 280.5 -56.5t202.5 -162.5l-162 -143 q-55 72 -135 114.5t-199 42.5q-123 0 -190.5 -49t-67.5 -143q0 -90 55.5 -134t172.5 -67l127 -27q215 -41 314 -139t99 -270q0 -100 -34.5 -182t-101 -140.5t-163 -90.5t-219.5 -32zM494 1556l-246 308l115 86l243 -238l244 238l115 -86l-246 -308h-225z" />
<glyph unicode="&#x161;" horiz-adv-x="1011" d="M498 -25q-152 0 -254.5 53.5t-177.5 147.5l143 131q59 -72 132 -111.5t169 -39.5q98 0 146.5 37.5t48.5 105.5q0 51 -34 87t-118 46l-98 12q-164 20 -257.5 95t-93.5 223q0 78 29 138.5t81 102t125 64.5t161 23q143 0 234 -45.5t163 -124.5l-137 -132q-41 49 -107.5 85 t-152.5 36q-92 0 -136.5 -36.5t-44.5 -96.5q0 -61 39 -92t125 -45l99 -12q176 -27 257 -104t81 -206q0 -78 -30 -140t-85 -107t-133 -70t-174 -25zM387 1217l-246 307l115 86l243 -238l244 238l115 -86l-246 -307h-225z" />
<glyph unicode="&#x178;" horiz-adv-x="1263" d="M514 0v563l-491 867h264l348 -637h6l346 637h254l-496 -863v-567h-231zM428 1589q-70 0 -99.5 32t-29.5 79v37q0 47 29.5 78.5t99.5 31.5t99.5 -31.5t29.5 -78.5v-37q0 -47 -29.5 -79t-99.5 -32zM837 1589q-70 0 -99.5 32t-29.5 79v37q0 47 30 78.5t99 31.5 q70 0 99.5 -31.5t29.5 -78.5v-37q0 -47 -29.5 -79t-99.5 -32z" />
<glyph unicode="&#x17d;" horiz-adv-x="1210" d="M1135 0h-1059v207l776 1018h-735v205h995v-207l-776 -1018h799v-205zM502 1556l-246 308l115 86l243 -238l244 238l115 -86l-246 -308h-225z" />
<glyph unicode="&#x17e;" horiz-adv-x="997" d="M74 0v180l571 703h-553v182h817v-172l-579 -711h594v-182h-850zM389 1217l-246 307l115 86l243 -238l244 238l115 -86l-246 -307h-225z" />
<glyph unicode="&#x192;" horiz-adv-x="991" d="M18 -92h271l67 665h-260l21 191h258l41 393q12 121 85.5 197t213.5 76h237l-20 -183h-283l-51 -483h309l-18 -191h-309l-58 -577q-12 -119 -86 -194.5t-213 -75.5h-223z" />
<glyph unicode="&#x237;" horiz-adv-x="542" d="M-6 -227h166v1292h223v-1208q0 -123 -62.5 -195t-197.5 -72h-129v183z" />
<glyph unicode="&#x2bb;" d="M616 1202q-59 0 -89.5 29t-30.5 80v26q0 82 37.5 157t91.5 122h141q-47 -43 -72.5 -84t-40.5 -94q45 -6 64.5 -36t19.5 -69v-22q0 -51 -31 -80t-90 -29z" />
<glyph unicode="&#x2bc;" d="M449 1516h243l-114 -410h-150z" />
<glyph unicode="&#x2c6;" d="M727 1593l246 -307l-115 -88l-244 240l-243 -240l-115 88l246 307h225z" />
<glyph unicode="&#x2c7;" d="M502 1217l-246 307l115 86l243 -238l244 238l115 -86l-246 -307h-225z" />
<glyph unicode="&#x2d7;" horiz-adv-x="614" d="M33 662h549v-224h-549v224z" />
<glyph unicode="&#x2d8;" d="M614 1206q-86 0 -144 29t-97 72t-62.5 95t-40.5 99l123 62l43 -68q35 -57 73 -91t105 -34q68 0 106 34t73 91l43 68l122 -62q-16 -47 -39.5 -99t-62.5 -95t-97.5 -72t-144.5 -29z" />
<glyph unicode="&#x2d9;" d="M614 1239q-74 0 -105.5 33t-31.5 84v37q0 51 32 83.5t105 32.5q74 0 106 -32.5t32 -83.5v-37q0 -51 -32 -84t-106 -33z" />
<glyph unicode="&#x2da;" d="M614 1163q-55 0 -104 19.5t-85 54.5t-56.5 83t-20.5 103t20.5 103.5t56.5 83.5t85 54t104 19t104.5 -19t85.5 -54t56.5 -83t20.5 -104q0 -55 -20.5 -103t-56.5 -83t-85.5 -54.5t-104.5 -19.5zM614 1286q113 0 113 109v57q0 109 -113 109t-112 -109v-57q-1 -109 112 -109z " />
<glyph unicode="&#x2db;" d="M489 -428q-45 0 -84.5 9t-69.5 28.5t-47.5 50.5t-17.5 76q0 84 61.5 143.5t166.5 122.5l-13 43h144l18 -45q-70 -53 -111.5 -90t-65.5 -63.5t-31 -45t-7 -37.5q0 -37 20.5 -51t49.5 -14q33 0 58.5 15.5t45.5 37.5l94 -90q-23 -41 -76 -65.5t-135 -24.5z" />
<glyph unicode="&#x2dc;" d="M766 1243q-51 0 -88 16.5t-72 32.5q-47 23 -83 36t-68 13q-35 0 -61.5 -14t-57.5 -41l-84 107q31 47 83 82.5t128 35.5q51 0 88 -16t72 -33q47 -23 82.5 -36t68.5 -13q35 0 61.5 14.5t57.5 40.5l84 -106q-31 -47 -83 -83t-128 -36z" />
<glyph unicode="&#x2dd;" d="M451 1194l-127 59l186 371l182 -90zM817 1194l-127 59l187 371l182 -90z" />
<glyph unicode="&#x303;" horiz-adv-x="0" d="M152 1280q-51 0 -88 16.5t-72 32.5q-47 23 -83 36t-69 13q-35 0 -61.5 -14t-57.5 -41l-83 107q31 47 83 82.5t127 35.5q51 0 88 -16t72 -33q47 -23 83 -36t69 -13q35 0 61.5 14.5t57.5 40.5l83 -106q-31 -47 -82.5 -83t-127.5 -36z" />
<glyph unicode="&#x331;" horiz-adv-x="0" d="M-682 -221h596v-170h-596v170z" />
<glyph unicode="&#x34f;" horiz-adv-x="0" />
<glyph unicode="&#x3c0;" horiz-adv-x="1302" d="M1032 182h133v-182h-121q-117 0 -176 61.5t-59 167.5v654h-356v-883h-224v883h-180v182h1186v-182h-203v-701z" />
<glyph unicode="&#xe01;" horiz-adv-x="1277" d="M260 621l-176 73q8 100 50 184.5t111.5 144.5t164 93t204.5 33q244 0 379 -124t135 -335v-690h-223v662q0 147 -80 226t-219 79q-113 0 -197.5 -50.5t-115.5 -134.5l88 -34q57 -23 79.5 -52.5t22.5 -87.5v-608h-223v621z" />
<glyph unicode="&#xe02;" horiz-adv-x="1159" d="M580 -25q-100 0 -183.5 25t-143.5 75t-93 124.5t-33 177.5q0 117 31.5 185.5t72.5 123.5q37 51 62.5 104.5t25.5 108.5v39h-206v186h233q92 0 142.5 -44t50.5 -119v-15q0 -68 -23.5 -130t-71.5 -144q-37 -66 -58 -120t-21 -126v-59q0 -102 57 -155.5t153 -53.5 q102 0 156.5 62.5t54.5 172.5v731h224v-723q0 -199 -110.5 -312.5t-319.5 -113.5z" />
<glyph unicode="&#xe03;" horiz-adv-x="1226" d="M647 -25q-100 0 -183 25t-143.5 75t-93 124.5t-32.5 177.5q0 115 34.5 187.5t83.5 135.5q47 59 77 105.5t30 97.5q0 47 -26.5 70.5t-65.5 23.5q-59 0 -87 -39.5t-36 -117.5h-150v301h166v-146h10q23 72 73 113t128 41q84 0 135 -53.5t51 -143.5q0 -78 -29.5 -140 t-76.5 -142q-33 -55 -56.5 -108.5t-23.5 -131.5v-63q0 -102 57.5 -155.5t153.5 -53.5q102 0 156.5 62.5t54.5 172.5v731h223v-723q0 -199 -110.5 -312.5t-319.5 -113.5z" />
<glyph unicode="&#xe04;" horiz-adv-x="1331" d="M150 690q0 104 35.5 189.5t103 145.5t163 92t214.5 32t214 -32t162.5 -92t103.5 -145t36 -190v-690h-224v676q0 141 -77.5 216t-214.5 75t-215 -75t-78 -216v-258h10q12 41 34.5 80t57.5 68.5t84 48t115 18.5h61v-215h-86q-133 0 -204.5 -44t-71.5 -136v-238h-223v690z " />
<glyph unicode="&#xe05;" horiz-adv-x="1368" d="M150 840q0 147 72.5 228t205.5 81q94 0 161.5 -48t88.5 -140h12q20 92 88 140t162 48q133 0 206 -81t73 -228v-840h-220v821q0 72 -31.5 107t-84.5 35q-66 0 -93.5 -48.5t-35.5 -109.5h-140q-4 31 -12 59.5t-23.5 50t-38 35t-55.5 13.5q-53 0 -84.5 -35t-31.5 -107v-424 h10q12 41 35.5 79t58.5 67.5t84 48t115 18.5h59v-215h-86q-131 0 -203.5 -44t-72.5 -136v-215h-219v840z" />
<glyph unicode="&#xe06;" horiz-adv-x="1308" d="M782 -25q-72 0 -126 17.5t-93 47.5t-65.5 67.5t-40.5 78.5h-11v-186h-223v377q0 115 30 187.5t79 135.5q47 59 76.5 105.5t29.5 97.5q0 47 -26.5 70.5t-65.5 23.5q-59 0 -87 -39.5t-36 -117.5h-149v301h166v-146h10q23 72 73 113t128 41q84 0 135 -53.5t51 -143.5 q0 -78 -29.5 -140t-77.5 -142q-33 -55 -58.5 -108.5t-25.5 -131.5v-63q0 -51 23 -90t57.5 -65t79.5 -38t92 -12q129 0 183.5 73.5t54.5 200.5v688h223v-712q0 -211 -98.5 -324t-278.5 -113z" />
<glyph unicode="&#xe07;" horiz-adv-x="1120" d="M47 809h227l277 -629h6q106 0 163.5 77t57.5 218v176q0 137 -59.5 214t-163.5 77h-70v182h74q223 0 340 -147.5t117 -413.5t-120 -414.5t-335 -148.5h-158z" />
<glyph unicode="&#xe08;" horiz-adv-x="1169" d="M264 451h-119v182h164q102 0 135 -90l129 -369h66q86 0 137 82t51 227v176q0 145 -77.5 226.5t-219.5 81.5q-68 0 -124 -16.5t-99 -44t-75.5 -62.5t-55.5 -72l-141 125q31 51 76 96t107.5 80t142 55.5t180.5 20.5q248 0 386 -152.5t138 -425.5q0 -133 -30.5 -239.5 t-88 -180t-137.5 -112.5t-180 -39h-205z" />
<glyph unicode="&#xe09;" horiz-adv-x="1226" d="M518 -25q-174 0 -270 105.5t-96 302.5v129h223v-98q0 -117 51 -184.5t166 -67.5q41 0 84 12t76.5 38t55 64.5t21.5 90.5v331q0 129 -64.5 199t-211.5 70q-127 0 -208 -54.5t-132 -140.5l-145 127q68 111 185.5 180.5t313.5 69.5q236 0 361 -112.5t125 -323.5v-531h118 v-182h-147q-86 0 -129 50t-47 140h-10q-35 -94 -119 -154.5t-201 -60.5z" />
<glyph unicode="&#xe0a;" horiz-adv-x="1146" d="M580 -25q-102 0 -185.5 25t-142.5 74t-92 124.5t-33 178.5q0 117 31.5 185.5t72.5 123.5q39 51 63.5 104.5t24.5 108.5v39h-206v186h233q92 0 142.5 -44t50.5 -119v-15q0 -68 -23.5 -130t-71.5 -144q-37 -66 -58 -120t-21 -126v-59q0 -102 56 -155.5t154 -53.5t154.5 53 t56.5 156v157q0 94 -31.5 145.5t-103.5 51.5h-39v170h50q61 0 100 36t39 117v121h219v-104q0 -92 -54.5 -154.5t-154.5 -79.5v-12q104 -33 158.5 -128t54.5 -249q0 -215 -109.5 -339t-334.5 -124z" />
<glyph unicode="&#xe0b;" horiz-adv-x="1214" d="M647 -25q-102 0 -185 25t-142.5 74t-92 124.5t-32.5 178.5q0 115 34.5 187.5t83.5 135.5q47 59 77 105.5t30 97.5q0 47 -26.5 70.5t-65.5 23.5q-59 0 -87 -39.5t-36 -117.5h-150v301h166v-146h10q23 72 73 113t128 41q84 0 135 -53.5t51 -143.5q0 -78 -29.5 -140 t-76.5 -142q-33 -55 -56.5 -108.5t-23.5 -131.5v-63q0 -102 56.5 -155.5t154.5 -53.5t154.5 53t56.5 156v157q0 94 -31.5 145.5t-103.5 51.5h-39v170h49q61 0 100 36t39 117v121h219v-104q0 -92 -54 -154.5t-154 -79.5v-12q104 -33 158.5 -128t54.5 -249q0 -215 -110 -339 t-335 -124z" />
<glyph unicode="&#xe0c;" horiz-adv-x="1923" d="M1430 -25q-66 0 -116 17.5t-86 46.5t-60.5 67.5t-39.5 79.5h-10v-186h-223v662q0 147 -77 226t-216 79q-113 0 -196.5 -50.5t-112.5 -134.5l88 -34q57 -23 79.5 -52.5t22.5 -87.5v-426h119v-182h-115q-117 0 -172 59.5t-55 165.5v396l-176 73q6 100 48 184.5t110.5 144.5 t162 93t201.5 33q123 0 218.5 -33t161 -93t99 -144t33.5 -189v-323q0 -51 19.5 -90t52.5 -65t73 -38t80 -12q115 0 161 76.5t46 197.5v688h224v-712q0 -211 -89 -324t-255 -113z" />
<glyph unicode="&#xe0d;" horiz-adv-x="1882" d="M1298 -25q-207 0 -320.5 110t-113.5 300v277q0 147 -70.5 226t-205.5 79q-109 0 -189 -50.5t-108 -134.5l90 -34q57 -23 79.5 -52.5t22.5 -87.5v-426h119v-182h-113q-117 0 -173 59.5t-56 165.5v396l-176 73q8 100 48 184.5t106.5 144.5t156.5 93t195 33q121 0 214 -34 t155.5 -94t95 -144t32.5 -187v-301q0 -111 54.5 -171t156.5 -60q104 0 157.5 60.5t53.5 170.5v735h224v-739q0 -190 -114 -300t-321 -110zM1077 -492q-106 0 -159.5 50.5t-53.5 142.5v145h197v-161h672v-177h-656z" />
<glyph unicode="&#xe0e;" horiz-adv-x="1280" d="M225 -365q66 92 157 148.5t226 56.5q109 0 182.5 -44t106.5 -122h10v988q0 147 -76.5 226t-212.5 79q-113 0 -196.5 -50.5t-112.5 -134.5l88 -34q57 -23 80 -52.5t23 -87.5v-383q0 -106 -55.5 -165.5t-172.5 -59.5h-114v182h118v439l-176 73q6 100 48 184.5t111 144.5 t162 93t204 33q121 0 215 -33t158.5 -92t98 -144t33.5 -190v-1182h-188q-33 72 -99.5 123.5t-170.5 51.5q-102 0 -177 -51.5t-112 -123.5z" />
<glyph unicode="&#xe0f;" horiz-adv-x="1280" d="M279 -313h100q41 0 67.5 12t42 31.5t22.5 46t9 55.5h158q6 -53 32.5 -99t92.5 -46q47 0 75.5 30.5t28.5 94.5v850q0 147 -76.5 226t-212.5 79q-113 0 -196.5 -50.5t-112.5 -134.5l88 -34q57 -23 80 -52.5t23 -87.5v-383q0 -106 -55.5 -165.5t-172.5 -59.5h-114v182h118 v439l-176 73q6 100 48 184.5t111 144.5t162 93t204 33q121 0 215 -33t158.5 -92t98 -144t33.5 -190v-880q0 -143 -72.5 -222.5t-205.5 -79.5q-88 0 -156.5 42t-89.5 128h-12q-41 -170 -221 -170h-94v179z" />
<glyph unicode="&#xe10;" horiz-adv-x="1282" d="M264 451h-119v182h164q102 0 135 -90l129 -369h66q86 0 137 82t51 227v176q0 145 -77.5 226.5t-219.5 81.5q-68 0 -124 -16.5t-99 -44t-75.5 -62.5t-55.5 -72l-141 125q31 51 76 96t107.5 80t142 55.5t180.5 20.5q180 0 303 -82q14 117 141 117h279v-195h-332v-6 q66 -72 99.5 -175t33.5 -237q0 -133 -30.5 -239.5t-88 -180t-137.5 -112.5t-180 -39h-205zM145 -313h105q41 0 67.5 12t42 31.5t22.5 46t9 55.5h158q6 -53 32.5 -99t92.5 -46q47 0 75.5 30.5t28.5 94.5v84h223v-86q0 -143 -72.5 -222.5t-205.5 -79.5q-88 0 -156.5 42 t-89.5 128h-12q-41 -170 -221 -170h-99v179z" />
<glyph unicode="&#xe11;" horiz-adv-x="1325" d="M223 377q0 115 30 187.5t79 135.5q47 59 76.5 105.5t29.5 97.5q0 47 -26.5 70.5t-65.5 23.5q-59 0 -87 -39.5t-36 -117.5h-149v301h166v-146h10q23 72 72 113t127 41q66 0 104.5 -37t38.5 -100q0 -33 -12 -70l10 -4q37 51 69.5 91t67.5 66.5t75 40t91 13.5q135 0 209 -91 t74 -261v-797h-224v735q0 96 -26.5 162t-104.5 66q-43 0 -85 -31t-80 -76t-70.5 -96t-55.5 -90q-35 -55 -59.5 -107.5t-24.5 -130.5v-432h-223v377z" />
<glyph unicode="&#xe12;" horiz-adv-x="1964" d="M569 -25q-223 0 -344 153t-121 439q0 281 83 431.5t253 150.5q78 0 137.5 -49t75.5 -139h13q16 90 81.5 139t151.5 49q127 0 195.5 -80t68.5 -229v-473q0 -51 19.5 -90t50.5 -65t70.5 -38t80.5 -12q113 0 160 73.5t47 200.5v688h224v-712q0 -211 -90.5 -324t-256.5 -113 q-66 0 -114.5 17.5t-83.5 46.5t-58.5 67.5t-37.5 79.5h-11v-186h-223v834q0 66 -25.5 97.5t-72.5 31.5q-59 0 -85 -46.5t-34 -111.5h-137q-6 66 -27.5 112t-81.5 46q-74 0 -104.5 -81t-30.5 -214v-189q0 -147 60.5 -234t203.5 -87q47 0 86 8l27 -176q-31 -8 -73 -11.5 t-77 -3.5z" />
<glyph unicode="&#xe13;" horiz-adv-x="1931" d="M1210 -25q-166 0 -256 114t-90 323v250q0 147 -70.5 226t-205.5 79q-109 0 -189 -50.5t-108 -134.5l90 -34q57 -23 79.5 -52.5t22.5 -87.5v-426h119v-182h-113q-117 0 -173 59.5t-56 165.5v396l-176 73q8 100 48 184.5t106.5 144.5t156.5 93t195 33q121 0 214 -34 t155.5 -94t95 -144t32.5 -187v-254q0 -139 48.5 -206.5t158.5 -67.5q43 0 83 12t72 38t51.5 64.5t19.5 90.5v757h223v-942h119v-182h-148q-86 0 -128 50t-46 140h-12q-16 -43 -41 -81.5t-64 -68.5t-91 -47.5t-122 -17.5z" />
<glyph unicode="&#xe14;" horiz-adv-x="1304" d="M596 -25q-233 0 -362.5 157t-129.5 431q0 133 38 241.5t109 185.5t171 118t225 41q115 0 209 -34t160.5 -95.5t102.5 -148.5t36 -193v-678h-223v659q0 145 -78 226.5t-213 81.5q-141 0 -220 -88t-79 -240v-150q0 -162 70.5 -246.5t216.5 -84.5q45 0 84 8l26 -176 q-31 -8 -72.5 -11.5t-70.5 -3.5z" />
<glyph unicode="&#xe15;" horiz-adv-x="1359" d="M606 -25q-242 0 -372 153t-130 439q0 281 86 431.5t265 150.5q88 0 147.5 -50t75.5 -138h12q18 88 86 138t166 50q125 0 196.5 -81t71.5 -228v-840h-223v821q0 72 -28.5 107t-81.5 35q-66 0 -90.5 -48.5t-32.5 -109.5h-140q-4 31 -11 59.5t-21.5 50t-36 35t-53.5 13.5 q-84 0 -117 -81t-33 -214v-189q0 -74 16.5 -133t52 -101t92 -64.5t138.5 -22.5q20 0 43 2t45 6l25 -176q-33 -8 -73 -11.5t-75 -3.5z" />
<glyph unicode="&#xe16;" horiz-adv-x="1277" d="M489 0q-117 0 -173 59.5t-56 165.5v396l-176 73q8 100 50 184.5t112.5 144.5t165 93t204.5 33q244 0 378 -124t134 -335v-690h-223v662q0 147 -78.5 226t-218.5 79q-115 0 -199.5 -50.5t-115.5 -134.5l88 -34q57 -23 79.5 -52.5t22.5 -87.5v-426h119v-182h-113z" />
<glyph unicode="&#xe17;" horiz-adv-x="1245" d="M160 1124h223v-186h10q14 41 41 79t66 67.5t93 47t126 17.5q180 0 278.5 -112.5t98.5 -323.5v-713h-224v688q0 127 -54 197.5t-183 70.5q-47 0 -92 -11t-80 -35.5t-57.5 -62.5t-22.5 -89v-758h-223v1124z" />
<glyph unicode="&#xe18;" horiz-adv-x="1134" d="M133 418h203v-244h485v197q0 47 -8 80.5t-32.5 57t-68.5 37t-114 19.5l-485 41v142q0 193 124.5 297t354.5 104q156 0 262.5 -45t177.5 -121l-121 -139q-47 53 -130 90t-201 37q-123 0 -190.5 -50.5t-67.5 -146.5v-14l311 -29q197 -16 301 -90t104 -250v-166 q0 -106 -55 -165.5t-172 -59.5h-678v418z" />
<glyph unicode="&#xe19;" horiz-adv-x="1263" d="M518 -25q-176 0 -272 114t-96 323v712h223v-688q0 -131 54 -199.5t175 -68.5q45 0 90 11t81 36t57.5 62.5t21.5 89.5v757h223v-942h119v-182h-147q-86 0 -129.5 50t-47.5 140h-10q-35 -94 -120 -154.5t-222 -60.5z" />
<glyph unicode="&#xe1a;" horiz-adv-x="1265" d="M633 -25q-113 0 -202 32t-151.5 90.5t-96 141.5t-33.5 185v700h223v-684q0 -135 68.5 -208.5t191.5 -73.5t191.5 73.5t68.5 208.5v684h223v-700q0 -102 -33.5 -185t-96 -141.5t-151.5 -90.5t-202 -32z" />
<glyph unicode="&#xe1b;" horiz-adv-x="1265" d="M633 -25q-113 0 -202 32t-151.5 90.5t-96 141.5t-33.5 185v700h223v-684q0 -135 68.5 -208.5t191.5 -73.5t191.5 73.5t68.5 208.5v1061h223v-1077q0 -102 -33.5 -185t-96 -141.5t-151.5 -90.5t-202 -32z" />
<glyph unicode="&#xe1c;" horiz-adv-x="1411" d="M436 -25q-94 0 -157.5 40t-102.5 115t-55.5 183.5t-16.5 245.5q0 274 110 419.5t312 145.5h60v-186h-41q-203 0 -203 -274v-234q0 -61 5 -111.5t20.5 -85t42 -54t67.5 -19.5q119 0 119 172v194h199v-194q0 -86 34.5 -129t92.5 -43q55 0 85.5 38t30.5 107v819h224v-841 q0 -141 -74 -224.5t-205 -83.5q-129 0 -198.5 64.5t-82.5 159.5h-12q-12 -94 -77.5 -159t-176.5 -65z" />
<glyph unicode="&#xe1d;" horiz-adv-x="1411" d="M436 -25q-94 0 -157.5 40t-102.5 115t-55.5 183.5t-16.5 245.5q0 274 110 419.5t312 145.5h60v-186h-41q-203 0 -203 -274v-234q0 -61 5 -111.5t20.5 -85t42 -54t67.5 -19.5q119 0 119 172v194h199v-194q0 -86 34.5 -129t92.5 -43q55 0 85.5 38t30.5 107v1196h224v-1218 q0 -141 -74 -224.5t-205 -83.5q-129 0 -198.5 64.5t-82.5 159.5h-12q-12 -94 -77.5 -159t-176.5 -65z" />
<glyph unicode="&#xe1e;" horiz-adv-x="1497" d="M121 1124h211l67 -555l25 -315h12l78 315l152 555h170l151 -555l78 -315h12l25 315l67 555h207l-159 -1124h-238l-166 639l-59 248h-11l-59 -248l-166 -639h-237z" />
<glyph unicode="&#xe1f;" horiz-adv-x="1497" d="M121 1124h211l67 -555l25 -315h12l78 315l152 555h170l151 -555l78 -315h12l25 315l108 932h217l-210 -1501h-238l-166 639l-59 248h-11l-59 -248l-166 -639h-237z" />
<glyph unicode="&#xe20;" horiz-adv-x="1280" d="M158 182h118v439l-176 73q6 100 48 184.5t111 144.5t162 93t204 33q121 0 215 -33t158.5 -92t98 -144t33.5 -190v-690h-223v662q0 147 -76.5 226t-212.5 79q-113 0 -196.5 -50.5t-112.5 -134.5l88 -34q57 -23 80 -52.5t23 -87.5v-383q0 -106 -55.5 -165.5t-172.5 -59.5 h-114v182z" />
<glyph unicode="&#xe21;" horiz-adv-x="1245" d="M721 -25q-72 0 -126 17.5t-93 47.5t-65.5 67.5t-41.5 78.5h-10v-186h-223v1124h223v-757q0 -51 22.5 -89t57.5 -63t80 -36t92 -11q129 0 183 70.5t54 197.5v688h224v-712q0 -211 -98.5 -324t-278.5 -113z" />
<glyph unicode="&#xe22;" horiz-adv-x="1230" d="M575 -25q-213 0 -331.5 88.5t-118.5 247.5q0 98 58.5 168t150.5 96v11q-102 25 -159.5 96.5t-57.5 175.5q0 131 85 211t232 80q45 0 97.5 -8t95.5 -31l-47 -164q-47 23 -105 23q-72 0 -114 -39t-42 -105q0 -31 8.5 -58.5t29 -49t55 -33.5t88.5 -12h112v-152h-96 q-68 0 -117 -39t-49 -108v-47q0 -82 53.5 -125t176.5 -43q129 0 203.5 68.5t74.5 197.5v700h223v-731q0 -96 -35.5 -173t-102 -131t-160 -84t-208.5 -30z" />
<glyph unicode="&#xe23;" horiz-adv-x="1110" d="M561 -25q-158 0 -267.5 54.5t-191.5 152.5l142 133q61 -78 143 -118.5t186 -40.5q111 0 165.5 40t54.5 113q0 66 -42 101.5t-133 48.5l-104 14q-76 10 -143.5 32.5t-117.5 61.5t-80 96.5t-30 141.5q0 82 31 146.5t86 108.5t132 66.5t169 22.5q154 0 252 -46t174 -128 l-135 -135q-47 53 -121 90t-170 37q-100 0 -151.5 -39t-51.5 -107q0 -72 47.5 -106.5t139.5 -46.5l104 -17q80 -12 146.5 -34.5t113.5 -60.5t73 -93t26 -133q0 -80 -32 -145.5t-90.5 -111.5t-141.5 -72t-183 -26z" />
<glyph unicode="&#xe24;" horiz-adv-x="1267" d="M895 662q0 147 -77 226t-216 79q-115 0 -197.5 -50.5t-111.5 -134.5l88 -34q57 -23 79.5 -52.5t22.5 -87.5v-426h119v-182h-113q-117 0 -173 59.5t-56 165.5v396l-176 73q8 100 49 184.5t110.5 144.5t162 93t200.5 33q123 0 218.5 -33t161 -93t99 -144t33.5 -189v-1077 h-223v1049z" />
<glyph unicode="&#xe25;" horiz-adv-x="1204" d="M483 -20q-166 0 -265 81.5t-99 247.5q0 158 95 244t269 86h348v86q0 119 -64.5 180.5t-199.5 61.5q-121 0 -197.5 -51.5t-125.5 -129.5l-144 125q66 104 179.5 171t302.5 67q231 0 352 -107.5t121 -308.5v-733h-224v489h-280q-98 0 -150.5 -40.5t-52.5 -118.5v-41 q0 -78 47 -123t129 -45q41 0 66 6l18 -135q-18 -4 -57 -8t-68 -4z" />
<glyph unicode="&#xe26;" horiz-adv-x="1263" d="M891 662q0 147 -73 226t-208 79q-111 0 -192.5 -50.5t-110.5 -134.5l90 -34q57 -23 80 -52.5t23 -87.5v-383q0 -106 -55.5 -165.5t-172.5 -59.5h-114v182h118v439l-176 73q8 100 49 184.5t108 144.5t157 93t196 33q123 0 216.5 -33t158 -93t97 -145t32.5 -188v-1077h-223 v1049z" />
<glyph unicode="&#xe27;" horiz-adv-x="1091" d="M504 -25q-86 0 -164 20.5t-137 61.5l84 160q41 -25 91 -42t116 -17q123 0 189.5 83t66.5 228v186q0 143 -64.5 227.5t-189.5 84.5q-100 0 -164 -46.5t-92 -123.5l-183 86q51 123 164 194.5t283 71.5q117 0 207 -41t151.5 -117t93 -184.5t31.5 -243.5t-32.5 -244.5 t-94 -185.5t-151.5 -117t-205 -41z" />
<glyph unicode="&#xe28;" horiz-adv-x="1415" d="M150 690q0 104 35.5 189.5t103 145.5t163 92t214.5 32q199 0 327 -86q12 121 140 121h278v-195h-332v-6q102 -115 103 -293v-690h-224v676q0 141 -77.5 216t-214.5 75t-215 -75t-78 -216v-258h10q12 41 34.5 80t57.5 68.5t84 48t115 18.5h61v-215h-86q-133 0 -204.5 -44 t-71.5 -136v-238h-223v690z" />
<glyph unicode="&#xe29;" horiz-adv-x="1353" d="M647 -25q-115 0 -207 32t-156.5 90.5t-99 140t-34.5 184.5v702h223v-684q0 -133 72.5 -207.5t201.5 -74.5t202 74.5t73 207.5v72h-177q-193 0 -192 164v117h195v-119h174v450h223v-450h141v-162h-141v-90q0 -102 -35 -184t-99.5 -140.5t-156.5 -90.5t-207 -32z" />
<glyph unicode="&#xe2a;" horiz-adv-x="1286" d="M483 -20q-166 0 -265 81.5t-99 247.5q0 158 95 244t269 86h348v86q0 119 -64.5 180.5t-199.5 61.5q-121 0 -197.5 -51.5t-125.5 -129.5l-144 125q66 104 179.5 171t302.5 67q195 0 309 -76q18 111 139 111h252v-195h-305v-4q78 -100 78 -252v-733h-224v489h-280 q-98 0 -150.5 -40.5t-52.5 -118.5v-41q0 -78 47 -123t129 -45q41 0 66 6l18 -135q-18 -4 -57 -8t-68 -4z" />
<glyph unicode="&#xe2b;" horiz-adv-x="1236" d="M160 1124h223v-340l287 41q78 12 122 46t54 118l14 135h232l-17 -141q-10 -96 -72.5 -158.5t-166.5 -74.5v-11q61 -12 104 -44.5t70.5 -78t42 -100.5t20.5 -113l39 -403h-231l-35 420q-6 51 -21.5 94t-44 72.5t-71.5 43t-103 5.5l-223 -31v-604h-223v1124z" />
<glyph unicode="&#xe2c;" horiz-adv-x="1359" d="M160 1124h223v-551l-12 -323h10l237 289h117l236 -289h10l-10 323v267q0 57 -26.5 85.5t-92.5 28.5h-86v170h108q53 0 86 25t33 92v154h224v-127q0 -170 -179 -201v-12q84 -25 120 -81t36 -145v-829h-217l-299 360l-301 -360h-217v1124z" />
<glyph unicode="&#xe2d;" horiz-adv-x="1230" d="M600 -25q-102 0 -191.5 30t-154 82t-101 126t-36.5 164v102q0 72 32.5 112t118.5 40h230v-176h-170v-62q0 -123 76.5 -179t205.5 -56q133 0 206 82t73 231v176q0 152 -81 236t-228 84q-123 0 -210 -51.5t-132 -122.5l-140 125q59 98 182 164.5t310 66.5q254 0 395 -154.5 t141 -431.5q0 -135 -34.5 -244.5t-102 -185.5t-166 -117t-223.5 -41z" />
<glyph unicode="&#xe2e;" horiz-adv-x="1316" d="M600 -25q-102 0 -191.5 30t-154 82t-101 126t-36.5 164v102q0 72 32.5 112t118.5 40h230v-176h-170v-62q0 -123 76.5 -179t205.5 -56q133 0 206 82t73 231v176q0 152 -81 236t-228 84q-123 0 -210 -51.5t-132 -122.5l-140 125q59 98 182 164.5t310 66.5q182 0 309 -82 q14 117 141 117h285v-195h-338v-6q68 -72 103.5 -178.5t35.5 -241.5t-34.5 -244.5t-102 -185.5t-166 -117t-223.5 -41z" />
<glyph unicode="&#xe2f;" horiz-adv-x="1130" d="M748 860h-11q-12 -39 -36.5 -74.5t-63.5 -64.5t-94.5 -46.5t-130.5 -17.5q-158 0 -248 89.5t-90 263.5v114h223v-84q0 -197 190 -196h33q47 0 88 11t72 34.5t49.5 61.5t18.5 91v82h223v-1124h-223v860z" />
<glyph unicode="&#xe30;" horiz-adv-x="845" d="M367 186q-106 0 -159.5 51.5t-53.5 143.5v104h200v-112h342v-187h-329zM367 702q-106 0 -159.5 50.5t-53.5 142.5v106h200v-112h342v-187h-329z" />
<glyph unicode="&#xe31;" horiz-adv-x="0" d="M-219 1325q-106 0 -159.5 51t-53.5 144v143h196v-162h533v-176h-516z" />
<glyph unicode="&#xe32;" horiz-adv-x="1021" d="M649 762q0 98 -51 151.5t-162 53.5q-94 0 -151.5 -40t-98.5 -104l-135 119q55 92 149.5 149.5t250.5 57.5q205 0 313 -96.5t108 -276.5v-776h-223v762z" />
<glyph unicode="&#xe33;" horiz-adv-x="1021" d="M649 762q0 98 -51 151.5t-162 53.5q-94 0 -151.5 -40t-98.5 -104l-135 119q55 92 149.5 149.5t250.5 57.5q205 0 313 -96.5t108 -276.5v-776h-223v762zM-310 1391q43 0 69 23.5t26 64.5v32q0 41 -26 64.5t-69 23.5t-68.5 -23.5t-25.5 -64.5v-32q0 -41 25.5 -64.5 t68.5 -23.5zM-310 1255q-115 0 -182 68t-67 172t67.5 172t181.5 68q115 0 182.5 -68t67.5 -172t-67.5 -172t-182.5 -68z" />
<glyph unicode="&#xe34;" horiz-adv-x="0" d="M-883 1501h883v-176h-883v176z" />
<glyph unicode="&#xe35;" horiz-adv-x="0" d="M-883 1501h674v162h209v-338h-883v176z" />
<glyph unicode="&#xe36;" horiz-adv-x="0" d="M-883 1501h545q-2 12 -2 18.5v16.5q0 96 61.5 151.5t163.5 55.5t164 -55.5t62 -151.5q0 -98 -61.5 -154.5t-164.5 -56.5h-768v176zM-115 1440q45 0 70 22.5t25 61.5v20q0 39 -25 61.5t-70 22.5q-43 0 -67.5 -22.5t-24.5 -61.5v-20q0 -39 24.5 -61.5t67.5 -22.5z" />
<glyph unicode="&#xe37;" horiz-adv-x="0" d="M-883 1501h363v162h184v-178h152v178h184v-338h-883v176z" />
<glyph unicode="&#xe38;" horiz-adv-x="0" d="M-195 -381h-139v158h187q78 0 112.5 -37t34.5 -100v-351h-195v330z" />
<glyph unicode="&#xe39;" horiz-adv-x="0" d="M-307 -723q-152 0 -222.5 70.5t-70.5 181.5v90h-133v158h166q78 0 112.5 -33t34.5 -88v-88q0 -66 26.5 -100.5t86.5 -34.5q59 0 85.5 34.5t26.5 100.5v209h195v-213q0 -125 -74.5 -206t-232.5 -81z" />
<glyph unicode="&#xe3a;" horiz-adv-x="0" d="M-117 -469q-76 0 -106.5 33t-30.5 82v39q0 49 30.5 81.5t106.5 32.5t106.5 -32.5t30.5 -81.5v-39q0 -49 -30.5 -82t-106.5 -33z" />
<glyph unicode="&#xe3f;" horiz-adv-x="1333" d="M571 43h-395v1343h395v211h181v-211h63q170 0 265.5 -93t95.5 -253q0 -135 -67 -201.5t-179 -84.5v-11q59 -6 113.5 -25.5t95.5 -57t65.5 -95t24.5 -137.5q0 -82 -26.5 -152.5t-75 -122t-114 -81t-143.5 -29.5h-118v-221h-181v221zM819 221q92 0 145.5 46t53.5 130v74 q0 86 -53.5 132t-145.5 46h-78v-428h78zM786 807q88 0 132.5 43t44.5 123v69q0 78 -44.5 122t-132.5 44h-45v-401h45zM584 221v428h-203v-428h203zM584 807v401h-203v-401h203z" />
<glyph unicode="&#xe40;" horiz-adv-x="655" d="M436 0q-117 0 -172 59.5t-55 165.5v899h223v-942h160v-182h-156z" />
<glyph unicode="&#xe41;" horiz-adv-x="1204" d="M985 0q-117 0 -172 59.5t-55 165.5v899h223v-942h160v-182h-156zM436 0q-117 0 -172 59.5t-55 165.5v899h223v-942h160v-182h-156z" />
<glyph unicode="&#xe42;" horiz-adv-x="655" d="M438 0q-117 0 -173 59.5t-56 165.5v1057l-262 111v45q0 88 29.5 160.5t85 123t132 78t171.5 27.5q135 0 222 -41t146 -113l-135 -127q-33 41 -87 71t-136 30q-92 0 -160 -39t-76 -123l193 -78q57 -23 78.5 -53.5t21.5 -93.5v-1078h160v-182h-154z" />
<glyph unicode="&#xe43;" horiz-adv-x="655" d="M438 0q-117 0 -173 59.5t-56 165.5v830q0 49 14.5 88t37 70.5t50 59l54.5 54.5q39 37 66.5 78t27.5 96q0 72 -42 109t-110 37q-76 0 -124 -44t-72 -128l-168 94q41 113 133 185.5t254 72.5q160 0 252 -83t92 -218q0 -90 -40 -149.5t-87 -110.5q-43 -47 -79 -94.5 t-36 -108.5v-881h160v-182h-154z" />
<glyph unicode="&#xe44;" horiz-adv-x="655" d="M438 0q-117 0 -173 59.5t-56 165.5v1114q0 61 16.5 108.5t43 81.5t62.5 56.5t75 34.5v8h-445v178h684v-178h-24q-90 0 -139.5 -52t-49.5 -149v-1245h160v-182h-154z" />
<glyph unicode="&#xe45;" horiz-adv-x="1021" d="M649 762q0 98 -51 151.5t-162 53.5q-94 0 -151.5 -40t-98.5 -104l-135 119q55 92 149.5 149.5t250.5 57.5q205 0 313 -96.5t108 -276.5v-1163h-223v1149z" />
<glyph unicode="&#xe46;" horiz-adv-x="1191" d="M809 842q0 57 -20.5 89t-69.5 32q-47 0 -69.5 -43t-26.5 -111h-142q-4 68 -24.5 111t-65.5 43q-51 0 -70.5 -34t-19.5 -85v-88q0 -59 27.5 -99.5t99.5 -40.5q16 0 27.5 1t27.5 6l19 -158q-25 -6 -52.5 -9t-50.5 -3q-147 0 -231 93t-84 271q0 160 60.5 246t193.5 86 q86 0 138 -45t67 -123h14q16 78 75.5 123t147.5 45q125 0 188.5 -80t63.5 -217v-1239h-223v1229z" />
<glyph unicode="&#xe47;" horiz-adv-x="0" d="M-618 1305q-98 0 -160 66.5t-62 178.5q0 121 74 196t205 75h561v-148h-563q-49 0 -77 -31.5t-28 -85.5q0 -109 93 -108q27 0 43 12.5t26 30.5t15.5 39.5t5.5 40.5h131q0 -18 5 -40t15 -40t26.5 -30.5t43.5 -12.5q92 0 92 108v46h172v-70q0 -109 -57.5 -168t-161.5 -59 q-68 0 -121 32.5t-74 104.5h-10q-20 -72 -73 -104.5t-121 -32.5z" />
<glyph unicode="&#xe48;" horiz-adv-x="0" d="M-215 1722h209v-397h-209v397z" />
<glyph unicode="&#xe49;" horiz-adv-x="0" d="M-369 1501h146v72q0 45 -19.5 64.5t-70.5 19.5h-56v160h138q98 0 148 -42t50 -114q0 -43 -23.5 -85t-70.5 -65v-10h369v-160h-611v160z" />
<glyph unicode="&#xe4a;" horiz-adv-x="0" d="M-778 1530q0 92 49 147.5t143 55.5q68 0 117 -34t63 -102h13q14 68 63 102t117 34q94 0 143.5 -55.5t49.5 -147.5v-29h153v-160h-330v162q0 78 -67 78q-31 0 -50.5 -19.5t-19.5 -66.5v-49h-131v49q0 47 -19.5 66.5t-50.5 19.5q-68 0 -67 -78v-162h-176v189z" />
<glyph unicode="&#xe4b;" horiz-adv-x="0" d="M-190 1499h-175v164h175v174h174v-174h174v-164h-174v-174h-174v174z" />
<glyph unicode="&#xe4c;" horiz-adv-x="0" d="M-420 1470q0 92 53.5 142.5t159.5 50.5h416v-176h-432v-162h-197v145z" />
<glyph unicode="&#xe4d;" horiz-adv-x="0" d="M-113 1391q43 0 69 23.5t26 64.5v32q0 41 -26 64.5t-69 23.5t-68.5 -23.5t-25.5 -64.5v-32q0 -41 25.5 -64.5t68.5 -23.5zM-113 1255q-115 0 -182 68t-67 172t67.5 172t181.5 68q115 0 182.5 -68t67.5 -172t-67.5 -172t-182.5 -68z" />
<glyph unicode="&#xe4e;" horiz-adv-x="0" d="M-104 1319q-111 0 -166.5 43t-55.5 117q0 61 50.5 111t166.5 55v6q-78 16 -113.5 53t-35.5 88q0 66 56.5 113t164.5 47q51 0 92 -9.5t68 -25.5l-43 -121q-18 10 -43 18.5t-49 8.5q-45 0 -68.5 -17.5t-23.5 -46.5q0 -35 25.5 -52t66.5 -17h45v-105h-88q-109 0 -109 -72 q0 -66 109 -65h55v-129h-104z" />
<glyph unicode="&#xe4f;" horiz-adv-x="1335" d="M668 406q-82 0 -119 38.5t-37 98.5v39q0 59 37 98t119 39t118.5 -39t36.5 -98v-39q0 -59 -36.5 -98t-118.5 -39zM668 160q156 0 244.5 83t88.5 244v150q0 162 -89 245t-244 83q-156 0 -245 -83t-89 -245v-150q0 -162 89 -244.5t245 -82.5zM668 -25q-127 0 -230.5 41 t-175.5 117t-110.5 185.5t-38.5 244.5t38.5 243.5t110.5 184.5t175.5 117t230.5 41t229 -41t175 -117t112 -184.5t39 -243.5t-39 -244.5t-112 -185.5t-175 -117t-229 -41z" />
<glyph unicode="&#xe50;" horiz-adv-x="1216" d="M608 160q123 0 194.5 66.5t71.5 195.5v180q0 129 -71.5 195.5t-194.5 66.5t-194.5 -66.5t-71.5 -195.5v-180q0 -129 71.5 -195.5t194.5 -66.5zM608 -25q-115 0 -208 37t-158.5 106.5t-101.5 169t-36 224.5t36 224.5t101.5 169t159 106.5t207.5 37q115 0 208 -37 t158.5 -106.5t101.5 -169t36 -224.5t-36 -224.5t-101.5 -169t-158.5 -106.5t-208 -37z" />
<glyph unicode="&#xe51;" horiz-adv-x="1144" d="M348 96q225 8 340 95.5t115 283.5v92q0 143 -70.5 221t-191.5 78q-106 0 -170 -50t-64 -136v-33q0 -66 33 -112t117 -46q23 0 38 1.5t33 5.5l17 -170q-23 -8 -56.5 -11.5t-60.5 -3.5q-162 0 -254 88t-92 256q0 90 34 163t94 124t145 79t188 28q231 0 364 -137.5 t133 -389.5q0 -152 -47 -263.5t-134 -187t-211 -114.5t-277 -43z" />
<glyph unicode="&#xe52;" horiz-adv-x="1619" d="M815 -25q-225 0 -356 43t-198.5 109t-87 146.5t-19.5 156.5v797h223v-789q0 -137 76 -207q39 -35 101 -54t167 -19h188q104 0 167 19.5t102 53.5q76 68 75 207v310q0 51 -19.5 84.5t-64.5 33.5q-47 0 -67.5 -45t-24.5 -112h-143q-4 68 -24.5 112.5t-67.5 44.5 q-45 0 -64.5 -33.5t-19.5 -84.5v-93q0 -55 26.5 -94t96.5 -39q27 0 55 6l18 -145q-25 -6 -56.5 -9t-59.5 -3q-156 0 -225.5 90t-69.5 252q0 156 59.5 246t188.5 90q86 0 141 -45.5t72 -122.5h14q16 78 71.5 123t141.5 45q125 0 185.5 -79t60.5 -212v-328q0 -51 -7.5 -104.5 t-31 -103.5t-67.5 -95t-117.5 -79t-181 -53.5t-257.5 -19.5z" />
<glyph unicode="&#xe53;" horiz-adv-x="1497" d="M569 -25q-223 0 -344 147.5t-121 416.5q0 244 92.5 377t278.5 133q57 0 102.5 -15.5t77 -40t50 -54.5t26.5 -58h14q8 29 28 58.5t53.5 54t82.5 40t117 15.5q160 0 241 -91.5t81 -257.5v-700h-224v682q0 84 -33.5 133t-109.5 49q-72 0 -107.5 -49t-35.5 -121v-321h-209 v321q0 72 -30 121t-101 49q-80 0 -118 -69.5t-38 -196.5v-123q0 -145 60.5 -231t203.5 -86q47 0 86 8l27 -176q-31 -8 -73 -11.5t-77 -3.5z" />
<glyph unicode="&#xe54;" horiz-adv-x="1138" d="M631 0q-256 0 -391.5 127t-135.5 369q0 119 35 199.5t90.5 132t122 80t129.5 46.5l226 62q45 14 69.5 27.5t30.5 54.5l18 129h209l-22 -168q-4 -35 -14.5 -62.5t-34 -50t-64.5 -41t-106 -37.5l-226 -61q-115 -31 -170 -91.5t-55 -176.5v-103q0 -117 67.5 -185.5 t221.5 -68.5h243v11q-45 10 -87 30.5t-74.5 52t-52 77.5t-19.5 108v24q0 76 56.5 120t172.5 44h156v-182h-160v-59q0 -41 13.5 -81t38 -73t60.5 -52.5t83 -19.5v-182h-430z" />
<glyph unicode="&#xe55;" horiz-adv-x="1138" d="M631 0q-256 0 -391.5 127t-135.5 369q0 88 20.5 154.5t55.5 115.5t80 81t96 54q-41 23 -65.5 61.5t-24.5 90.5q0 98 61.5 153.5t166.5 55.5q100 0 159.5 -51.5t59.5 -135.5q0 -35 -13 -65l23 6q41 10 61.5 25.5t26.5 56.5l18 129h205l-22 -168q-4 -35 -14.5 -62.5 t-34 -50t-64.5 -41t-106 -37.5l-226 -61q-115 -31 -170 -91.5t-55 -176.5v-103q0 -117 67.5 -185.5t221.5 -68.5h243v11q-45 10 -87 30.5t-74.5 52t-52 77.5t-19.5 108v24q0 76 56.5 120t172.5 44h156v-182h-160v-59q0 -41 13.5 -81t38 -73t60.5 -52.5t83 -19.5v-182h-430z M494 954q94 0 94 86v21q0 86 -94 86t-95 -86v-21q1 -86 95 -86z" />
<glyph unicode="&#xe56;" horiz-adv-x="1157" d="M549 -25q-160 0 -269.5 71t-164.5 206l170 88q35 -84 96 -133t160 -49q127 0 200.5 69.5t73.5 200.5v180q0 125 -66.5 191.5t-177.5 66.5t-172 -56t-90 -146l-186 12l-94 551h213l55 -410h12q31 111 116 171.5t210 60.5q94 0 172 -37t132 -105.5t84 -167t30 -221.5 q0 -127 -36 -227.5t-101.5 -170t-158.5 -107.5t-208 -38z" />
<glyph unicode="&#xe57;" horiz-adv-x="1734" d="M537 -25q-209 0 -321 147.5t-112 416.5q0 250 74 380t228 130q90 0 146 -45.5t73 -122.5h12q16 78 72.5 123t156.5 45q131 0 197.5 -84t66.5 -240v-561h50q90 0 136 67.5t46 194.5v801h223v-826q0 -186 -104.5 -293.5t-300.5 -107.5h-273v727q0 63 -23.5 100t-74.5 37 q-59 0 -84 -44t-29 -111h-141q-4 68 -26.5 111.5t-75.5 43.5q-59 0 -85 -60.5t-26 -189.5v-145q0 -145 54.5 -228t176.5 -83q45 0 86 8l27 -174q-33 -8 -73.5 -12.5t-75.5 -4.5z" />
<glyph unicode="&#xe58;" horiz-adv-x="1259" d="M416 -25q-72 0 -131.5 26t-101.5 82t-64.5 145t-22.5 218q0 135 32 226.5t85 150t121.5 89t140.5 42.5l359 62q47 10 71.5 25.5t28.5 56.5l18 129h209l-22 -168q-6 -41 -17.5 -72t-36 -53.5t-64.5 -38.5t-101 -27l-359 -61q-111 -18 -169 -89t-58 -220v-119 q0 -127 31.5 -173t93.5 -46q59 0 80.5 47t21.5 133v53h166v-53q0 -86 28.5 -133t94.5 -47q59 0 89 32.5t30 92.5v90q0 100 -90 100h-18.5t-29.5 -4l-16 152q23 6 50.5 10t49.5 4q57 0 106.5 -18.5t85.5 -56.5t56.5 -95t20.5 -135q0 -180 -82 -268.5t-217 -88.5 q-106 0 -163.5 46.5t-74.5 125.5h-12q-16 -80 -67.5 -126t-151.5 -46z" />
<glyph unicode="&#xe59;" horiz-adv-x="1382" d="M496 -25q-391 0 -392 572q0 242 93.5 372t267.5 130q123 0 206 -73t124 -204l10 2q-8 41 -8 78q0 96 52 146.5t124 50.5q98 0 140 -64.5t42 -167.5h8l54 410h213l-91 -545l-186 -14q0 90 -42 143t-114 53q-47 0 -83.5 -35.5t-36.5 -109.5q0 -51 20 -115l188 -604h-237 l-203 668q-29 98 -67.5 147t-104.5 49q-68 0 -100.5 -58t-32.5 -157v-229q0 -113 44 -187.5t140 -74.5q29 0 64 6l10 -180q-16 -4 -45.5 -6.5t-56.5 -2.5z" />
<glyph unicode="&#xe5a;" horiz-adv-x="1576" d="M1194 1124h223v-1124h-223v1124zM748 860h-11q-12 -39 -36.5 -74.5t-63.5 -64.5t-94.5 -46.5t-130.5 -17.5q-158 0 -248 89.5t-90 263.5v114h223v-84q0 -197 190 -196h33q47 0 88 11t72 34.5t49.5 61.5t18.5 91v82h223v-1124h-223v860z" />
<glyph unicode="&#xe5b;" horiz-adv-x="2928" d="M666 -25q-258 0 -406.5 147.5t-148.5 440.5q0 143 37.5 253t105.5 183.5t163 111.5t210 38q141 0 234 -43t145 -107l-123 -139q-39 43 -96.5 75t-145.5 32q-129 0 -211 -83t-82 -239v-164q0 -158 86 -240.5t240 -82.5q111 0 200 41t156.5 140t111.5 264t66 411h224 l184 -578h4l156 494h176l135 -428h4l119 372h176q12 -68 32.5 -123t54.5 -95t84 -61.5t124 -21.5h137v-188h-143q-139 0 -220 55.5t-143 188.5h-6l-131 -414h-176l-135 426h-4l-156 -491h-176l-180 573h-5q-35 -213 -98 -356.5t-151 -230.5t-196.5 -124t-231.5 -37z" />
<glyph unicode="&#x1e9e;" horiz-adv-x="1460" d="M1374 420q0 -100 -31.5 -182t-92 -140.5t-145.5 -90.5t-190 -32q-270 0 -407 179l151 143q49 -61 110.5 -95t145.5 -34q104 0 162 59.5t58 153.5v65q0 94 -58.5 150.5t-179.5 56.5h-195v193l332 385h-626v-1231h-232v1430h1090v-218l-322 -374v-9q88 -2 167 -28.5 t137.5 -77.5t92 -127t33.5 -176z" />
<glyph unicode="&#x2000;" horiz-adv-x="1119" />
<glyph unicode="&#x2001;" horiz-adv-x="2238" />
<glyph unicode="&#x2002;" horiz-adv-x="1119" />
<glyph unicode="&#x2003;" horiz-adv-x="2238" />
<glyph unicode="&#x2004;" horiz-adv-x="746" />
<glyph unicode="&#x2005;" horiz-adv-x="559" />
<glyph unicode="&#x2006;" horiz-adv-x="373" />
<glyph unicode="&#x2007;" horiz-adv-x="373" />
<glyph unicode="&#x2008;" horiz-adv-x="279" />
<glyph unicode="&#x2009;" horiz-adv-x="447" />
<glyph unicode="&#x200a;" horiz-adv-x="124" />
<glyph unicode="&#x200b;" horiz-adv-x="0" />
<glyph unicode="&#x200c;" horiz-adv-x="0" />
<glyph unicode="&#x200d;" horiz-adv-x="0" />
<glyph unicode="&#x2010;" horiz-adv-x="821" d="M127 510v227h567v-227h-567z" />
<glyph unicode="&#x2011;" horiz-adv-x="821" d="M127 510v227h567v-227h-567z" />
<glyph unicode="&#x2012;" horiz-adv-x="821" d="M127 510v227h567v-227h-567z" />
<glyph unicode="&#x2013;" horiz-adv-x="1204" d="M74 526v193h1056v-193h-1056z" />
<glyph unicode="&#x2014;" horiz-adv-x="1597" d="M74 526v193h1450v-193h-1450z" />
<glyph unicode="&#x2018;" horiz-adv-x="581" d="M285 961q-76 0 -112 36.5t-36 94.5v34q0 49 15.5 102.5t42 104.5t63.5 98.5t82 84.5h158q-63 -63 -105.5 -124t-62.5 -135q53 -10 77.5 -45.5t24.5 -83.5v-36q0 -57 -35.5 -94t-111.5 -37z" />
<glyph unicode="&#x2019;" horiz-adv-x="581" d="M297 1536q78 0 112.5 -37t34.5 -96v-35q0 -49 -14 -101.5t-41 -103.5t-63.5 -98t-81.5 -84h-160q66 63 106.5 124.5t63.5 133.5q-53 10 -78.5 45t-25.5 82v37q0 59 34.5 96t112.5 37z" />
<glyph unicode="&#x201a;" horiz-adv-x="585" d="M287 317q78 0 112.5 -36.5t34.5 -96.5v-34q0 -49 -14 -101.5t-41 -103.5t-63.5 -98.5t-82.5 -84.5h-159q66 63 106.5 125t63.5 133q-53 10 -79 45t-26 82v37q0 59 35 96t113 37z" />
<glyph unicode="&#x201c;" horiz-adv-x="1026" d="M285 961q-76 0 -112 36.5t-36 94.5v34q0 49 15.5 102.5t42 104.5t63.5 98.5t82 84.5h158q-63 -63 -105.5 -124t-62.5 -135q53 -10 77.5 -45.5t24.5 -83.5v-36q0 -57 -35.5 -94t-111.5 -37zM729 961q-76 0 -112 36.5t-36 94.5v34q0 49 15.5 102.5t42 104.5t63.5 98.5 t82 84.5h158q-63 -63 -105.5 -124t-62.5 -135q53 -10 77.5 -45.5t24.5 -83.5v-36q0 -57 -35.5 -94t-111.5 -37z" />
<glyph unicode="&#x201d;" horiz-adv-x="1024" d="M297 1536q78 0 112.5 -37t34.5 -96v-35q0 -49 -14 -101.5t-41 -103.5t-63.5 -98t-81.5 -84h-160q66 63 106.5 124.5t63.5 133.5q-53 10 -78.5 45t-25.5 82v37q0 59 34.5 96t112.5 37zM739 1536q78 0 112.5 -37t34.5 -96v-35q0 -49 -14 -101.5t-41 -103.5t-63.5 -98 t-81.5 -84h-160q66 63 106.5 124.5t63.5 133.5q-53 10 -78.5 45t-25.5 82v37q0 59 34.5 96t112.5 37z" />
<glyph unicode="&#x201e;" horiz-adv-x="1028" d="M287 317q78 0 112.5 -36.5t34.5 -96.5v-34q0 -49 -14 -101.5t-41 -103.5t-63.5 -98.5t-82.5 -84.5h-159q66 63 106.5 125t63.5 133q-53 10 -79 45t-26 82v37q0 59 35 96t113 37zM729 317q78 0 112.5 -36.5t34.5 -96.5v-34q0 -49 -14 -101.5t-41 -103.5t-63.5 -98.5 t-82.5 -84.5h-159q66 63 106.5 125t63.5 133q-53 10 -79 45t-26 82v37q0 59 35 96t113 37z" />
<glyph unicode="&#x2020;" horiz-adv-x="1105" d="M457 -410v1297h-375v170h375v459h192v-459h375v-170h-375v-1297h-192z" />
<glyph unicode="&#x2021;" horiz-adv-x="1122" d="M465 -410v459h-375v170h375v668h-375v170h375v459h192v-459h375v-170h-375v-668h375v-170h-375v-459h-192z" />
<glyph unicode="&#x2022;" horiz-adv-x="839" d="M420 338q-76 0 -128 18.5t-85 50t-48.5 74.5t-15.5 94v64q0 51 15.5 94t48.5 75t85 50.5t128 18.5t128 -18.5t85 -50.5t48 -75t15 -94v-64q0 -102 -63 -169.5t-213 -67.5z" />
<glyph unicode="&#x2026;" horiz-adv-x="1732" d="M297 -25q-76 0 -113 40t-37 100v30q0 59 37 99.5t113 40.5t112.5 -40t36.5 -100v-30q0 -59 -36.5 -99.5t-112.5 -40.5zM864 -25q-76 0 -113 40t-37 100v30q0 59 37 99.5t113 40.5t112.5 -40t36.5 -100v-30q0 -59 -36.5 -99.5t-112.5 -40.5zM1436 -25q-76 0 -113 40 t-37 100v30q0 59 37 99.5t113 40.5t112.5 -40t36.5 -100v-30q0 -59 -36.5 -99.5t-112.5 -40.5z" />
<glyph unicode="&#x202f;" horiz-adv-x="447" />
<glyph unicode="&#x2030;" horiz-adv-x="2742" d="M371 0l991 1430h207l-991 -1430h-207zM463 643q-166 0 -254 103.5t-88 302.5t88 302t254 103t254 -103.5t88 -301.5q0 -199 -88 -302.5t-254 -103.5zM463 780q145 0 145 211v115q0 211 -145 211t-146 -211v-115q1 -211 146 -211zM1477 -25q-166 0 -254 103.5t-88 302.5 t88 302t254 103t254 -103t88 -302t-88 -302.5t-254 -103.5zM1477 113q145 0 145 211v114q0 211 -145 211t-146 -211v-114q1 -211 146 -211zM2279 -25q-166 0 -254 103.5t-88 302.5t88.5 302t253.5 103q166 0 254 -103t88 -302t-88 -302.5t-254 -103.5zM2279 113 q145 0 146 211v114q0 211 -146 211q-145 0 -145 -211v-114q0 -211 145 -211z" />
<glyph unicode="&#x2039;" horiz-adv-x="632" d="M463 137l-387 334v201l387 334l65 -144l-264 -291l264 -290z" />
<glyph unicode="&#x203a;" horiz-adv-x="632" d="M104 281l265 290l-265 291l66 144l387 -334v-201l-387 -334z" />
<glyph unicode="&#x2044;" horiz-adv-x="309" d="M-453 0l1035 1430h180l-1032 -1430h-183z" />
<glyph unicode="&#x205f;" horiz-adv-x="559" />
<glyph unicode="&#x2060;" horiz-adv-x="0" />
<glyph unicode="&#x2070;" horiz-adv-x="765" d="M383 664q-160 0 -234.5 101t-74.5 288q0 186 74.5 287.5t234.5 101.5t234.5 -101.5t74.5 -287.5t-74.5 -287.5t-234.5 -101.5zM383 797q76 0 104.5 48t28.5 136v143q0 88 -28.5 136.5t-104.5 48.5t-104.5 -48.5t-28.5 -136.5v-143q0 -88 28.5 -136t104.5 -48z" />
<glyph unicode="&#x2074;" horiz-adv-x="708" d="M406 674v145h-367v135l321 476h201v-488h107v-123h-107v-145h-155zM406 1266h-11l-223 -324h234v324z" />
<glyph unicode="&#x2075;" horiz-adv-x="720" d="M612 1294h-370l-19 -245h10q25 53 62 85.5t111 32.5q106 0 178.5 -62.5t72.5 -176.5q0 -117 -79.5 -191.5t-227.5 -74.5q-117 0 -183.5 43t-103.5 100l119 90q29 -45 68 -76t104 -31q66 0 98.5 33t32.5 88v9q0 55 -32.5 87.5t-98.5 32.5q-49 0 -79.5 -17t-49.5 -36 l-133 16l29 429h491v-136z" />
<glyph unicode="&#x2076;" horiz-adv-x="735" d="M369 662q-145 0 -223 80.5t-78 218.5q0 80 26.5 150.5t67.5 131t93 107.5t105 80h224q-147 -98 -234.5 -183.5t-111.5 -195.5l8 -2q23 41 64.5 75.5t119.5 34.5q102 0 172 -62.5t70 -170.5q0 -117 -83 -190.5t-220 -73.5zM369 784q61 0 97 30t36 89v17q0 59 -36 88.5 t-97 29.5t-97 -29.5t-36 -88.5v-17q0 -59 36 -89t97 -30z" />
<glyph unicode="&#x2077;" horiz-adv-x="677" d="M178 674l283 626h-273v-137h-137v267h572v-138l-273 -618h-172z" />
<glyph unicode="&#x2078;" horiz-adv-x="753" d="M377 662q-145 0 -224 62t-79 157q0 72 45 117.5t117 64.5v8q-59 20 -97.5 63.5t-38.5 108.5q0 88 72 143.5t205 55.5t204.5 -55.5t71.5 -143.5q0 -66 -37.5 -108.5t-97.5 -63.5v-8q72 -18 117 -64.5t45 -117.5q0 -94 -79 -156.5t-224 -62.5zM377 1118q59 0 91 24.5 t32 67.5v17q0 43 -32 67.5t-91 24.5t-91 -24.5t-32 -67.5v-17q0 -43 32 -67.5t91 -24.5zM377 782q63 0 97 27t34 72v22q0 45 -34 71.5t-97 26.5t-97 -26.5t-34 -71.5v-22q0 -45 34 -72t97 -27z" />
<glyph unicode="&#x2079;" horiz-adv-x="733" d="M664 1143q0 -80 -26 -150.5t-68 -131t-94 -107.5t-103 -80h-223q147 98 233 183t111 196l-11 2q-23 -43 -63.5 -78t-118.5 -35q-104 0 -172 63.5t-68 172.5q0 117 82 190.5t219 73.5q145 0 223.5 -81t78.5 -218zM362 1063q61 0 97.5 30.5t36.5 90.5v14q0 59 -36 90 t-98 31q-61 0 -97 -31t-36 -90v-14q0 -59 36 -90t97 -31z" />
<glyph unicode="&#x2080;" horiz-adv-x="765" d="M383 -12q-160 0 -234.5 101t-74.5 288q0 186 74.5 287.5t234.5 101.5t234.5 -101.5t74.5 -287.5t-74.5 -287.5t-234.5 -101.5zM383 121q76 0 104.5 49t28.5 137v142q0 88 -28.5 136t-104.5 48t-104.5 -48t-28.5 -136v-142q0 -88 28.5 -137t104.5 -49z" />
<glyph unicode="&#x2081;" horiz-adv-x="722" d="M109 0v127h208v500h-12l-158 -178l-102 86l195 221h239v-629h187v-127h-557z" />
<glyph unicode="&#x2082;" horiz-adv-x="708" d="M645 0h-571v143l248 197q68 53 99.5 95t31.5 91v9q0 49 -32 73.5t-83 24.5q-61 0 -92 -31t-47 -78l-142 54q29 78 98.5 134t196.5 56q131 0 203 -63.5t72 -163.5q0 -47 -16.5 -88t-45 -76t-67.5 -66.5t-82 -62.5l-166 -117h395v-131z" />
<glyph unicode="&#x2083;" horiz-adv-x="706" d="M313 455q68 0 100.5 24.5t32.5 59.5v8q0 41 -31.5 67.5t-84.5 26.5t-95 -24.5t-73 -67.5l-105 92q43 57 108.5 92t170.5 35q129 0 205.5 -54.5t76.5 -146.5q0 -72 -46 -115.5t-111 -54.5v-6q72 -12 121 -57t49 -123q0 -102 -83 -162.5t-222 -60.5q-121 0 -188.5 43 t-106.5 100l121 90q29 -47 68.5 -76.5t105.5 -29.5t100.5 28.5t34.5 77.5v10q0 47 -39 70t-107 23h-79v131h77z" />
<glyph unicode="&#x2084;" horiz-adv-x="708" d="M406 0v145h-367v136l321 475h201v-488h107v-123h-107v-145h-155zM406 592h-11l-223 -324h234v324z" />
<glyph unicode="&#x2085;" horiz-adv-x="720" d="M242 621l-19 -246h10q25 53 62 86t111 33q106 0 178.5 -62.5t72.5 -177.5q0 -117 -79.5 -191.5t-227.5 -74.5q-117 0 -183.5 43t-103.5 100l119 90q29 -45 68 -75.5t104 -30.5q66 0 98.5 32.5t32.5 88.5v8q0 55 -32.5 88t-98.5 33q-49 0 -79.5 -17.5t-49.5 -36.5l-133 17 l29 428h491v-135h-370z" />
<glyph unicode="&#x2086;" horiz-adv-x="735" d="M369 -12q-145 0 -223 81t-78 218q0 80 26.5 150.5t67.5 131t93 107.5t105 80h224q-147 -98 -234.5 -183.5t-111.5 -195.5l8 -2q23 41 64.5 75.5t119.5 34.5q102 0 172 -62.5t70 -170.5q0 -117 -83 -190.5t-220 -73.5zM369 111q61 0 97 29.5t36 88.5v17q0 59 -36 89 t-97 30t-97 -30t-36 -89v-17q0 -59 36 -88.5t97 -29.5z" />
<glyph unicode="&#x2087;" horiz-adv-x="677" d="M178 0l283 627h-273v-138h-137v267h572v-138l-273 -618h-172z" />
<glyph unicode="&#x2088;" horiz-adv-x="753" d="M377 -12q-145 0 -224 62.5t-79 156.5q0 72 45 118t117 64v8q-59 20 -97.5 63.5t-38.5 108.5q0 88 72 143.5t205 55.5t204.5 -55.5t71.5 -143.5q0 -66 -37.5 -108.5t-97.5 -63.5v-8q72 -18 117 -64t45 -118q0 -94 -79 -156.5t-224 -62.5zM377 109q63 0 97 26.5t34 71.5v22 q0 45 -34 72t-97 27t-97 -27t-34 -72v-22q0 -45 34 -71.5t97 -26.5zM377 444q59 0 91 25t32 68v16q0 43 -32 67.5t-91 24.5t-91 -24.5t-32 -67.5v-16q0 -43 32 -68t91 -25z" />
<glyph unicode="&#x2089;" horiz-adv-x="733" d="M664 469q0 -80 -26 -150.5t-68 -131t-94 -107.5t-103 -80h-223q147 98 233 183t111 196l-11 2q-23 -43 -63.5 -78t-118.5 -35q-104 0 -172 63.5t-68 172.5q0 117 82 190.5t219 73.5q145 0 223.5 -81t78.5 -218zM362 389q61 0 97.5 31t36.5 90v14q0 59 -36 90t-98 31 q-61 0 -97 -30.5t-36 -90.5v-14q0 -59 36 -90t97 -31z" />
<glyph unicode="&#x20a1;" horiz-adv-x="1275" d="M653 6q-27 2 -50 6l-46 8l-20 -188h-142l25 236q-145 74 -226 236.5t-81 408.5q0 299 117.5 475t328.5 221l21 188h139l-19 -172h15q45 0 86 -6l18 178h139l-20 -211q86 -35 147.5 -96t108.5 -145l-168 -113q-23 47 -49.5 84t-65.5 62l-100 -971q78 23 132 75t87 130 l168 -117q-53 -104 -151.5 -185t-253.5 -100l-19 -178h-139zM680 1237l-107 -1020q49 -20 103 -22l106 1034q-16 4 -36.5 6t-51.5 2h-14zM350 598q0 -193 101 -297l90 897q-92 -43 -141.5 -138t-49.5 -229v-233z" />
<glyph unicode="&#x20a4;" horiz-adv-x="1206" d="M1100 0h-946v229q76 35 111.5 102.5t41.5 145.5h-207v158h191q-10 41 -25.5 82t-29.5 82h-136v157h95q-6 37 -7 72q0 94 34 173t97.5 135.5t153.5 87t205 30.5q160 0 271.5 -61.5t185.5 -178.5l-170 -114q-53 78 -122 119t-165 41q-121 0 -187.5 -68t-66.5 -195 q0 -10 1 -20t1 -21h451v-157h-412q14 -41 29.5 -81t25.5 -83h357v-158h-345q-10 -94 -54 -164.5t-97 -105.5v-12h719v-195z" />
<glyph unicode="&#x20a6;" horiz-adv-x="1495" d="M758 477h-342v-477h-213v473h-170v158h170v172h-170v158h170v469h264l260 -474h354v474h209v-469h172v-158h-172v-172h172v-158h-172v-473h-268zM686 627l-264 487h-6v-487h270zM1075 301h6v506h-280z" />
<glyph unicode="&#x20a8;" horiz-adv-x="1617" d="M176 0v1430h410q190 0 292.5 -104.5t102.5 -295.5q0 -129 -48 -219t-145 -137l173 -348q45 -88 96 -130t123 -42q68 0 105.5 29.5t37.5 82.5q0 20 -4 38t-15.5 35t-30 37.5t-48.5 49.5l-39 39q-86 80 -122 146.5t-36 146.5q0 123 81 196.5t218 73.5q59 0 116.5 -12 t110.5 -47l-79 -152q-29 20 -60 30.5t-69 10.5q-47 0 -77 -24.5t-30 -71.5q0 -45 26.5 -79t80.5 -87l34 -31q43 -43 74 -77.5t50.5 -67.5t27.5 -69t8 -79q0 -63 -21.5 -117.5t-67.5 -94.5t-118.5 -62.5t-173.5 -22.5q-139 0 -235.5 53.5t-157.5 186.5l-186 401h-177v-616 h-227zM559 807q88 0 138.5 42t50.5 128v90q0 86 -50.5 128t-138.5 42h-156v-430h156z" />
<glyph unicode="&#x20a9;" horiz-adv-x="2011" d="M1176 477h-353l-121 -477h-258l-110 475h-258v158h219l-39 170h-180v158h143l-110 469h229l100 -474h322l119 474h258l114 -472h326l104 472h226l-117 -467h145v-158h-184l-41 -172h225v-158h-264l-119 -475h-258zM707 737l16 70h-254l16 -70l101 -475h6zM1425 264 l103 471l16 74h-256l17 -68l114 -477h6zM862 627h277l-23 90l-112 467h-5l-114 -465z" />
<glyph unicode="&#x20aa;" horiz-adv-x="1699" d="M555 1075h211v-885h362q78 0 131.5 46.5t53.5 150.5v1043h211v-1024q0 -205 -105.5 -305.5t-271.5 -100.5h-592v1075zM176 0v1430h596q166 0 269.5 -100.5t103.5 -305.5v-670h-211v688q0 104 -50 150.5t-130 46.5h-367v-1239h-211z" />
<glyph unicode="&#x20ab;" horiz-adv-x="1181" d="M754 455h-9q-39 -74 -106.5 -119t-175.5 -45q-160 0 -254 104.5t-94 315.5t94 315t254 104q109 0 176.5 -45t105.5 -118h9v278h-281v150h281v121h219v-121h131v-150h-131v-936h-219v146zM549 457q92 0 148.5 45t56.5 112v193q0 68 -56.5 113t-148.5 45 q-100 0 -157.5 -54.5t-57.5 -146.5v-107q0 -92 57.5 -146t157.5 -54zM129 0v172h895v-172h-895z" />
<glyph unicode="&#x20ac;" horiz-adv-x="1284" d="M711 -25q-137 0 -248 48.5t-188.5 143.5t-119.5 232.5t-42 315.5t42 315t119.5 231.5t188 143.5t248.5 49q188 0 300.5 -80t180.5 -205l-172 -116q-43 98 -120 153.5t-189 55.5q-137 0 -226.5 -82t-117.5 -219h499v-158h-510v-176h510v-158h-499q29 -141 117.5 -221 t226.5 -80q117 0 196.5 59.5t126.5 163.5l172 -121q-31 -59 -75 -113.5t-104 -94t-138 -63.5t-178 -24z" />
<glyph unicode="&#x20ad;" horiz-adv-x="1323" d="M426 0h-231v639h-179v184h179v607h231v-607h125l426 607h260l-446 -607h409v-184h-391l471 -639h-274l-451 639h-129v-639z" />
<glyph unicode="&#x20ae;" horiz-adv-x="1243" d="M737 436v-436h-231v326l-262 -125v159l262 125v166l-262 -125v160l262 125v424h-426v195h1083v-195h-426v-313l262 125v-160l-262 -125v-166l262 127v-160z" />
<glyph unicode="&#x20b1;" horiz-adv-x="1345" d="M451 0h-232v662h-170v149h170v170h-170v149h170v300h518q305 0 381 -300h193v-149h-172q2 -20 3 -40.5t1 -43.5t-1 -44.5t-3 -41.5h172v-149h-197q-39 -147 -133 -225.5t-244 -78.5h-286v-358zM451 1122h450q-18 59 -64 96t-116 37h-270v-133zM913 803v186h-462v-186h462 zM721 532q72 0 119 37t63 101h-452v-138h270z" />
<glyph unicode="&#x20b2;" horiz-adv-x="1378" d="M436 -168l37 213q-119 49 -197.5 139t-120.5 222.5t-42 308.5q0 174 42 307t118.5 223t186 135t247.5 45h8l28 172h179l-35 -196q88 -23 178 -89.5t156 -199.5l-183 -96q-39 92 -93 138t-101 60l-80 -454h483v-236q0 -150 -51 -249t-131 -159.5t-175 -86t-183 -25.5 q-31 0 -62 2l-31 -174h-178zM446 1133q-94 -106 -94 -306v-225q0 -135 45 -225t119 -135l174 995q-156 -6 -244 -104zM707 193q145 0 235 77.5t90 225.5v73h-301l-65 -376h41z" />
<glyph unicode="&#x20b4;" horiz-adv-x="1300" d="M664 -25q-104 0 -187.5 31t-140.5 86t-87 129t-30 160q0 33 5 60.5t12 50.5h-148v157h240l309 170h-549v158h754q6 20 10 41.5t4 46.5q0 102 -57.5 149.5t-161.5 47.5q-78 0 -147.5 -28t-124.5 -93l-127 139q78 88 185 131t226 43q96 0 174 -27.5t133.5 -77t85 -117 t29.5 -147.5q0 -29 -3 -56.5t-11 -51.5h155v-158h-251l-304 -170h555v-157h-755q-23 -45 -23 -101q0 -111 65.5 -167t176.5 -56q78 0 150.5 30.5t152.5 116.5l125 -141q-78 -94 -189.5 -146.5t-250.5 -52.5z" />
<glyph unicode="&#x20b5;" horiz-adv-x="1267" d="M436 -168l37 215q-121 51 -197.5 141.5t-119.5 222.5t-43 304t42 304t119.5 223t187 137t243.5 46h10l28 172h179l-35 -198q80 -23 158.5 -81t140.5 -169l-170 -115q-35 74 -81 115t-91 59l-178 -1011h39q113 0 193.5 56t123.5 159l168 -115q-31 -59 -74 -112.5 t-102.5 -93.5t-135 -63.5t-173.5 -23.5q-29 0 -60 2l-31 -174h-178zM559 1208q-66 -29 -112 -81t-71.5 -127.5t-25.5 -168.5v-229q0 -92 25.5 -167t63.5 -119t79 -68l172 989q-74 -4 -131 -29z" />
<glyph unicode="&#x20b8;" horiz-adv-x="1243" d="M80 1255v175h1083v-175h-1083zM737 905v-905h-231v905h-426v174h1083v-174h-426z" />
<glyph unicode="&#x20b9;" horiz-adv-x="1259" d="M766 0l-401 539h-248v174h401q100 0 159.5 46t63.5 138h-624v174h624q-6 98 -65.5 141t-157.5 43h-401v175h1071v-175h-373v-8q18 -2 40 -12t42.5 -29.5t36.5 -52.5t27 -82h227v-174h-223q-18 -143 -105.5 -234.5t-241.5 -109.5l429 -553h-281z" />
<glyph unicode="&#x20ba;" horiz-adv-x="1247" d="M221 477l-190 -92v160l190 92v166l-190 -92v159l190 93v467h234v-357l385 184v-159l-385 -185v-165l385 184v-160l-385 -184v-395h168q158 0 241.5 105t83.5 327h223q0 -131 -31.5 -245t-97 -199t-165 -133t-232.5 -48h-424v477z" />
<glyph unicode="&#x20bd;" horiz-adv-x="1308" d="M451 248v-248h-232v248h-170v174h170v184h-170v174h170v650h598q197 0 305.5 -109t108.5 -303q0 -195 -108.5 -303.5t-305.5 -108.5h-366v-184h510v-174h-510zM451 780h350q90 0 138 45t48 131v103q0 86 -48 131t-138 45h-350v-455z" />
<glyph unicode="&#x20bf;" horiz-adv-x="1335" d="M698 43h-129v-211h-178v211h-215v1343h215v211h178v-211h129v211h179v-213q141 -20 220 -111t79 -233q0 -137 -68 -203.5t-180 -82.5v-13q57 -6 111.5 -24.5t96.5 -55t66.5 -93t24.5 -138.5q0 -80 -26.5 -150.5t-74 -123t-111 -82t-138.5 -31.5v-211h-179v211zM397 817 h381q166 0 166 156v63q0 156 -166 156h-381v-375zM397 238h408q88 0 139 42t51 123v64q0 82 -51 124t-139 42h-408v-395z" />
<glyph unicode="&#x2113;" horiz-adv-x="1056" d="M594 -25q-158 0 -252 95.5t-94 255.5v16q-20 -16 -49 -35.5t-52 -34.5l-94 154q47 29 98.5 62.5t88.5 62.5v586q0 113 24.5 189.5t67.5 123.5t102.5 68.5t128.5 21.5q158 0 240 -94t82 -268q0 -98 -28 -188.5t-82 -177.5t-135 -173t-187 -178v-88q0 -111 38.5 -157 t108.5 -46q78 0 129 53t102 160l173 -94q-29 -68 -67 -125.5t-88 -99t-113.5 -65.5t-141.5 -24zM569 1346q-47 0 -81.5 -42t-34.5 -155v-457q106 109 166.5 222.5t60.5 240.5v29q0 88 -31 125t-80 37z" />
<glyph unicode="&#x2116;" horiz-adv-x="2131" d="M1714 741q-150 0 -242 93.5t-92 263.5t92.5 263t241.5 93q150 0 242 -93t92 -263t-92 -263.5t-242 -93.5zM176 0v1430h256l406 -756l170 -340h6v1096h217v-1430h-258l-422 772l-154 313h-6v-1085h-215zM1714 881q74 0 117 44t43 119v107q0 76 -43 120t-117 44t-117 -44 t-43 -120v-107q0 -76 43 -119.5t117 -43.5zM1413 475v148h602v-148h-602z" />
<glyph unicode="&#x2122;" horiz-adv-x="1288" d="M223 850v473h-164v107h459v-107h-162v-473h-133zM586 850v580h151l129 -250h11l127 250h143v-580h-119v229l10 181h-8l-164 -310l-164 310h-8l11 -181v-229h-119z" />
<glyph unicode="&#x2126;" horiz-adv-x="1474" d="M113 205h325v20q-139 70 -228 212.5t-89 355.5q0 129 38 248.5t114.5 210.5t192.5 146.5t271 55.5q156 0 271.5 -55.5t192.5 -146.5t115 -210.5t38 -248.5q0 -106 -23.5 -195.5t-65.5 -160t-100.5 -124t-128.5 -88.5v-20h326v-205h-504v309q49 16 94 55t80 92.5t55.5 118 t20.5 132.5v176q0 68 -25.5 133t-72.5 116.5t-116 83t-157 31.5t-156.5 -31.5t-116.5 -83t-72.5 -117t-24.5 -132.5v-176q0 -68 20.5 -132.5t55 -118t79.5 -92t94 -55.5v-309h-503v205z" />
<glyph unicode="&#x212e;" horiz-adv-x="1474" d="M397 205q61 -51 145.5 -84t194.5 -33q184 0 305 84t195 221l102 -57q-41 -78 -99 -143.5t-133 -113.5t-168 -76t-202 -28q-145 0 -267 52.5t-212 148.5t-140 232.5t-50 306.5q0 168 50 305t140 233.5t212 148.5t267 52q143 0 266 -52t213.5 -148.5t140.5 -233.5t50 -305 h-1010v-510zM1077 821v410q-61 51 -145 84t-195 33t-194.5 -33t-145.5 -84v-410h680z" />
<glyph unicode="&#x2150;" horiz-adv-x="1765" d="M109 674v127h208v499h-12l-158 -178l-102 86l195 222h239v-629h187v-127h-557zM301 0l1035 1430h180l-1032 -1430h-183zM1265 0l283 627h-273v-138h-137v267h572v-138l-273 -618h-172z" />
<glyph unicode="&#x2151;" horiz-adv-x="1800" d="M109 674v127h208v499h-12l-158 -178l-102 86l195 222h239v-629h187v-127h-557zM301 0l1035 1430h180l-1032 -1430h-183zM1731 469q0 -80 -26 -150.5t-68 -131t-94 -107.5t-103 -80h-223q147 98 233 183t111 196l-11 2q-23 -43 -63.5 -78t-118.5 -35q-104 0 -172 63.5 t-68 172.5q0 117 82 190.5t219 73.5q145 0 223.5 -81t78.5 -218zM1429 389q61 0 97.5 31t36.5 90v14q0 59 -36 90t-98 31q-61 0 -97 -30.5t-36 -90.5v-14q0 -59 36 -90t97 -31z" />
<glyph unicode="&#x2153;" horiz-adv-x="1783" d="M109 674v127h208v499h-12l-158 -178l-102 86l195 222h239v-629h187v-127h-557zM301 0l1035 1430h180l-1032 -1430h-183zM1390 455q68 0 100.5 24.5t32.5 59.5v8q0 41 -31.5 67.5t-84.5 26.5t-95 -24.5t-73 -67.5l-105 92q43 57 108.5 92t170.5 35q129 0 205.5 -54.5 t76.5 -146.5q0 -72 -46 -115.5t-111 -54.5v-6q72 -12 121 -57t49 -123q0 -102 -83 -162.5t-222 -60.5q-121 0 -188.5 43t-106.5 100l121 90q29 -47 68.5 -76.5t105.5 -29.5t100.5 28.5t34.5 77.5v10q0 47 -39 70t-107 23h-79v131h77z" />
<glyph unicode="&#x2154;" horiz-adv-x="1724" d="M645 674h-571v143l248 197q68 53 99.5 94t31.5 92v8q0 49 -32 74t-83 25q-61 0 -92 -31t-47 -78l-142 53q29 78 98.5 134.5t196.5 56.5q131 0 203 -63.5t72 -164.5q0 -47 -16.5 -88t-45 -75.5t-67.5 -66.5t-82 -62l-166 -117h395v-131zM256 0l1035 1430h180l-1032 -1430 h-183zM1331 455q68 0 100.5 24.5t32.5 59.5v8q0 41 -31.5 67.5t-84.5 26.5t-95 -24.5t-73 -67.5l-105 92q43 57 108.5 92t170.5 35q129 0 205.5 -54.5t76.5 -146.5q0 -72 -46 -115.5t-111 -54.5v-6q72 -12 121 -57t49 -123q0 -102 -83 -162.5t-222 -60.5q-121 0 -188.5 43 t-106.5 100l121 90q29 -47 68.5 -76.5t105.5 -29.5t100.5 28.5t34.5 77.5v10q0 47 -39 70t-107 23h-79v131h77z" />
<glyph unicode="&#x2155;" horiz-adv-x="1787" d="M109 674v127h208v499h-12l-158 -178l-102 86l195 222h239v-629h187v-127h-557zM301 0l1035 1430h180l-1032 -1430h-183zM1309 621l-19 -246h10q25 53 62 86t111 33q106 0 178.5 -62.5t72.5 -177.5q0 -117 -79.5 -191.5t-227.5 -74.5q-117 0 -183.5 43t-103.5 100l119 90 q29 -45 68 -75.5t104 -30.5q66 0 98.5 32.5t32.5 88.5v8q0 55 -32.5 88t-98.5 33q-49 0 -79.5 -17.5t-49.5 -36.5l-133 17l29 428h491v-135h-370z" />
<glyph unicode="&#x2156;" horiz-adv-x="1738" d="M645 674h-571v143l248 197q68 53 99.5 94t31.5 92v8q0 49 -32 74t-83 25q-61 0 -92 -31t-47 -78l-142 53q29 78 98.5 134.5t196.5 56.5q131 0 203 -63.5t72 -164.5q0 -47 -16.5 -88t-45 -75.5t-67.5 -66.5t-82 -62l-166 -117h395v-131zM256 0l1035 1430h180l-1032 -1430 h-183zM1260 621l-19 -246h10q25 53 62 86t111 33q106 0 178.5 -62.5t72.5 -177.5q0 -117 -79.5 -191.5t-227.5 -74.5q-117 0 -183.5 43t-103.5 100l119 90q29 -45 68 -75.5t104 -30.5q66 0 98.5 32.5t32.5 88.5v8q0 55 -32.5 88t-98.5 33q-49 0 -79.5 -17.5t-49.5 -36.5 l-133 17l29 428h491v-135h-370z" />
<glyph unicode="&#x2157;" horiz-adv-x="1751" d="M313 1128q68 0 100.5 25t32.5 59v9q0 41 -31.5 67.5t-84.5 26.5t-95 -24.5t-73 -67.5l-105 92q43 57 108.5 92t170.5 35q129 0 205.5 -54.5t76.5 -146.5q0 -72 -46 -116t-111 -54v-6q72 -12 121 -57t49 -123q0 -102 -83 -162.5t-222 -60.5q-121 0 -188.5 43t-106.5 100 l121 90q29 -47 68.5 -77t105.5 -30t100.5 29t34.5 78v10q0 47 -39 69.5t-107 22.5h-79v131h77zM264 0l1035 1430h180l-1032 -1430h-183zM1272 621l-19 -246h10q25 53 62 86t111 33q106 0 178.5 -62.5t72.5 -177.5q0 -117 -79.5 -191.5t-227.5 -74.5q-117 0 -183.5 43 t-103.5 100l119 90q29 -45 68 -75.5t104 -30.5q66 0 98.5 32.5t32.5 88.5v8q0 55 -32.5 88t-98.5 33q-49 0 -79.5 -17.5t-49.5 -36.5l-133 17l29 428h491v-135h-370z" />
<glyph unicode="&#x2158;" horiz-adv-x="1763" d="M406 674v145h-367v135l321 476h201v-488h107v-123h-107v-145h-155zM406 1266h-11l-223 -324h234v324zM276 0l1035 1430h180l-1032 -1430h-183zM1284 621l-19 -246h10q25 53 62 86t111 33q106 0 178.5 -62.5t72.5 -177.5q0 -117 -79.5 -191.5t-227.5 -74.5 q-117 0 -183.5 43t-103.5 100l119 90q29 -45 68 -75.5t104 -30.5q66 0 98.5 32.5t32.5 88.5v8q0 55 -32.5 88t-98.5 33q-49 0 -79.5 -17.5t-49.5 -36.5l-133 17l29 428h491v-135h-370z" />
<glyph unicode="&#x2159;" horiz-adv-x="1742" d="M109 674v127h208v499h-12l-158 -178l-102 86l195 222h239v-629h187v-127h-557zM301 0l1035 1430h180l-1032 -1430h-183zM1377 -12q-145 0 -223 81t-78 218q0 80 26.5 150.5t67.5 131t93 107.5t105 80h224q-147 -98 -234.5 -183.5t-111.5 -195.5l8 -2q23 41 64.5 75.5 t119.5 34.5q102 0 172 -62.5t70 -170.5q0 -117 -83 -190.5t-220 -73.5zM1377 111q61 0 97 29.5t36 88.5v17q0 59 -36 89t-97 30t-97 -30t-36 -89v-17q0 -59 36 -88.5t97 -29.5z" />
<glyph unicode="&#x215a;" horiz-adv-x="1720" d="M612 1294h-370l-19 -245h10q25 53 62 85.5t111 32.5q106 0 178.5 -62.5t72.5 -176.5q0 -117 -79.5 -191.5t-227.5 -74.5q-117 0 -183.5 43t-103.5 100l119 90q29 -45 68 -76t104 -31q66 0 98.5 33t32.5 88v9q0 55 -32.5 87.5t-98.5 32.5q-49 0 -79.5 -17t-49.5 -36 l-133 16l29 429h491v-136zM278 0l1035 1430h180l-1032 -1430h-183zM1354 -12q-145 0 -223 81t-78 218q0 80 26.5 150.5t67.5 131t93 107.5t105 80h224q-147 -98 -234.5 -183.5t-111.5 -195.5l8 -2q23 41 64.5 75.5t119.5 34.5q102 0 172 -62.5t70 -170.5q0 -117 -83 -190.5 t-220 -73.5zM1354 111q61 0 97 29.5t36 88.5v17q0 59 -36 89t-97 30t-97 -30t-36 -89v-17q0 -59 36 -88.5t97 -29.5z" />
<glyph unicode="&#x215b;" horiz-adv-x="1816" d="M109 674v127h208v499h-12l-158 -178l-102 86l195 222h239v-629h187v-127h-557zM301 0l1035 1430h180l-1032 -1430h-183zM1440 -12q-145 0 -224 62.5t-79 156.5q0 72 45 118t117 64v8q-59 20 -97.5 63.5t-38.5 108.5q0 88 72 143.5t205 55.5t204.5 -55.5t71.5 -143.5 q0 -66 -37.5 -108.5t-97.5 -63.5v-8q72 -18 117 -64t45 -118q0 -94 -79 -156.5t-224 -62.5zM1440 109q63 0 97 26.5t34 71.5v22q0 45 -34 72t-97 27t-97 -27t-34 -72v-22q0 -45 34 -71.5t97 -26.5zM1440 444q59 0 91 25t32 68v16q0 43 -32 67.5t-91 24.5t-91 -24.5 t-32 -67.5v-16q0 -43 32 -68t91 -25z" />
<glyph unicode="&#x215c;" horiz-adv-x="1779" d="M313 1128q68 0 100.5 25t32.5 59v9q0 41 -31.5 67.5t-84.5 26.5t-95 -24.5t-73 -67.5l-105 92q43 57 108.5 92t170.5 35q129 0 205.5 -54.5t76.5 -146.5q0 -72 -46 -116t-111 -54v-6q72 -12 121 -57t49 -123q0 -102 -83 -162.5t-222 -60.5q-121 0 -188.5 43t-106.5 100 l121 90q29 -47 68.5 -77t105.5 -30t100.5 29t34.5 78v10q0 47 -39 69.5t-107 22.5h-79v131h77zM264 0l1035 1430h180l-1032 -1430h-183zM1403 -12q-145 0 -224 62.5t-79 156.5q0 72 45 118t117 64v8q-59 20 -97.5 63.5t-38.5 108.5q0 88 72 143.5t205 55.5t204.5 -55.5 t71.5 -143.5q0 -66 -37.5 -108.5t-97.5 -63.5v-8q72 -18 117 -64t45 -118q0 -94 -79 -156.5t-224 -62.5zM1403 109q63 0 97 26.5t34 71.5v22q0 45 -34 72t-97 27t-97 -27t-34 -72v-22q0 -45 34 -71.5t97 -26.5zM1403 444q59 0 91 25t32 68v16q0 43 -32 67.5t-91 24.5 t-91 -24.5t-32 -67.5v-16q0 -43 32 -68t91 -25z" />
<glyph unicode="&#x215d;" horiz-adv-x="1794" d="M612 1294h-370l-19 -245h10q25 53 62 85.5t111 32.5q106 0 178.5 -62.5t72.5 -176.5q0 -117 -79.5 -191.5t-227.5 -74.5q-117 0 -183.5 43t-103.5 100l119 90q29 -45 68 -76t104 -31q66 0 98.5 33t32.5 88v9q0 55 -32.5 87.5t-98.5 32.5q-49 0 -79.5 -17t-49.5 -36 l-133 16l29 429h491v-136zM278 0l1035 1430h180l-1032 -1430h-183zM1417 -12q-145 0 -224 62.5t-79 156.5q0 72 45 118t117 64v8q-59 20 -97.5 63.5t-38.5 108.5q0 88 72 143.5t205 55.5t204.5 -55.5t71.5 -143.5q0 -66 -37.5 -108.5t-97.5 -63.5v-8q72 -18 117 -64t45 -118 q0 -94 -79 -156.5t-224 -62.5zM1417 109q63 0 97 26.5t34 71.5v22q0 45 -34 72t-97 27t-97 -27t-34 -72v-22q0 -45 34 -71.5t97 -26.5zM1417 444q59 0 91 25t32 68v16q0 43 -32 67.5t-91 24.5t-91 -24.5t-32 -67.5v-16q0 -43 32 -68t91 -25z" />
<glyph unicode="&#x215e;" horiz-adv-x="1714" d="M178 674l283 626h-273v-137h-137v267h572v-138l-273 -618h-172zM198 0l1035 1430h180l-1032 -1430h-183zM1338 -12q-145 0 -224 62.5t-79 156.5q0 72 45 118t117 64v8q-59 20 -97.5 63.5t-38.5 108.5q0 88 72 143.5t205 55.5t204.5 -55.5t71.5 -143.5q0 -66 -37.5 -108.5 t-97.5 -63.5v-8q72 -18 117 -64t45 -118q0 -94 -79 -156.5t-224 -62.5zM1338 109q63 0 97 26.5t34 71.5v22q0 45 -34 72t-97 27t-97 -27t-34 -72v-22q0 -45 34 -71.5t97 -26.5zM1338 444q59 0 91 25t32 68v16q0 43 -32 67.5t-91 24.5t-91 -24.5t-32 -67.5v-16q0 -43 32 -68 t91 -25z" />
<glyph unicode="&#x2190;" horiz-adv-x="1748" d="M600 1167l127 -127l-154 -153l-98 -82l2 -8l185 12h940v-188h-940l-185 12l-2 -8l98 -82l154 -154l-127 -127l-453 453z" />
<glyph unicode="&#x2191;" horiz-adv-x="1748" d="M1327 1001l-127 -127l-153 156l-82 96l-9 -2l13 -184v-940h-187v940l11 184l-9 2l-82 -96l-153 -156l-127 127l452 453z" />
<glyph unicode="&#x2192;" horiz-adv-x="1748" d="M1149 262l-127 127l156 154l96 82l-2 8l-185 -12h-940v188h940l185 -12l2 8l-96 82l-156 153l127 127l453 -452z" />
<glyph unicode="&#x2193;" horiz-adv-x="1748" d="M422 428l127 127l153 -156l82 -96l9 2l-11 184v941h187v-941l-13 -184l9 -2l82 96l153 156l127 -127l-453 -453z" />
<glyph unicode="&#x2194;" horiz-adv-x="1748" d="M586 1167l127 -127l-154 -153l-98 -82l2 -8l184 12h455l184 -12l2 8l-98 82l-154 153l127 127l453 -452l-453 -453l-127 127l154 154l98 82l-2 8l-184 -12h-455l-184 12l-2 -8l98 -82l154 -154l-127 -127l-453 453z" />
<glyph unicode="&#x2195;" horiz-adv-x="1748" d="M422 428l127 127l153 -156l82 -96l9 2l-11 184v451l11 184l-9 2l-82 -96l-153 -156l-127 127l452 453l453 -453l-127 -127l-153 156l-82 96l-9 -2l13 -184v-451l-13 -184l9 -2l82 96l153 156l127 -127l-453 -453z" />
<glyph unicode="&#x2196;" horiz-adv-x="1748" d="M1008 1264v-179h-217l-127 11l-5 -6l138 -121l665 -666l-131 -133l-667 666l-121 137l-6 -4l10 -127v-217h-178v639h639z" />
<glyph unicode="&#x2197;" horiz-adv-x="1748" d="M1380 625h-178v217l10 127l-6 4l-121 -137l-667 -666l-131 133l665 666l138 121l-5 6l-127 -11h-217v179h639v-639z" />
<glyph unicode="&#x2198;" horiz-adv-x="1748" d="M741 188v181h217l127 -11l2 7l-135 120l-665 666l131 133l665 -668l123 -135l6 2l-10 127v219h178v-641h-639z" />
<glyph unicode="&#x2199;" horiz-adv-x="1748" d="M369 829h178v-219l-10 -127l6 -2l123 135l665 668l131 -133l-665 -666l-135 -120l2 -7l127 11h217v-181h-639v641z" />
<glyph unicode="&#x21a9;" horiz-adv-x="1748" d="M600 1047l127 -127l-154 -154l-98 -82l2 -8l185 12h495q45 0 88 12.5t76 38t52.5 65.5t19.5 95t-19.5 95t-52.5 65.5t-76 38t-88 12.5v178q90 0 171 -24.5t141.5 -73.5t96.5 -123t36 -172t-36 -172t-96.5 -124t-141.5 -74.5t-171 -24.5h-495l-185 12l-2 -8l98 -82 l154 -154l-127 -127l-453 453z" />
<glyph unicode="&#x21aa;" horiz-adv-x="1748" d="M1149 141l-127 127l154 154l98 82l-2 8l-185 -12h-495q-90 0 -171 24.5t-141.5 74.5t-96.5 124t-36 172t36 172t96.5 123t141.5 73.5t171 24.5v-178q-47 0 -89 -12.5t-75 -38t-52.5 -65.5t-19.5 -95t19.5 -95t52.5 -65.5t75 -38t89 -12.5h495l185 -12l2 8l-98 82 l-154 154l127 127l453 -453z" />
<glyph unicode="&#x21b0;" horiz-adv-x="1748" d="M764 1454l127 -127l-154 -153l-96 -82l2 -7l182 11h537v-1096h-186v909h-351l-182 11l-2 -7l96 -84l154 -153l-127 -125l-451 450z" />
<glyph unicode="&#x21b1;" horiz-adv-x="1748" d="M985 551l-127 125l154 153l96 84l-2 7l-182 -11h-351v-909h-186v1096h537l182 -11l2 7l-96 82l-154 153l127 127l451 -453z" />
<glyph unicode="&#x21b2;" horiz-adv-x="1748" d="M764 879l127 -125l-154 -154l-96 -84l2 -6l182 10h351v910h186v-1096h-537l-182 10l-2 -6l96 -82l154 -154l-127 -127l-451 453z" />
<glyph unicode="&#x21b3;" horiz-adv-x="1748" d="M985 -25l-127 127l154 154l96 82l-2 6l-182 -10h-537v1096h186v-910h351l182 -10l2 6l-96 84l-154 154l127 125l451 -451z" />
<glyph unicode="&#x21b6;" horiz-adv-x="1748" d="M39 539l125 129l153 -156l82 -96l9 2l-11 182v74q0 141 41 268t123 222.5t205 151.5t287 56t287.5 -56t205.5 -151.5t123 -222.5t41 -268h-186q0 100 -27 194.5t-84 167t-146 116.5t-214 44q-123 0 -212 -43t-146.5 -115.5t-84 -167t-26.5 -196.5v-74l-11 -182l7 -2 l82 96l153 156l127 -129l-453 -451z" />
<glyph unicode="&#x21b7;" horiz-adv-x="1748" d="M807 539l127 129l153 -156l82 -96l7 2l-11 182v74q0 102 -26.5 196.5t-84 167t-146.5 115.5t-212 43q-125 0 -214 -44t-146 -116.5t-84 -167t-27 -194.5h-186q0 141 41 268t123 222.5t205.5 151.5t287.5 56t287 -56t205 -151.5t123 -222.5t41 -268v-74l-11 -182l9 -2 l82 96l153 156l125 -129l-450 -451z" />
<glyph unicode="&#x21ba;" horiz-adv-x="1748" d="M1487 1430v-179h-209l-133 9l-2 -7l78 -65q57 -47 116.5 -101.5t107.5 -123t78.5 -155.5t30.5 -200q0 -135 -53 -251.5t-144 -200.5t-214 -132.5t-262 -48.5q-143 0 -268.5 50.5t-218.5 137.5t-146 205.5t-53 256.5q0 193 87 341t246 261l111 -135q-129 -90 -192.5 -200 t-63.5 -267q0 -104 39 -191.5t106.5 -150t158.5 -97t194 -34.5q104 0 192 33.5t153.5 95t102.5 145.5t37 182q0 78 -18.5 138.5t-52 112.5t-82 99.5t-105.5 96.5l-86 75l-6 -2l10 -131v-206h-180v639h641z" />
<glyph unicode="&#x21bb;" horiz-adv-x="1748" d="M901 791h-178v206l10 131l-6 2l-86 -75q-57 -49 -105.5 -96.5t-82 -99.5t-52 -112.5t-18.5 -138.5q0 -98 37 -182t101.5 -145.5t153.5 -95t193 -33.5q102 0 193.5 34.5t159 97t106.5 149.5t39 192q0 158 -63.5 267t-192.5 200l111 135q160 -113 246.5 -261.5t86.5 -340.5 q0 -137 -54 -256t-147 -206t-218 -137.5t-267 -50.5q-139 0 -262 48.5t-214 132.5t-144 200.5t-53 251.5q0 113 30.5 200t78.5 155.5t107.5 123t116.5 101.5l78 65l-2 7l-133 -9h-209v179h639v-639z" />
<glyph unicode="&#x21c4;" horiz-adv-x="1748" d="M1149 569l-127 127l156 154l96 82l-2 8l-185 -12h-940v188h940l185 -12l2 8l-96 82l-156 153l127 127l453 -452zM600 862l127 -127l-154 -153l-98 -82l2 -8l185 12h940v-188h-940l-185 12l-2 -8l98 -82l154 -154l-127 -127l-453 453z" />
<glyph unicode="&#x21c6;" horiz-adv-x="1748" d="M600 1474l127 -127l-154 -153l-98 -82l2 -8l185 12h940v-188h-940l-185 12l-2 -8l98 -82l154 -154l-127 -127l-453 453zM1149 -43l-127 127l156 154l96 82l-2 8l-185 -12h-940v188h940l185 -12l2 8l-96 82l-156 153l127 127l453 -452z" />
<glyph unicode="&#x2202;" horiz-adv-x="1206" d="M1094 555q0 -147 -35 -257t-99.5 -181.5t-154.5 -106.5t-201 -35q-117 0 -209 38t-156.5 107.5t-98.5 169t-34 222.5q0 117 31 213t86.5 164.5t135 105.5t178.5 37q98 0 165.5 -40t114.5 -109l12 4q-27 78 -82 150.5t-130.5 140t-171 131t-201.5 121.5h338 q80 -49 170 -124t165.5 -180.5t126 -246t50.5 -324.5zM600 154q119 0 188.5 71.5t69.5 212.5v131q0 141 -69.5 213t-188.5 72t-188.5 -71.5t-69.5 -213.5v-131q0 -141 69.5 -212.5t188.5 -71.5z" />
<glyph unicode="&#x2206;" horiz-adv-x="1351" d="M94 195l436 1235h291l436 -1235v-195h-1163v195zM678 1217h-10l-338 -1012h684z" />
<glyph unicode="&#x220f;" horiz-adv-x="1464" d="M258 -410v1635h-180v205h1308v-205h-180v-1635h-231v1635h-486v-1635h-231z" />
<glyph unicode="&#x2211;" horiz-adv-x="1079" d="M1006 -410h-943v211l496 705v8l-496 705v211h943v-205h-693l457 -639v-152l-457 -639h693v-205z" />
<glyph unicode="&#x2212;" d="M137 535v182h955v-182h-955z" />
<glyph unicode="&#x2215;" horiz-adv-x="309" d="M-453 0l1035 1430h180l-1032 -1430h-183z" />
<glyph unicode="&#x221a;" horiz-adv-x="1230" d="M479 0l-248 883h-184v182h340l107 -393l127 -486h12l131 486l215 758h201l-414 -1430h-287z" />
<glyph unicode="&#x221e;" horiz-adv-x="1560" d="M422 209q-90 0 -161 28.5t-121 82t-76.5 128t-26.5 164.5t26.5 165t76.5 128t121 82t161 29q152 0 249 -67.5t148 -215.5h10q23 139 111 211t199 72q88 0 159.5 -29t121.5 -82t77 -128t27 -165t-27 -164.5t-77 -128t-121.5 -82t-159.5 -28.5q-152 0 -249 67.5t-149 215.5 h-10q-23 -139 -110.5 -211t-198.5 -72zM422 387q96 0 163.5 54.5t98.5 158.5q-35 113 -100.5 175.5t-161.5 62.5q-80 0 -128 -50.5t-48 -136.5v-78q0 -86 48 -136t128 -50zM1139 387q80 0 128 50t48 136v78q0 86 -48 136.5t-128 50.5q-96 0 -164 -54.5t-98 -158.5 q35 -113 100.5 -175.5t161.5 -62.5z" />
<glyph unicode="&#x222b;" horiz-adv-x="894" d="M90 -227h246v1474q0 121 65.5 195t204.5 74h199v-183h-246v-1474q0 -121 -65.5 -195t-204.5 -74h-199v183z" />
<glyph unicode="&#x2248;" d="M856 682q-76 0 -134 19.5t-128 54.5q-57 29 -111.5 49t-117.5 20q-47 0 -83 -14t-83 -47l-80 125q39 53 98 85.5t156 32.5q76 0 134 -19t128 -54q57 -29 111.5 -49.5t117.5 -20.5q47 0 83 14.5t83 47.5l80 -125q-39 -53 -98.5 -86t-155.5 -33zM856 246q-76 0 -134 19.5 t-128 54.5q-57 29 -111.5 49t-117.5 20q-47 0 -83 -14t-83 -47l-80 125q39 53 98 85.5t156 32.5q76 0 134 -19t128 -54q57 -29 111.5 -49.5t117.5 -20.5q47 0 83 14.5t83 47.5l80 -125q-39 -53 -98.5 -86t-155.5 -33z" />
<glyph unicode="&#x2260;" d="M246 115l104 194h-213v183h309l142 268h-451v182h549l102 195h195l-104 -195h213v-182h-312l-141 -268h453v-183h-549l-103 -194h-194z" />
<glyph unicode="&#x2264;" d="M197 0v182h835v-182h-835zM1032 1012l-594 -260v-13l594 -256v-215l-835 387v181l835 391v-215z" />
<glyph unicode="&#x2265;" d="M197 483l594 256v13l-594 260v215l835 -391v-181l-835 -387v215zM197 182h835v-182h-835v182z" />
<glyph unicode="&#x25ca;" d="M532 0l-430 715l430 715h164l430 -715l-430 -715h-164zM621 213l292 502l-292 502h-13l-293 -502l293 -502h13z" />
<glyph unicode="&#x25cc;" horiz-adv-x="1425" d="M233 236q-33 0 -55 21.5t-22 53.5q0 33 22.5 54.5t54.5 21.5q33 0 55.5 -21.5t22.5 -54.5t-22.5 -54t-55.5 -21zM139 487q-33 0 -55.5 21.5t-22.5 54.5t22.5 54.5t55.5 21.5t55.5 -21.5t22.5 -54.5t-22.5 -54.5t-55.5 -21.5zM233 739q-33 0 -55 21.5t-22 54.5t22.5 54.5 t54.5 21.5q33 0 55.5 -21.5t22.5 -54.5t-22.5 -54.5t-55.5 -21.5zM434 41q-33 0 -55.5 21.5t-22.5 54.5t22.5 54.5t55.5 21.5t55.5 -21.5t22.5 -54.5t-22.5 -54.5t-55.5 -21.5zM434 934q-33 0 -55.5 21.5t-22.5 54.5t22.5 54t55.5 21t55.5 -21.5t22.5 -53.5 q0 -33 -22.5 -54.5t-55.5 -21.5zM713 -31q-33 0 -55.5 21.5t-22.5 54.5t22.5 54.5t55.5 21.5t55.5 -21.5t22.5 -54.5t-22.5 -54.5t-55.5 -21.5zM713 1006q-33 0 -55.5 21.5t-22.5 53.5q0 33 22.5 54.5t55.5 21.5t55.5 -21.5t22.5 -54.5t-22.5 -54t-55.5 -21zM991 41 q-33 0 -55.5 21.5t-22.5 54.5t22.5 54.5t55.5 21.5t55.5 -21.5t22.5 -54.5t-22.5 -54.5t-55.5 -21.5zM991 934q-33 0 -55.5 21.5t-22.5 54.5t22.5 54t55.5 21t55.5 -21.5t22.5 -53.5q0 -33 -22.5 -54.5t-55.5 -21.5zM1192 236q-33 0 -55.5 21.5t-22.5 53.5q0 33 22.5 54.5 t55.5 21.5t55.5 -21.5t22.5 -54.5t-22.5 -54t-55.5 -21zM1286 487q-33 0 -55.5 21.5t-22.5 54.5t22.5 54.5t55.5 21.5t55.5 -21.5t22.5 -54.5t-22.5 -54.5t-55.5 -21.5zM1192 739q-33 0 -55.5 21.5t-22.5 54.5t22.5 54.5t55.5 21.5t55.5 -21.5t22.5 -54.5t-22.5 -54.5 t-55.5 -21.5z" />
<glyph unicode="&#x25fc;" horiz-adv-x="1064" d="M0 1065h1065v-1065h-1065v1065z" />
<glyph unicode="&#x2638;" horiz-adv-x="1916" d="M872 -16q-113 10 -205 41.5t-167 85.5l-84 -91l-125 123l84 80q-66 78 -104 174.5t-48 204.5l-121 -2v176l121 -2q10 109 48 205t104 174l-84 80l125 123l84 -90q76 53 168 84.5t204 42.5l-2 120h177l-3 -120q113 -10 205 -42t168 -85l84 90l125 -123l-84 -80 q66 -78 103.5 -174t48.5 -205l121 2v-176l-121 2q-10 -109 -48 -205t-104 -174l84 -80l-125 -123l-84 91q-76 -53 -168 -85t-205 -42l3 -121h-177zM717 549q-8 10 -15.5 29.5t-11.5 33.5l-284 -6q16 -145 100 -258zM690 764q4 14 11.5 33.5t15.5 29.5l-211 201 q-84 -113 -100 -258zM885 428q-14 2 -34 9t-30 12l-196 -209q49 -35 111.5 -56.5t140.5 -29.5zM821 928q10 4 29.5 11t34.5 9l-8 275q-78 -8 -140.5 -30t-111.5 -56zM958 565q63 0 94 37t31 86t-30.5 86t-94.5 37q-63 0 -93.5 -37t-30.5 -86t30.5 -86t93.5 -37zM1040 154 q78 8 140.5 29.5t111.5 56.5l-196 209q-10 -4 -29.5 -11.5t-34.5 -9.5zM1292 1137q-49 35 -111.5 56t-140.5 30l-8 -275q14 -2 33.5 -9t30.5 -11zM1411 348q84 113 100 258l-284 6q-4 -14 -11.5 -33.5t-15.5 -29.5zM1511 770q-16 145 -100 258l-211 -201q8 -10 15.5 -29.5 t11.5 -33.5z" />
<glyph unicode="&#x2713;" horiz-adv-x="1867" d="M961 0h-256l-459 969l203 96l213 -471l165 -397h9l168 397l409 895l209 -82z" />
<glyph unicode="&#x274c;" horiz-adv-x="1867" d="M1493 2l-559 561l-559 -561l-154 154l561 559l-561 559l154 153l559 -561l559 561l154 -153l-562 -559l562 -559z" />
<glyph unicode="&#x2b0e;" horiz-adv-x="1748" d="M696 635l127 125l154 -154l82 -96l8 2l-10 182v350h-910v187h1096v-537l-10 -182l6 -2l82 96l154 154l127 -125l-453 -453z" />
<glyph unicode="&#x2b0f;" horiz-adv-x="1748" d="M1602 842l-127 -125l-154 151l-82 99l-8 -2l10 -183v-538h-1094v188h908v350l10 183l-6 2l-82 -99l-154 -151l-127 125l453 452z" />
<glyph unicode="&#x2b10;" horiz-adv-x="1748" d="M147 635l125 125l154 -154l84 -96l6 2l-10 182v537h1096v-187h-910v-350l-10 -182l6 -2l84 96l152 154l127 -125l-453 -453z" />
<glyph unicode="&#x2b11;" horiz-adv-x="1748" d="M1051 842l-127 -125l-154 151l-82 99l-6 -2l10 -183v-350h910v-188h-1096v538l10 183l-6 2l-84 -99l-154 -151l-125 125l451 452z" />
<glyph unicode="&#xec00;" horiz-adv-x="2928" d="M2263 -25q-123 0 -231.5 37t-196.5 124t-151.5 230.5t-98.5 356.5h-4l-180 -573h-176l-156 491h-4l-135 -426h-176l-131 414h-7q-61 -133 -142 -188.5t-220 -55.5h-143v188h137q74 0 124 21.5t83.5 61.5t54 95.5t33.5 122.5h176l119 -372h4l135 428h176l156 -494h4 l184 578h223q20 -246 65.5 -411t113 -264t156.5 -140t200 -41q154 0 239.5 83t85.5 240v164q0 156 -81.5 239t-210.5 83q-88 0 -145.5 -32t-96.5 -75l-123 139q51 63 144.5 106.5t234.5 43.5q115 0 210 -38t162.5 -111.5t105.5 -183t38 -253.5q0 -293 -148.5 -440.5 t-406.5 -147.5z" />
<glyph unicode="&#xec01;" horiz-adv-x="2023" d="M1194 1124h223v-1124h-223v1124zM1641 1124h223v-1124h-223v1124zM748 860h-11q-12 -39 -36.5 -74.5t-63.5 -64.5t-94.5 -46.5t-130.5 -17.5q-158 0 -248 89.5t-90 263.5v114h223v-84q0 -197 190 -196h33q47 0 88 11t72 34.5t49.5 61.5t18.5 91v82h223v-1124h-223v860z " />
<glyph unicode="&#xec02;" horiz-adv-x="1179" d="M748 344h-205q-100 0 -146.5 42t-46.5 124v106h195v-110h203v405h-11q-16 -37 -42.5 -69.5t-65.5 -57t-91.5 -39t-119.5 -14.5q-74 0 -136.5 17.5t-108.5 54.5t-72.5 92t-26.5 129v100h223v-67q0 -156 188 -156h39q45 0 86 9.5t72 30t48.5 50t17.5 72.5v61h223v-618h141 v-162h-141v-344h-223v344z" />
<glyph unicode="&#xec03;" horiz-adv-x="1626" d="M748 344h-205q-100 0 -146.5 42t-46.5 124v106h195v-110h203v405h-11q-35 -76 -109.5 -128t-209.5 -52q-74 0 -136.5 17.5t-108.5 54.5t-72.5 92t-26.5 129v100h223v-67q0 -76 47 -117t141 -41h39q45 0 86 10.5t72 29.5t48.5 50t17.5 74v61h223v-618h223v618h223v-618 h142v-162h-142v-344h-223v344h-223v-344h-223v344z" />
<glyph unicode="&#xec04;" horiz-adv-x="1378" d="M367 186q-106 0 -159.5 51.5t-53.5 143.5v104h200v-112h301v-187h-288zM367 702q-106 0 -159.5 50.5t-53.5 142.5v106h200v-112h301v-187h-288zM940 387q-106 0 -159.5 51t-53.5 144v104h201v-113h301v-186h-289z" />
<glyph unicode="&#xec05;" horiz-adv-x="1200" d="M268 -874l299 296v2581h-301v182h297q117 0 172.5 -59.5t55.5 -165.5v-2523q0 -53 -10.5 -88t-49.5 -74l-313 -317z" />
<glyph unicode="&#xec06;" horiz-adv-x="3393" d="M1585 444h-1524v205h1524v1536h223v-1536h1524v-205h-1524v-1536h-223v1536z" />
<glyph unicode="&#xec07;" horiz-adv-x="0" d="M-270 1722h209v-397h-209v397z" />
<glyph unicode="&#xec08;" horiz-adv-x="0" d="M-635 1722h209v-397h-209v397zM-270 1722h209v-397h-209v397z" />
<glyph unicode="&#xec09;" horiz-adv-x="1335" d="M379 1722h209v-397h-209v397zM744 1722h209v-397h-209v397zM668 406q-82 0 -119 38.5t-37 98.5v39q0 59 37 98t119 39t118.5 -39t36.5 -98v-39q0 -59 -36.5 -98t-118.5 -39zM668 160q156 0 244.5 83t88.5 244v150q0 162 -89 245t-244 83q-156 0 -245 -83t-89 -245v-150 q0 -162 89 -244.5t245 -82.5zM668 -25q-127 0 -230.5 41t-175.5 117t-110.5 185.5t-38.5 244.5t38.5 243.5t110.5 184.5t175.5 117t230.5 41t229 -41t175 -117t112 -184.5t39 -243.5t-39 -244.5t-112 -185.5t-175 -117t-229 -41z" />
<glyph unicode="&#xec0a;" horiz-adv-x="1335" d="M668 160q150 0 233.5 83t83.5 244v150q0 162 -84 245t-233 83q-150 0 -234 -83t-84 -245v-150q0 -162 84 -244.5t234 -82.5zM381 1722h209v-397h-209v397zM668 -25q-127 0 -230.5 41t-175.5 117t-110.5 185.5t-38.5 244.5t38.5 243.5t110.5 184.5t175.5 117t230.5 41 t229 -41t175 -117t112 -184.5t39 -243.5t-39 -244.5t-112 -185.5t-175 -117t-229 -41zM745 1722h209v-397h-209v397z" />
<glyph unicode="&#xec0b;" horiz-adv-x="1554" d="M791 -23q-319 0 -493.5 129.5t-174.5 411.5q0 106 36 200.5t129 170.5t251.5 128t404.5 75v6l-602 159v173l557 145v4l-442 119v139q96 18 160.5 37.5t103.5 48.5t55.5 71t16.5 103v88h190v-102q0 -78 -19.5 -129t-57.5 -85t-91 -53.5t-121 -29.5v-4l441 -119v-168 l-555 -149v-5l649 -170v-210q-233 -4 -398 -32t-269.5 -75t-153 -112.5t-48.5 -143.5v-154q0 -82 28 -137t82 -89t134 -48t187 -14q225 0 322 75.5t97 214.5v54q0 66 -30.5 108.5t-79.5 67.5l133 158q92 -53 145.5 -141.5t53.5 -219.5q0 -111 -38 -202t-117 -156.5 t-199.5 -101.5t-286.5 -36z" />
<glyph unicode="&#xec10;" horiz-adv-x="1335" d="M668 406q-82 0 -119 38.5t-37 98.5v39q0 59 37 98t119 39t118.5 -39t36.5 -98v-39q0 -59 -36.5 -98t-118.5 -39zM668 160q156 0 244.5 83t88.5 244v150q0 162 -89 245t-244 83q-156 0 -245 -83t-89 -245v-150q0 -162 89 -244.5t245 -82.5zM668 -25q-127 0 -230.5 41 t-175.5 117t-110.5 185.5t-38.5 244.5t38.5 243.5t110.5 184.5t175.5 117t230.5 41t229 -41t175 -117t112 -184.5t39 -243.5t-39 -244.5t-112 -185.5t-175 -117t-229 -41zM564 1722h209v-397h-209v397z" />
<glyph unicode="&#xec11;" horiz-adv-x="542" d="M160 1124h223v-1124h-223v1124z" />
<glyph unicode="&#xec12;" horiz-adv-x="989" d="M160 1124h223v-1124h-223v1124zM606 1124h223v-1124h-223v1124z" />
<glyph unicode="&#xece0;" horiz-adv-x="2410" d="M2138 1237q-92 0 -176 -30.5t-151.5 -86t-114.5 -130.5t-66 -163h428v-225h-428q18 -88 65.5 -162.5t115 -130t151.5 -86t176 -30.5q39 0 76 6v-219q-12 -2 -33.5 -3.5t-44.5 -1.5q-152 0 -285 58.5t-233 159t-158.5 234.5t-58.5 288t58.5 288t158.5 234t233.5 158.5 t284.5 58.5q23 0 44.5 -1t33.5 -3v-219q-37 6 -76 6zM348 715q0 -109 41 -203t111.5 -166t166 -112.5t201.5 -40.5q39 0 76 6v-219q-12 -2 -33.5 -3.5t-44.5 -1.5q-152 0 -284.5 58.5t-233 159t-159 234.5t-58.5 288t58.5 288t159 234t233.5 158.5t284 58.5q23 0 44.5 -1 t33.5 -3v-219q-37 6 -76 6q-106 0 -201.5 -41t-166 -112.5t-111.5 -167t-41 -201.5z" />
<glyph unicode="&#xefcc;" horiz-adv-x="2142" d="M1153 715q0 -57 20.5 -106.5t55.5 -85.5t83 -56.5t101 -20.5q70 0 127 33t92 86l129 -92q-59 -84 -148 -132t-196 -48q-88 0 -164.5 32.5t-134 90t-90.5 134.5t-33 165t33 164.5t90.5 134t134 90.5t164.5 33q106 0 195.5 -48.5t148.5 -132.5l-129 -92q-35 53 -92 86 t-127 33q-53 0 -101 -20.5t-83 -56.5t-55.5 -85t-20.5 -106zM410 111l-148 -107v1426h621l-125 -156h-348v-481h278q14 137 76.5 256.5t161 209t224.5 139.5t269 50q182 0 336 -82t256 -223l-129 -94q-37 51 -86 96t-109.5 78.5t-129 52t-142.5 18.5q-111 0 -214 -42 t-183 -118.5t-128 -183t-48 -235.5t48 -235.5t128 -183.5t183.5 -119t213.5 -42q74 0 142.5 18.5t129 52.5t109.5 78t86 97l129 -94q-102 -141 -255.5 -223t-336.5 -82q-143 0 -269 50t-224.5 139t-161 208t-76.5 258h-278v-526z" />
<glyph unicode="&#xfb02;" horiz-adv-x="1280" d="M215 883h-162v182h162v176q0 129 67.5 202t202.5 73h177v-183h-224v-268h224v-182h-224v-883h-223v883zM1083 0q-115 0 -171 58.5t-56 162.5v1295h223v-1334h147v-182h-143z" />
<glyph horiz-adv-x="1212" d="M829 176h-10q-35 -94 -113.5 -147.5t-185.5 -53.5q-203 0 -313.5 146.5t-110.5 410.5t110.5 411t313.5 147q106 0 185 -52.5t114 -148.5h10v176h224v-1065h-224v176zM588 168q102 0 171.5 50t69.5 132v365q0 82 -69.5 132t-171.5 50q-117 0 -186.5 -74.5t-69.5 -197.5 v-185q0 -123 69.5 -197.5t186.5 -74.5z" />
<glyph horiz-adv-x="1212" d="M1053 47q0 -227 -126 -354t-368 -127q-141 0 -238.5 42t-158.5 107l125 146q104 -111 270 -111q133 0 202.5 73t69.5 208v153h-10q-35 -94 -113.5 -147t-185.5 -53q-203 0 -313.5 145t-110.5 408q0 262 110.5 407.5t313.5 145.5q106 0 185 -52.5t114 -148.5h10v176h224 v-1018zM588 176q102 0 171.5 50t69.5 132v357q0 82 -69.5 132t-171.5 50q-117 0 -186.5 -74.5t-69.5 -197.5v-176q0 -123 69.5 -198t186.5 -75z" />
<glyph horiz-adv-x="1112" d="M1094 -100q0 -166 -127 -250t-414 -84q-131 0 -222 17.5t-149.5 50t-85 79.5t-26.5 109q0 88 48 137t134 68v22q-121 39 -121 164q0 84 56.5 127t134.5 61v9q-96 45 -146.5 125.5t-50.5 189.5q0 164 110.5 264.5t313.5 100.5q98 0 178 -25h342v-162h-149q57 -74 57 -178 q0 -162 -110.5 -261t-315.5 -99q-74 0 -139 16q-41 -14 -72 -40t-31 -67q0 -43 39 -61t111 -18h262q197 0 285 -79t88 -216zM551 526q98 0 152.5 44t54.5 137v41q0 92 -54.5 136t-152.5 44t-152.5 -44t-54.5 -136v-41q0 -92 54.5 -136.5t152.5 -44.5zM885 -125q0 55 -42 88 t-153 33h-360q-74 -43 -74 -123q0 -66 52 -105.5t177 -39.5h140q260 0 260 147z" />
<glyph d="M614 -25q-133 0 -231 50.5t-161.5 144.5t-94.5 231.5t-31 313.5q0 174 31 312t94.5 232.5t161.5 144.5t231 50q266 0 392.5 -194.5t126.5 -544.5t-126.5 -545t-392.5 -195zM614 172q74 0 126.5 29.5t85 85t47 132.5t14.5 171v250q0 94 -14.5 170.5t-47 132t-85 85 t-126.5 29.5t-126 -29.5t-84.5 -85t-47 -132t-14.5 -170.5v-250q0 -94 14.5 -171t47 -132.5t84.5 -85t126 -29.5zM616 592q-61 0 -90.5 31.5t-29.5 78.5v25q0 49 29.5 81t90.5 32q59 0 88 -32t29 -81v-25q0 -47 -29 -78.5t-88 -31.5z" />
<glyph d="M614 -25q-133 0 -231 50.5t-161.5 144.5t-94.5 231.5t-31 313.5q0 174 31 312t94.5 232.5t161.5 144.5t231 50q266 0 392.5 -194.5t126.5 -544.5t-126.5 -545t-392.5 -195zM614 172q74 0 126.5 29.5t85 85t47 132.5t14.5 171v295l-2 16l-506 -561q29 -80 86 -124t149 -44 zM850 1090q-31 78 -87 122.5t-149 44.5q-74 0 -126 -29.5t-84.5 -85t-47 -132t-14.5 -170.5v-314z" />
<glyph horiz-adv-x="1212" d="M829 176h-10q-35 -94 -113.5 -147.5t-185.5 -53.5q-203 0 -313.5 146.5t-110.5 410.5t110.5 411t313.5 147q106 0 185 -52.5t114 -148.5h10v176h224v-1065h-224v176zM588 168q102 0 171.5 50t69.5 132v365q0 82 -69.5 132t-171.5 50q-117 0 -186.5 -74.5t-69.5 -197.5 v-185q0 -123 69.5 -197.5t186.5 -74.5zM627 1192l-139 68l186 368l195 -94z" />
<glyph horiz-adv-x="1212" d="M829 176h-10q-35 -94 -113.5 -147.5t-185.5 -53.5q-203 0 -313.5 146.5t-110.5 410.5t110.5 411t313.5 147q106 0 185 -52.5t114 -148.5h10v176h224v-1065h-224v176zM588 168q102 0 171.5 50t69.5 132v365q0 82 -69.5 132t-171.5 50q-117 0 -186.5 -74.5t-69.5 -197.5 v-185q0 -123 69.5 -197.5t186.5 -74.5zM717 1593l246 -307l-115 -88l-244 240l-243 -240l-115 88l246 307h225z" />
<glyph horiz-adv-x="1212" d="M829 176h-10q-35 -94 -113.5 -147.5t-185.5 -53.5q-203 0 -313.5 146.5t-110.5 410.5t110.5 411t313.5 147q106 0 185 -52.5t114 -148.5h10v176h224v-1065h-224v176zM588 168q102 0 171.5 50t69.5 132v365q0 82 -69.5 132t-171.5 50q-117 0 -186.5 -74.5t-69.5 -197.5 v-185q0 -123 69.5 -197.5t186.5 -74.5zM400 1249q-70 0 -98.5 31t-28.5 78v37q0 47 28.5 77.5t98.5 30.5t98.5 -30.5t28.5 -77.5v-37q0 -47 -28.5 -78t-98.5 -31zM809 1249q-70 0 -98.5 31t-28.5 78v37q0 47 29 77.5t98 30.5q70 0 98.5 -30.5t28.5 -77.5v-37 q0 -47 -28.5 -78t-98.5 -31z" />
<glyph horiz-adv-x="1212" d="M829 176h-10q-35 -94 -113.5 -147.5t-185.5 -53.5q-203 0 -313.5 146.5t-110.5 410.5t110.5 411t313.5 147q106 0 185 -52.5t114 -148.5h10v176h224v-1065h-224v176zM588 168q102 0 171.5 50t69.5 132v365q0 82 -69.5 132t-171.5 50q-117 0 -186.5 -74.5t-69.5 -197.5 v-185q0 -123 69.5 -197.5t186.5 -74.5zM340 1534l195 94l186 -368l-139 -68z" />
<glyph horiz-adv-x="1212" d="M829 176h-10q-35 -94 -113.5 -147.5t-185.5 -53.5q-203 0 -313.5 146.5t-110.5 410.5t110.5 411t313.5 147q106 0 185 -52.5t114 -148.5h10v176h224v-1065h-224v176zM588 168q102 0 171.5 50t69.5 132v365q0 82 -69.5 132t-171.5 50q-117 0 -186.5 -74.5t-69.5 -197.5 v-185q0 -123 69.5 -197.5t186.5 -74.5zM604 1163q-55 0 -104 19.5t-85 54.5t-56.5 83t-20.5 103t20.5 103.5t56.5 83.5t85 54t104 19t104.5 -19t85.5 -54t56.5 -83t20.5 -104q0 -55 -20.5 -103t-56.5 -83t-85.5 -54.5t-104.5 -19.5zM604 1286q113 0 113 109v57 q0 109 -113 109t-112 -109v-57q-1 -109 112 -109z" />
<glyph horiz-adv-x="1212" d="M829 176h-10q-35 -94 -113.5 -147.5t-185.5 -53.5q-203 0 -313.5 146.5t-110.5 410.5t110.5 411t313.5 147q106 0 185 -52.5t114 -148.5h10v176h224v-1065h-224v176zM588 168q102 0 171.5 50t69.5 132v365q0 82 -69.5 132t-171.5 50q-117 0 -186.5 -74.5t-69.5 -197.5 v-185q0 -123 69.5 -197.5t186.5 -74.5zM756 1243q-51 0 -88 16.5t-72 32.5q-47 23 -83 36t-68 13q-35 0 -61.5 -14t-57.5 -41l-84 107q31 47 83 82.5t128 35.5q51 0 88 -16t72 -33q47 -23 82.5 -36t68.5 -13q35 0 61.5 14.5t57.5 40.5l84 -106q-31 -47 -83 -83t-128 -36z " />
<glyph horiz-adv-x="1181" d="M160 0v1245q0 119 65.5 195t202.5 76h258v-183h-309v-268h692v-170l-321 -446q184 -23 287.5 -123.5t103.5 -286.5q0 -223 -140.5 -336t-380.5 -113h-129v183h117q156 -4 228.5 55t72.5 188v39q0 127 -75.5 180.5t-243.5 53.5h-39v180l295 414h-467v-883h-217z" />
<glyph horiz-adv-x="1280" d="M262 -186q61 92 149.5 149t215.5 57q100 0 169.5 -44t100.5 -121h10v807q0 147 -76.5 226t-212.5 79q-113 0 -196.5 -50.5t-112.5 -134.5l88 -34q57 -23 80 -52.5t23 -87.5v-383q0 -106 -55.5 -165.5t-172.5 -59.5h-114v182h118v439l-176 73q6 100 48 184.5t111 144.5 t162 93t204 33q121 0 215 -33t158.5 -92t98 -144t33.5 -190v-1001h-188q-29 70 -91.5 122t-160.5 52q-96 0 -165.5 -52.5t-104.5 -121.5z" />
<glyph horiz-adv-x="1280" d="M279 -123h100q41 0 67.5 12.5t42 32t22.5 46t9 55.5h158q6 -53 32.5 -99.5t92.5 -46.5q47 0 75.5 32t28.5 95v658q0 147 -76.5 226t-212.5 79q-113 0 -196.5 -50.5t-112.5 -134.5l88 -34q57 -23 80 -52.5t23 -87.5v-383q0 -106 -55.5 -165.5t-172.5 -59.5h-114v182h118 v439l-176 73q6 100 48 184.5t111 144.5t162 93t204 33q121 0 215 -33t158.5 -92t98 -144t33.5 -190v-684q0 -147 -71.5 -227t-206.5 -80q-88 0 -156.5 43t-89.5 127h-12q-41 -170 -221 -170h-94v178z" />
<glyph horiz-adv-x="1882" d="M1298 -25q-207 0 -320.5 110t-113.5 300v277q0 147 -70.5 226t-205.5 79q-109 0 -189 -50.5t-108 -134.5l90 -34q57 -23 79.5 -52.5t22.5 -87.5v-426h119v-182h-113q-117 0 -173 59.5t-56 165.5v396l-176 73q8 100 48 184.5t106.5 144.5t156.5 93t195 33q121 0 214 -34 t155.5 -94t95 -144t32.5 -187v-301q0 -111 54.5 -171t156.5 -60q104 0 157.5 60.5t53.5 170.5v735h224v-739q0 -190 -114 -300t-321 -110z" />
<glyph horiz-adv-x="1882" d="M1298 -25q-207 0 -320.5 110t-113.5 300v277q0 147 -70.5 226t-205.5 79q-109 0 -189 -50.5t-108 -134.5l90 -34q57 -23 79.5 -52.5t22.5 -87.5v-426h119v-182h-113q-117 0 -173 59.5t-56 165.5v396l-176 73q8 100 48 184.5t106.5 144.5t156.5 93t195 33q121 0 214 -34 t155.5 -94t95 -144t32.5 -187v-301q0 -111 54.5 -171t156.5 -60q104 0 157.5 60.5t53.5 170.5v735h224v-739q0 -190 -114 -300t-321 -110zM260 -221h1473v-170h-1473v170z" />
<glyph horiz-adv-x="1120" d="M47 809h227l277 -629h6q106 0 163.5 77t57.5 218v176q0 137 -59.5 214t-163.5 77h-70v182h74q223 0 340 -147.5t117 -413.5t-120 -414.5t-335 -148.5h-158zM162 -221h815v-170h-815v170z" />
<glyph horiz-adv-x="1282" d="M264 451h-119v182h164q102 0 135 -90l129 -369h66q86 0 137 82t51 227v176q0 145 -77.5 226.5t-219.5 81.5q-68 0 -124 -16.5t-99 -44t-75.5 -62.5t-55.5 -72l-141 125q31 51 76 96t107.5 80t142 55.5t180.5 20.5q180 0 303 -82q14 117 141 117h279v-195h-332v-6 q66 -72 99.5 -175t33.5 -237q0 -133 -30.5 -239.5t-88 -180t-137.5 -112.5t-180 -39h-205z" />
<glyph horiz-adv-x="1245" d="M721 -25q-72 0 -126 17.5t-93 47.5t-65.5 67.5t-41.5 78.5h-10v-186h-223v1124h223v-757q0 -51 22.5 -89t57.5 -63t80 -36t92 -11q129 0 183 70.5t54 197.5v688h224v-712q0 -211 -98.5 -324t-278.5 -113zM160 -221h936v-170h-936v170z" />
<glyph horiz-adv-x="1263" d="M518 -25q-176 0 -272 114t-96 323v712h223v-688q0 -131 54 -199.5t175 -68.5q45 0 90 11t81 36t57.5 62.5t21.5 89.5v757h223v-942h119v-182h-147q-86 0 -129.5 50t-47.5 140h-10q-35 -94 -120 -154.5t-222 -60.5zM150 -221h1044v-170h-1044v170z" />
<glyph horiz-adv-x="1359" d="M160 1124h223v-551l-12 -323h10l237 289h117l236 -289h10l-10 270v82q0 57 -26.5 86t-92.5 29h-86v170h108q53 0 86 24.5t33 92.5v153h224v-127q0 -170 -179 -201v-12q84 -25 120 -81t36 -144v-592h-217l-299 360l-301 -360h-217v1124z" />
<glyph horiz-adv-x="897" d="M449 821q78 0 127 42t49 122v148q0 80 -49.5 121.5t-126.5 41.5q-78 0 -127.5 -42t-49.5 -121v-148q0 -80 49.5 -122t127.5 -42zM449 664q-174 0 -275.5 106.5t-101.5 288.5t101 288.5t276 106.5q174 0 275 -106.5t101 -288.5t-101 -288.5t-275 -106.5z" />
<glyph horiz-adv-x="849" d="M256 770q170 6 246 67.5t76 184.5v82q0 92 -48.5 143t-130.5 51q-72 0 -112.5 -35.5t-40.5 -86.5v-23q0 -43 21.5 -70.5t70.5 -27.5q12 0 24.5 1t22.5 3l12 -144q-37 -10 -84 -10q-123 0 -190.5 65.5t-67.5 190.5q0 68 25.5 122t72 92t111 58.5t142.5 20.5 q174 0 273 -103.5t99 -287.5q0 -219 -132 -328.5t-370 -120.5z" />
<glyph horiz-adv-x="1226" d="M612 664q-180 0 -281.5 34.5t-151.5 86t-61.5 111.5t-11.5 110v579h191v-573q0 -41 10 -75t37 -63q23 -25 66 -39t114 -14h178q72 0 114 14.5t67 38.5q27 29 36 63t9 75v217q0 68 -51 67q-57 0 -60 -104h-121q0 55 -14 79.5t-43 24.5q-31 0 -43 -19.5t-12 -51.5v-66 q0 -33 17 -59.5t65 -26.5q14 0 22 1t17 3l14 -119q-20 -6 -44 -8t-44 -2q-123 0 -176.5 65.5t-53.5 188.5q0 119 46.5 185.5t144.5 66.5q66 0 108.5 -34t55.5 -89h10q10 53 53 88t111 35q96 0 143 -59.5t47 -157.5v-231q0 -51 -12 -110.5t-62.5 -111t-153 -86t-280.5 -34.5z " />
<glyph horiz-adv-x="1120" d="M428 664q-172 0 -263 108.5t-91 308.5q0 174 69.5 273.5t212.5 99.5q88 0 134.5 -41t56.5 -82h12q6 20 21.5 42t40 40.5t61.5 29.5t88 11q121 0 182.5 -67.5t61.5 -190.5v-514h-193v500q0 51 -20.5 82.5t-67.5 31.5t-70.5 -30.5t-23.5 -79.5v-221h-180v221 q0 41 -14.5 75.5t-67.5 34.5t-78 -46t-25 -124v-96q0 -92 40 -150.5t143 -58.5q14 0 30.5 1t28.5 5l23 -149q-23 -6 -55.5 -10t-55.5 -4z" />
<glyph horiz-adv-x="835" d="M463 682q-199 0 -301.5 94t-102.5 273q0 92 29 151.5t71 96t91 56t90 31.5l160 46q29 10 49 18t26 43l15 94h176l-16 -129q-4 -23 -10.5 -43t-24 -38.5t-48 -35t-83.5 -30.5l-164 -45q-78 -23 -119 -62t-41 -123v-75q0 -35 10.5 -66t34 -53.5t62.5 -34.5t96 -12h170v6 q-70 14 -123 57t-53 127v14q0 61 47 98.5t145 37.5h107v-156h-109v-35q0 -27 8.5 -53.5t24.5 -48t40.5 -34.5t55.5 -13h2v-156h-315z" />
<glyph horiz-adv-x="835" d="M463 682q-199 0 -301.5 94t-102.5 273q0 125 50.5 189.5t119.5 94.5q-61 43 -61 123q0 74 48 119t130 45q76 0 121 -45t45 -119v-17t-4 -18l14 4q25 8 41.5 22.5t20.5 43.5l12 94h170l-16 -129q-4 -23 -10.5 -43t-24 -38.5t-48 -35t-83.5 -30.5l-164 -45 q-78 -23 -119 -62t-41 -123v-75q0 -35 10.5 -66t34 -53.5t62.5 -34.5t96 -12h170v6q-70 14 -123 57t-53 127v14q0 61 47 98.5t145 37.5h107v-156h-109v-35q0 -27 8.5 -53.5t24.5 -48t40.5 -34.5t55.5 -13h2v-156h-315zM342 1384q39 0 56.5 18.5t17.5 47.5v14 q0 29 -17.5 47.5t-56.5 18.5t-56.5 -18.5t-17.5 -47.5v-14q0 -29 17.5 -47.5t56.5 -18.5z" />
<glyph horiz-adv-x="854" d="M403 664q-123 0 -205.5 55t-123.5 160l145 69q25 -57 66 -92t112 -35q86 0 135.5 44t49.5 126v142q0 80 -45 121.5t-119 41.5q-72 0 -114 -35.5t-60 -93.5l-160 9l-72 409h183l41 -303h10q20 76 78.5 124t152.5 48q141 0 223 -105.5t82 -285.5q0 -186 -101.5 -292.5 t-277.5 -106.5z" />
<glyph horiz-adv-x="1296" d="M397 664q-156 0 -239.5 108.5t-83.5 308.5q0 182 53 277.5t172 95.5q66 0 110 -34t54 -89h12q12 55 55 89t117 34q98 0 150.5 -62.5t52.5 -181.5v-387h24q123 0 123 176v586h193v-602q0 -141 -82 -221t-234 -80h-217v535q0 33 -13 56t-48 23t-51.5 -24.5t-18.5 -79.5 h-118q0 55 -14.5 79.5t-49.5 24.5q-41 0 -55.5 -36.5t-14.5 -114.5v-115q0 -92 35 -150.5t121 -58.5q25 0 55 6l23 -149q-23 -6 -54.5 -10t-56.5 -4z" />
<glyph horiz-adv-x="937" d="M301 664q-111 0 -176.5 82.5t-65.5 267.5q0 102 25 169.5t64.5 109.5t89 62.5t100.5 30.5l262 44q37 6 54.5 18t23.5 43l14 94h176l-16 -129q-4 -31 -12.5 -55.5t-26.5 -42t-49 -29.5t-78 -20l-270 -45q-72 -14 -114 -59.5t-42 -153.5v-90q0 -70 16.5 -105t63.5 -35 q43 0 56.5 32t13.5 85v39h137v-39q0 -55 17.5 -86t64.5 -31q74 0 73 76v66q0 61 -57 61h-11t-18 -2l-14 127q16 4 38 6t38 2q88 0 147.5 -54t59.5 -169q0 -135 -62.5 -202.5t-167.5 -67.5q-78 0 -119.5 33.5t-56.5 90.5h-10q-12 -57 -53 -90.5t-115 -33.5z" />
<glyph horiz-adv-x="1048" d="M375 664q-147 0 -224 105t-77 318q0 180 70.5 273.5t205.5 93.5q184 0 254 -211l8 4q-8 31 -8 62q0 72 38 108.5t89 36.5q70 0 99.5 -46t31.5 -124h6l39 301h180l-69 -407l-160 -11q0 57 -27.5 93t-76.5 36q-35 0 -58.5 -23.5t-23.5 -72.5q0 -33 14 -76l141 -442h-200 l-150 477q-20 68 -45.5 102.5t-71.5 34.5q-47 0 -66.5 -37.5t-19.5 -97.5v-178q0 -68 29 -115t94 -47h20.5t28.5 4l7 -153q-12 -4 -36 -6t-42 -2z" />
<glyph d="M745 1249q-45 0 -77.5 13.5t-61.5 29.5q-39 18 -67.5 30.5t-59.5 12.5q-29 0 -54.5 -13t-53.5 -38l-84 102q31 47 79 83t117 36q45 0 78 -13t62 -30q39 -20 67.5 -31.5t59.5 -11.5q55 0 108 51l84 -102q-31 -47 -79 -83t-118 -36z" />
<glyph horiz-adv-x="0" d="M-432 1956q0 86 48 139t140 53q63 0 110.5 -33.5t63.5 -101.5h11q16 68 63 101.5t111 33.5q92 0 140 -53t48 -139v-37h154v-143h-322v153q0 76 -67 76q-31 0 -49.5 -18.5t-18.5 -65.5v-51h-129v51q0 47 -18.5 65.5t-49.5 18.5q-68 0 -67 -76v-153h-168v180zM-219 1325 q-106 0 -159.5 51t-53.5 144v143h196v-162h533v-176h-516z" />
<glyph horiz-adv-x="0" d="M-565 1755q-92 0 -149.5 62.5t-57.5 167.5q0 115 68.5 184t191.5 69h530v-137h-530q-47 0 -72.5 -29.5t-25.5 -78.5q0 -51 22.5 -77t61.5 -26q25 0 41 11.5t25 28t13.5 37t6.5 38.5h125q2 -18 6 -38.5t13 -37t25.5 -28t41.5 -11.5q39 0 61.5 26t22.5 77v45h163v-68 q0 -102 -54 -158.5t-152 -56.5q-66 0 -116 31t-69 98h-8q-18 -68 -68 -98.5t-116 -30.5zM-516 1325q-106 0 -159.5 51t-53.5 144v143h197v-162h532v-176h-516z" />
<glyph horiz-adv-x="0" d="M-340 1722h209v-397h-209v397z" />
<glyph horiz-adv-x="0" d="M-883 1501h750v-176h-750v176z" />
<glyph horiz-adv-x="0" d="M-481 1499h-174v164h174v174h174v-174h174v-164h-174v-174h-174v174z" />
<glyph horiz-adv-x="0" d="M-313 1391q43 0 68.5 23.5t25.5 64.5v32q0 41 -25.5 64.5t-68.5 23.5t-69 -23.5t-26 -64.5v-32q0 -41 26 -64.5t69 -23.5zM-313 1255q-115 0 -182.5 68t-67.5 172t67.5 172t182.5 68t182.5 -68t67.5 -172t-67.5 -172t-182.5 -68z" />
<glyph horiz-adv-x="0" d="M-883 1501h541v162h209v-338h-750v176z" />
<glyph horiz-adv-x="0" d="M-883 1501h250v162h172v-178h156v178h172v-338h-750v176z" />
<glyph horiz-adv-x="0" d="M-553 1325q-106 0 -159.5 51t-53.5 144v143h197v-162h436v-176h-420z" />
<glyph horiz-adv-x="0" d="M-733 1468q0 92 53 143.5t160 51.5h420v-176h-437v-162h-196v143z" />
<glyph horiz-adv-x="0" d="M-879 1501h398q-2 12 -2 18.5v16.5q0 96 61.5 151.5t163.5 55.5t163.5 -55.5t61.5 -151.5q0 -98 -61.5 -154.5t-163.5 -56.5h-621v176zM-258 1440q45 0 69.5 22.5t24.5 61.5v20q0 39 -24.5 61.5t-69.5 22.5q-43 0 -67.5 -22.5t-24.5 -61.5v-20q0 -39 24.5 -61.5 t67.5 -22.5z" />
<glyph horiz-adv-x="0" d="M-772 1501h145v72q0 45 -19.5 64.5t-70.5 19.5h-55v160h137q98 0 148.5 -42t50.5 -114q0 -43 -23.5 -85t-70.5 -65v-10h395v-160h-637v160z" />
<glyph horiz-adv-x="0" d="M-694 1305q-94 0 -151.5 67.5t-57.5 179.5q0 131 76.5 200t212.5 69h489v-148h-489q-55 0 -87 -28.5t-32 -88.5q0 -47 20.5 -77.5t61.5 -30.5q47 0 64.5 39t17.5 84h110q0 -45 17.5 -84t64.5 -39q41 0 61.5 30.5t20.5 77.5v50h170v-74q0 -109 -56.5 -168t-152.5 -59 q-59 0 -107 32.5t-69 104.5h-8q-20 -72 -68.5 -104.5t-107.5 -32.5z" />
<glyph horiz-adv-x="0" d="M-897 1556q0 78 45 127.5t125 49.5q59 0 103 -35t57 -101h12q12 66 56 101t104 35q80 0 125 -49.5t45 -127.5v-55h110v-160h-272v166q0 35 -14.5 54.5t-42.5 19.5q-59 0 -60 -84v-51h-114v51q0 84 -60 84q-29 0 -43 -19.5t-14 -54.5v-166h-162v215z" />
<glyph horiz-adv-x="0" d="M-238 1319q-111 0 -166 43t-55 117q0 61 50.5 111t166.5 55v6q-78 16 -113.5 53t-35.5 88q0 66 56 113t165 47q51 0 92 -9.5t68 -25.5l-43 -121q-18 10 -43 18.5t-49 8.5q-45 0 -69 -17.5t-24 -46.5q0 -35 26 -52t67 -17h45v-105h-88q-109 0 -109 -72q0 -66 109 -65h55 v-129h-105z" />
<glyph horiz-adv-x="0" d="M-195 2089h195v-313h-195v313z" />
<glyph horiz-adv-x="0" d="M-162 1898h-147v138h147v143h162v-143h147v-138h-147v-143h-162v143z" />
<glyph horiz-adv-x="0" d="M-100 1880q88 0 88 82v33q0 82 -88 82t-88 -82v-33q0 -82 88 -82zM-100 1753q-111 0 -174.5 63.5t-63.5 161.5t63.5 162t174.5 64t174 -63.5t63 -162.5q0 -98 -63 -161.5t-174 -63.5z" />
<glyph horiz-adv-x="0" d="M-416 1901q0 80 47 125t140 45h391v-162h-402v-133h-176v125z" />
<glyph horiz-adv-x="0" d="M-362 1911h139v69q0 41 -20.5 59.5t-67.5 18.5h-51v135h122q92 0 137.5 -37.5t45.5 -101.5q0 -39 -21.5 -78t-58.5 -55v-10h317v-135h-542v135z" />
<glyph horiz-adv-x="0" d="M-584 1755q-92 0 -149.5 62.5t-57.5 167.5q0 115 69 184t192 69h530v-137h-530q-47 0 -73 -29.5t-26 -78.5q0 -51 22.5 -77t61.5 -26q25 0 41.5 11.5t25.5 28t13 37t6 38.5h125q2 -18 6 -38.5t13.5 -37t26 -28t40.5 -11.5q39 0 61.5 26t22.5 77v45h164v-68 q0 -102 -54.5 -158.5t-152.5 -56.5q-66 0 -116 31t-68 98h-8q-18 -68 -68.5 -98.5t-116.5 -30.5z" />
<glyph horiz-adv-x="0" d="M-768 1956q0 86 48 139t140 53q63 0 110.5 -33.5t63.5 -101.5h11q16 68 63 101.5t111 33.5q92 0 140 -53t48 -139v-37h154v-143h-322v153q0 76 -67 76q-31 0 -49.5 -18.5t-18.5 -65.5v-51h-129v51q0 47 -18.5 65.5t-48.5 18.5q-68 0 -68 -76v-153h-168v180z" />
<glyph d="M766 1583q-51 0 -88 16.5t-72 32.5q-47 23 -83 35t-68 12q-35 0 -61.5 -13t-57.5 -40l-84 107q31 47 83 82.5t128 35.5q51 0 88 -16t72 -33q47 -23 82.5 -35t68.5 -12q35 0 61.5 13.5t57.5 39.5l84 -106q-31 -47 -83 -83t-128 -36z" />
<glyph d="M745 1589q-45 0 -77.5 13.5t-61.5 29.5q-39 18 -67.5 30.5t-59.5 12.5q-29 0 -54.5 -13t-53.5 -38l-84 102q31 47 79 83t117 36q45 0 78 -13t62 -30q39 -18 67.5 -30.5t59.5 -12.5q29 0 54 13.5t54 37.5l84 -102q-31 -47 -79 -83t-118 -36z" />
<glyph d="M315 1804h598v-170h-598v170z" />
<glyph d="M614 1573q-78 0 -110.5 34.5t-32.5 88.5v43q0 53 33 88t110 35q78 0 111 -35t33 -88v-43q0 -53 -33 -88t-111 -35z" />
<glyph d="M410 1589q-70 0 -99.5 32t-29.5 79v37q0 47 29.5 78.5t99.5 31.5t99.5 -31.5t29.5 -78.5v-37q0 -47 -29.5 -79t-99.5 -32zM819 1589q-70 0 -99.5 32t-29.5 79v37q0 47 30 78.5t99 31.5q70 0 99.5 -31.5t29.5 -78.5v-37q0 -47 -29.5 -79t-99.5 -32z" />
<glyph d="M637 1534l-139 65l186 369l195 -94z" />
<glyph d="M350 1874l195 94l186 -369l-139 -65z" />
<glyph d="M727 1933l246 -307l-115 -86l-244 238l-243 -238l-115 86l246 307h225z" />
<glyph d="M502 1556l-246 308l115 86l243 -238l244 238l115 -86l-246 -308h-225z" />
<glyph d="M614 1546q-86 0 -144 29t-97 72t-63.5 95t-39.5 99l123 64l41 -68q35 -59 73 -93t107 -34q70 0 108 34t73 93l41 68l122 -64q-16 -47 -39.5 -99t-62.5 -95t-97.5 -72t-144.5 -29z" />
<glyph d="M614 1503q-55 0 -104 19.5t-85 54.5t-56.5 83t-20.5 103t20.5 103.5t56.5 83.5t85 54t104 19t104.5 -19t85.5 -54t56.5 -83t20.5 -104q0 -55 -20.5 -103t-56.5 -83t-85.5 -54.5t-104.5 -19.5zM614 1628q53 0 83 29t30 80v55q0 51 -29.5 80t-83.5 29q-53 0 -82.5 -29 t-29.5 -80v-55q0 -51 29.5 -80t82.5 -29z" />
</font>
</defs>
</svg>
